<?xml version="1.0" encoding="UTF-8"?>
<svg id="Layer_2" data-name="Layer 2" xmlns="http://www.w3.org/2000/svg" viewBox="0 0 307.77 281.47">
  <g id="Layer_1-2" data-name="Layer 1">
    <path d="M117.66,223.36c-9.95-1.18-17.34-9.93-17.74-19.76-.18-4.47,1.69-9.59,1.55-13.5-.1-2.88-1.96-4.26-4.79-3.74-4.32.79-3.18,10.88-4.56,11.01-12.37-5.15-19.19-14.25-13.8-27.85,1.35-3.41,6.09-8.61,4.12-11.94-3.35-5.68-9.47,3.42-10.04,6.78-19.39-7.08-24.03-30.41-11.25-46.01,1.03-1.26,5.53-5.7,6.78-6.25,2.02-.9,2.59,1.75,3.73,2.75,2.68,2.36,10.78,7.45,13.76,3.77,4.32-5.34-5.23-6.75-7.76-8.77-5.88-4.69-2.95-17.53.16-23.33,3.67-6.84,11.1-11.84,19.02-11.6,1.1,3.46,5.08,12.79,9.83,8.94,3.5-2.83-.67-6.89-1.86-9.67-8.67-20.45,22.06-36.41,38.61-20.11,11.47,11.3,4.27,27.25,6.51,40.99.63,3.86,6.42,3.74,7.87.42.93-9.36-.92-20.15.16-29.34.89-7.62,8.28-15.22,15.31-17.69,16.01-5.63,37.29,8.69,29.57,26.07-1.22,2.74-4.9,6.09-1.95,9.09,4.54,4.63,9.18-5.33,10.09-8.7,8.89-.24,16.84,5.89,20.17,13.94,2.31,5.59,4.34,16.73-.99,20.99-2.53,2.02-12.09,3.42-7.76,8.77,2.76,3.42,10.68-1.04,13.25-3.28,1.22-1.06,2.48-3.82,3.91-3.43,19.65,13.17,19.4,43.4-3.88,52.46-1.6-2.65-3.9-9.21-7.9-8.44-.86.17-2.51,1.42-2.76,2.28-.99,3.32,3.16,7.96,4.48,11.31,5.39,13.6-1.42,22.71-13.8,27.85-1.3-.12-.23-10.2-4.56-11.01-3.27-.61-4.83,1.12-4.77,4.25.15,7.85,3.56,13.62-.6,21.86-2.34,4.64-10.37,10.89-15.61,10.89h-20.75l-.02-33.27c.03-1.18.5-2.28.54-3.46.33-8.83.47-17.71,1.49-26.51.27-2.33.91-9.19,1.62-10.88.75-1.8,5.33-2.1,7.26-2.74,7.63-2.56,14.89-6.01,11.26-15.52-1.89-4.95-11.51-12.41-16.63-8.85-3.99,2.78-6.8,14.68-8.31,19.27l-25.65-.08c-1.27-5.19-3.66-14.98-7.55-18.7-3.55-3.4-11.76.91-14.5,4-6.32,7.12-4.34,14.18,3.89,18.1,3.54,1.69,7.81,1.93,10.73,3.27.75.34.93.47,1.25,1.25.71,1.7,1.35,8.54,1.62,10.88,1.16,9.95,1.09,20.05,2.03,29.97l-.02,33.27c-6.56-.56-14.34.76-20.75,0Z"/>
    <path d="M145.91,223.36c.09-2.74-.11-5.52-.02-8.27.56-17.58.22-35.42-1.48-52.98-.17-1.73-1.95-12.3-1.5-12.75,7.38.34,14.61.34,22,0,.45.46-1.33,11.03-1.5,12.75-1.97,20.31-2.1,40.91-1.5,61.25h-16Z"/>
    <path d="M69.79,207.95c4.17-.51,6.15,3.96,3.39,6.93-7.59,5.42-14.59,14.2-22.1,19.4-5.03,3.48-9.02-1.24-5.94-5.44l22.52-19.98c.61-.4,1.42-.82,2.14-.91Z"/>
    <path d="M236.79,207.95c1.28-.15,2.31.21,3.37.91,6.09,6.95,16.44,12.97,22.28,19.72,3.48,4.03-.44,9.34-5.7,5.7-7.42-5.13-14.33-13.81-21.85-19.15-2.63-2.32-1.77-6.74,1.9-7.18Z"/>
    <path d="M3.26,132.97l30.87-.08c4.58.73,4.74,7.37-.46,7.98-9.38,1.1-20.87-.82-30.48-.04-4.34-1.23-4.19-6.44.07-7.86Z"/>
    <path d="M273.26,132.97l30.87-.08c4.71.74,4.81,7.26.5,7.94-9.03,1.42-21.53-.97-30.94,0-4.37-.69-4.6-6.7-.42-7.87Z"/>
    <path d="M45.07,40.52c1.2-1.31,3.53-1.59,5.03-.59,6.5,6.21,14.97,11.47,21.32,17.68.94.92,2.64,2.33,2.91,3.62.73,3.53-2.96,5.97-6.09,4.06-6.5-5.92-14.52-11.17-20.83-17.17-2.22-2.11-5.16-4.51-2.33-7.6Z"/>
    <path d="M262.75,40.52c2.82,3.09-.11,5.49-2.33,7.6-6.31,6-14.33,11.25-20.83,17.17-3.13,1.9-6.83-.53-6.09-4.06.27-1.29,1.97-2.7,2.91-3.62,6.35-6.21,14.82-11.47,21.32-17.68,1.5-.99,3.83-.71,5.03.59Z"/>
    <rect x="133.91" y="231.36" width="40" height="6.5"/>
    <rect x="133.91" y="245.86" width="40" height="6.5"/>
    <path d="M153.74,0c2.72-.14,3.97,1.65,4.19,4.08.77,8.41-.61,17.98-.03,26.51-1.31,4.09-7.46,3.72-8.02-.46.94-8.26-1.18-19.05.06-26.99.29-1.86,1.99-3.05,3.8-3.14Z"/>
    <path d="M173.91,260.36c-.04,3.09-.75,6.19-4.22,6.53-10.22,1-22.11-.8-32.52-.04-2.31-.44-3.47-4.34-3.26-6.49h40Z"/>
    <path d="M162.41,274.86c-1.32,1.8-3.01,6.26-5.22,6.53-1.14.14-7.1.13-7.78-.28l-4-6.25h17Z"/>
    <path d="M132.4,139.86c-.34.38-8.56-2.84-9.28-4-1.13-1.83,3.67-6.48,5.77-6.5l3.51,10.5Z"/>
    <path d="M175.41,139.86l3.51-10.5c2.1.02,6.9,4.67,5.77,6.5-.72,1.16-8.94,4.38-9.28,4Z"/>
  </g>
</svg>