<?xml version="1.0" encoding="UTF-8"?>
<svg id="Layer_2" data-name="Layer 2" xmlns="http://www.w3.org/2000/svg" viewBox="0 0 139.12 138.22">
  <g id="Layer_1-2" data-name="Layer 1">
    <path d="M49.84,64.76l1,21c7.16-.5,14.42-1.05,21.53.22.49,3.39,3.97,9.4,3.92,12.47-.08,5.16-3.63,12.26-4.95,17.31l8.74-5.5,3.23,9.21c-.24,1.18-12.35,3.56-14.23,3.78-30.88,3.62-60.7-17.13-67.51-47.48C-8.83,29.42,34.03-10.81,79.72,2.62c33.42,9.82,52.06,46.65,40.58,79.59l-5.39-1.7c1.94-4.97,3.03-10.41,2.93-15.76h-15c-.57,3.43-.15,7.46-1.01,10.74-.17.66.43.81-.74.77-.9-.03-4.5-1.05-4.68-1.8l.64-9.77-17.7.05v4.5c-2.55-1.12-6.25-.6-5.5-4.5h-24ZM71.8,32.22c-.12-4.82-4.63-25.09-9.32-26.39-2.93-.81-5.7,6.09-6.52,8.3-2.12,5.68-3.21,12.15-4.12,18.13.72.72,19.24.8,19.96-.04ZM46.33,31.75c1.15-8.4,2.96-16.77,6.51-24.49-9.35,4.24-15.49,12.85-19.98,21.75.07,1.05,11.72,2.64,13.48,2.74ZM77.34,31.76c1.73-.12,13.43-1.69,13.49-2.75-4.41-8.49-10.32-17.52-19.49-21.25,2.85,7.74,5.07,15.76,6,24ZM37.84,11.26c-7.23,2.75-13.66,8.09-18.5,13.99l8.45,2.47c2.26-6.12,6.13-11.35,10.05-16.46ZM104.34,25.25c-1.89-2.67-4.23-4.91-6.76-6.98-1.43-1.16-10.72-7.79-11.74-7.01,4.03,5.02,7.84,10.33,10.05,16.46l8.45-2.47ZM5.84,59.26h15c.21-9.03,2.09-17.85,4.5-26.5l-9.68-3.04c-5.82,8.65-9.88,18.95-9.82,29.54ZM117.84,59.26c.11-7.79-2.32-16.44-5.92-23.33-.44-.85-2.98-5.34-3.33-5.68-1.59-1.5-7.84,2.96-10.25,2.51,2.55,8.66,4.19,17.44,4.5,26.5h15ZM27.09,59.26h16.5l.75-1.25.97-20.72c-4.02.27-10.23-2.59-13.77-2.5-.75.02-.79.26-1.11.82-.85,1.47-2.06,7.1-2.44,9.06-.71,3.7-1.53,8.67-1.67,12.38-.03.71-.01,1.98.77,2.22ZM97.34,59.26c-.21-5.03-.74-10.09-1.73-15.02-.38-1.89-1.54-7.23-2.36-8.64-.32-.56-.36-.8-1.11-.82-3.54-.09-9.75,2.78-13.77,2.5l.97,20.72.75,1.25h17.25ZM49.84,59.26h24l-1-21.5-.76-.02-21.24.02-1,21.5ZM20.84,64.76H5.84c.13,7.55,2.3,15.83,5.73,22.52.64,1.24,3.57,6.42,4.53,6.51,1.93.17,6.74-3.3,9.24-3.03-2.42-8.48-4.24-17.13-4.5-26ZM44.34,64.76h-18c.36,4.87.78,9.73,1.73,14.52.36,1.82,1.57,7.33,2.35,8.64.34.57.4.8,1.16.85,3.13.23,10.08-2.62,13.7-2.57l-.95-21.45ZM71.84,91.26c-6.66-.7-13.35-.7-20,0,.78,5.92,1.92,12.16,3.99,17.76.78,2.1,3.53,8.84,5.85,9.14,3.34-1.2,4.86-5.65,6.03-8.78,2.14-5.69,3.42-12.09,4.13-18.12ZM46.34,91.75c-1.69.16-13.43,1.75-13.49,2.75,4.51,8.87,10.62,17.59,19.98,21.75-3.55-7.71-5.42-16.11-6.5-24.5ZM27.79,95.79l-7.95,2.47c-.87,1.2,5.88,6.79,7.04,7.7,1.3,1.02,10.68,7.43,11.46,6.79-4.31-5.1-8.24-10.63-10.55-16.96Z"/>
    <path d="M117.34,103.76l21.53,21.73.25,1.26-11.96,11.47-22.07-21.95-9.74,17.49-19.01-57.99,57.51,18.74c.83.58.27.8-.33,1.19-4.55,2.97-11.26,5.49-16.18,8.07Z"/>
  </g>
</svg>