<?xml version="1.0" encoding="UTF-8"?>
<svg id="Layer_2" data-name="Layer 2" xmlns="http://www.w3.org/2000/svg" viewBox="0 0 397.73 560.15">
  <defs>
    <style>
      .cls-1 {
        fill: #232021;
      }
    </style>
  </defs>
  <g id="Layer_1-2" data-name="Layer 1">
    <path class="cls-1" d="M244.31,1.62c.08.05.96,1.4,1,1.5.18.41,1.45,4.22,1.5,4.5.06.31-.06.69,0,1,.22,1.25.31,3.07.5,4.5.33,2.49.22,5.18.5,7.5.31,2.5.73,4.98,1,7.5.25,2.34.76,4.67,1,7l-.5.74.5.26c.5,4.99.5,10.31,1,15.25.69,6.81.22,6.69,6.32,9.68,3.08,1.52,6.71,2.62,9.86,4.14,17.26,8.36,32.75,23.1,43.93,38.57,5.97,8.25,9.05,15.05,16.63,22.37,19.37,18.75,41.7,35.32,62.28,52.72,9.19,9.74,8.14,24.42,7.51,37.03-.96,19.19-9.03,31.74-25.06,41.94-10.69,6.8-17.84,8.78-30.73,7.81-11.59-.87-13.1-6.2-20.77-12.23-5.59-4.39-14.97-7.44-21.85-9.15-20.45-5.09-34.7,2.3-54.86,3.85-1.13.09-6.18-.43-6.23.75-.04,1.02,9.74,13.5,11.23,15.26,17.26,20.39,38.31,38.07,55.24,58.76,17.85,21.81,31.18,54.01,31.53,82.47.08,6.34-1.21,12.85-.95,19.2,17.54,5.34,27.71,23.12,23.78,41.17-1.1,5.07-4.22,9.72-6.35,14.39,14.67,5.71,26.67,20.54,30.64,35.62,2.59,9.81,3.24,25.51,2.37,35.66-.33,3.88-2.63,7.4-6.24,8.76H19.54c-4.17-1.78-6.31-5.22-6.72-9.78-.75-8.48-.25-21.94,1.13-30.35,2.82-17.25,15.64-32.06,30.83-39.93-1.63-5.42-5.27-9.2-5.9-15.27-1.44-13.77,1.49-24.64,12.2-33.67,7.17-6.05,10.65-5.05,14.25-15.25,2.26-6.41,3.6-14.01,3.98-20.77-1.07-1.08-26.38,2.78-30.26,3-3.61.2-11.48.78-13.96-2.03-2.72-3.09-7.28-23.24-8.54-28.46C-2.97,287.24-11.58,202.32,27.12,126.18c21.5-42.3,59.88-80.3,104.19-98.06,1.16-.47,2.35-1.06,3.5-1.5.48-.19,1-.31,1.5-.5,1.8-.68,3.69-1.34,5.5-2,.43-.15.74-.4,1-.5,1.09-.41,1.82.05,3.5-1,.21-.13.5.08,1-.5.85.37,1.56-.4,2-.5.59-.13,2.73-.14,3-.5,1.17.03,1.74.33,1.5-1,.33,0,.67.01,1,0,1.55-.05,1.55.28,3.5-.5.26-.1.9.11,1,0l1-.5c.42.06,1.05.03,1.5,0,2.08-.13,4.64-1.23,6.5-1.5.48-.07,1.02.07,1.5,0,.95-.13,1.9-.42,2.5-.5,1.83-.24,3.69-.29,5.5-.5,2.45-.28,5.21-.8,7.5-1,.66-.06,1.34.05,2,0,1.32-.11,2.68.1,4,0,1.06-.08,2.21-.41,3.5-.5.66-.05,1.34.03,2,0,.54-.02,2.37.1,2.5,0l1-.5c1.54.14,2.65-.48,4-1,3.34-1.29,5.93-3.75,9-5.5.49-.28,1.35-.66,2-1,1.01-.53,3.32-.48,3-2,.43.03,1.12.07,1.5,0,1.03-.2,2.89-1.6,4-2,.41-.15.77-.42,1-.5,4.13-1.38,10.97-3.15,15.22-2.47.29.05,4.08,1.36,4.28,1.47ZM82.31,423.62h233.5c5.76-22.84-1.2-48.06-11.74-68.51-19.26-37.35-58.23-59.58-79.97-95.03-3.47-5.66-6.51-14.12-11.83-17.67-3.36-2.24-7.63-3.83-11.11-5.89-13.12-7.76-24.02-17.59-31.44-31.06-3.49-6.34-12.33-24.15-.05-26.21,9.97-1.67,11.78,10.75,15.73,17.53,18.3,31.48,54.17,38.92,87.29,27.98,3.56-1.18,6.4-3.47,10.31-3.09,8.76.85,26.87,6.31,35.14,9.86,9.49,4.07,14.17,10.09,22.01,14.49,13.75,7.71,32.9-9.2,37.53-21.77,2.14-5.81,2.34-20.47,1.49-26.75-.16-1.15-.75-3.18-1.27-4.23-2.28-4.63-15.6-13.27-20.34-17.16-14.52-11.94-43.92-34.76-53.47-49.53-12.39-19.15-20.08-32.01-41.28-43.22-7.85-4.15-15.99-5.36-23.27-8.73-4.91-2.27-4.99-7.47-5.67-12.33-1.68-11.98-1.23-25.06-3.13-36.87-.16-1.02-.8-5.09-1.72-5.29-2.67-.6-21.89,14.48-24.72,17.23-13.45,13.03-16.64,23.36-23.9,39.6-3.65,8.16-9.47,7.36-16.85,10.15-83.08,31.49-103.57,115.98-94.74,197.25,2.68,24.61,8.93,47.62,13.84,71.66,4.59,22.48,6.76,45.35-.34,67.59ZM181.31,34.62c-60.87,4.44-113.68,49.66-139.93,102.82-37.46,75.87-23.83,162.03-3.95,240.8.69,1.93,3.36,1.44,5.12,1.37,5.63-.24,13.7-1.6,19.36-2.64,1.54-.28,5.62-.56,5.91-2.11.32-1.69-1.25-8.17-1.67-10.34-6.19-31.91-13.86-60.17-16.34-93.16-6.3-83.66,22.68-169.33,106.23-201.26,2.57-.98,4.99-.74,7.28-2.72,2.83-2.45,5.75-11.06,7.73-14.77l10.26-17.99ZM88.21,441.27c-6.03.16-18.33-.38-23.25,2.25-11.9,6.35-10.34,28.67,4.11,30.1,13.33,1.32,27.98.31,41.52.48,57.74.76,115.72.72,173.46,0,14.47-.18,30.22.9,44.46-.54,11.89-1.21,16.85-17.19,9.57-25.94-8.44-10.15-23.08-4.09-34.48-6.52-71.73,1.3-143.67-1.72-215.38.17ZM366.81,542.62c1.26-19.67-2.13-37.06-21.51-45.74-15.49-6.94-43.25-4.05-60.76-4.24-53.27-.58-106.69-.5-159.96,0-18.93.18-39.93-1.24-58.52.48-19.08,1.77-33.75,17.26-34.77,36.23-.24,4.39.22,8.88.02,13.27h335.5Z"/>
  </g>
</svg>