<?xml version="1.0" encoding="UTF-8"?>
<svg id="Layer_2" data-name="Layer 2" xmlns="http://www.w3.org/2000/svg" viewBox="0 0 414.88 122.88">
  <defs>
    <style>
      .cls-1, .cls-2 {
        fill: #405163;
      }

      .cls-3 {
        fill: none;
        stroke-linecap: round;
      }

      .cls-3, .cls-2, .cls-4, .cls-5 {
        stroke: #405163;
        stroke-miterlimit: 10;
      }

      .cls-3, .cls-4 {
        stroke-width: 2px;
      }

      .cls-4, .cls-5 {
        fill: #fff;
      }

      .cls-5 {
        stroke-width: .75px;
      }
    </style>
  </defs>
  <g id="Bic">
    <g>
      <path class="cls-1" d="M150.29,1.84l230.13-.34c28.57,5.7,24.38,30.21,17.96,52.29-8.82,30.33-33.97,65.94-68.22,68.71l-213.15-.12c-8.55-2.23-18.78-2.26-25.23-9.55-6.01-6.78-5.96-24.52-4.46-33.23,1.94-11.27,16.8-39.54,23.92-49.25,9.32-12.69,23.57-24.11,39.04-28.51ZM160.02,7.64c-29.37,2.8-47.97,30.3-58.57,55.23-8.21,19.31-18.22,45.01,9.75,51.84l226.26-.34c34.16-8.78,62.05-59.81,57.52-92.74-1.61-11.74-13.03-12.12-22.32-14.36l-212.65.37Z"/>
      <path class="cls-1" d="M43.69,1.78c12.12-2.63,25.88,2.92,27.77,16,4.48,31.03-39.89,34.05-42.64,5.7-.8-8.27,6.56-19.9,14.87-21.7Z"/>
      <path class="cls-1" d="M32.71,51.39c0-1.08-.35-2.68.3-3.44,2.51-2.93,24.6-3.58,28.07,1.36,9.91,16.79-4.51-1.49-6.27.4s-2.63,7.98-5.63,9.35c-.65.29-3.23-8.48-6.76-10.65-1.87-1.15-6.52.41-7.5,1.31-2.11,1.95-5.65,22.9-4.14,24.69,7.13,1.17,2.44-4.13,2.85-7.71.29-2.55,1.78-7.07,4.89-7.65l-1.94,30.72h23.25s0-24.96,0-24.96l1.94,15.36c5.95-2.12.83-11.53.92-17.12.04-2.32-1.75-7.53,1.62-7.08,1.14,7.31,1.58,20.29,3.51,26.84.83,2.83,12.06,9.96,9.44,12.72l-14.4-7.65-8.26,9.75-12.21-.19v9.6s8.77.5,10.8-.31-.53-9.96,1.62-9.3c.35,3.42.62,11.17,1.1,14.46.57,3.86,5.44,5.58,3.92,10.51-5.29,2.11-2.86-3.65-4.95-3.94h-13.36c-1.88,4.39-1.41,4.53-6.88,3.94-1.06-4.47,4.68-5.81,5.57-8.88.77-2.67.66-10.2.24-13.2-.62-4.4-4.7-8.16-5.5-11.83-1.38-6.37,1.64-12.83-7.98-14.18l2.76-12.29c-2.1-.95-11.01-8.25-12.43-9.74C10.81,45.45,2.91,42.26.01,32.82l2.67-6.39,30.03,24.96Z"/>
      <path class="cls-1" d="M110.2,97.46l.85-5.87,35.11-69.09,69.62.09c6.12,2.04,12.39,4.17,14.22,10.87,1.87,14.33-10.13,22.6-22.93,25.62,11.08,10.02,7.69,23.47-3.92,31.62-1.42,1-11.83,6.77-12.54,6.77h-80.4ZM195.15,45.34c.7-.74.61-3.63,2.12-4.68,1.14-6.5-18.65-6.5-23.2-1.82-1.21,1.25-6.92,9.56-5.75,10.61,5.27-.48,11.36.71,16.46,0,1.35-.19,9.98-3.71,10.37-4.12ZM145.07,82.1c13.64.38,34.45,2.77,32.8-16.19-1.45-5.06-15.3-2.64-19.97-2.77l-12.83,18.96Z"/>
      <path class="cls-1" d="M356.12,26.29l1.19-3.81,31.87.11c-6.87,13.25-21.09,20.94-29,33.65l-17.49.9,2.99-13.47-2.98-4.78-6.79-2.92c-19.68,6.22-34.26,25.41-25.95,45.93,15.34,5.6,29.54-1.49,39.5-13.22l8.67,10.43c-3.19,2.91-6.27,7.25-9.69,9.67-9.05,6.4-28.77,11.51-39.76,10.68-29.2-2.2-44.14-24.41-30.31-51.32,12.03-23.42,46-32.2,70.21-24.68,2.64.82,4.49,3.85,7.54,2.83Z"/>
      <polyline class="cls-1" points="269.73 40.61 249.69 97.46 212.88 97.46 245.99 40.04 261.37 40.34"/>
      <path class="cls-1" d="M255.44,38.45c-2.16-2.43-2.62-14.61,3.21-17.55,16.52-4.74,25.27,12.84,7.57,18.35"/>
      <circle class="cls-5" cx="44.29" cy="16.34" r="6.63"/>
      <circle class="cls-4" cx="407.26" cy="7.98" r="6.63"/>
      <path class="cls-2" d="M404.56,3.06h3.01c1.95,0,3.38.71,3.38,2.72s-1.43,2.85-3.38,2.85h-1.76v4.07h-1.25V3.06ZM407.4,7.63c1.5,0,2.32-.62,2.32-1.85s-.82-1.72-2.32-1.72h-1.59v3.57h1.59ZM408.29,7.65l2.94,5.05h-1.4l-2.51-4.41.97-.65Z"/>
      <line class="cls-3" x1="3.44" y1="43.24" x2="22.65" y2="59.22"/>
      <polygon class="cls-1" points="0 32.72 2.83 44.05 15.78 49.11 0 32.72"/>
    </g>
  </g>
</svg>