<?xml version="1.0" encoding="UTF-8"?>
<svg id="Layer_2" data-name="Layer 2" xmlns="http://www.w3.org/2000/svg" viewBox="0 0 216.67 190.27">
  <defs>
    <style>
      .cls-1 {
        fill: #425365;
      }

      .cls-2 {
        fill: #fff;
      }
    </style>
  </defs>
  <g id="Layer_8" data-name="Layer 8">
    <path class="cls-1" d="M84.53,57.12l18.05-2.85v6.65s11.41,0,11.41,0v-6.65s18.05,2.85,18.05,2.85c1.3-1.24-5.52-7.21-3.35-9.52l15.74-13.73,3.31-1.45,64.14.44c2.73,2.56,5.64,5.24,4.57,9.36l-103.45,146.45c-4.25,2.91-8.85,1.61-11.79-2.39L4.29,49.47c-5.1-6.26-6.96-13.71,1.83-17.06h62.74s19.02,15.19,19.02,15.19l.35,2.27-3.7,7.26ZM51.27,93.23v-14.25c3.33.26,6.28.39,5.7-3.8-2.48.4-9.58-1.2-10.36,1.52-.41,1.43-.41,17.38,0,18.82.78,2.71,7.88,1.12,10.36,1.52v-3.8s-5.7,0-5.7,0ZM74.08,97.03v-18.53c0-.17-1.55-2.69-1.85-2.9-1.4-.96-12.4-.91-12.4,1v20.43h3.8c-1.57-9.3,7.29-9.25,5.7,0h4.75ZM91.18,97.03v-20.43c0-2.83-7.87-.75-9.2-.69-1.49.07-3.25-1.24-5.05-.73v21.85h4.75v-18.05h4.75v18.05h4.75ZM109.23,97.03v-19.48c0-.13-1.59-1.77-1.88-1.92-1.77-.91-12.37-.99-12.37.97v20.43h3.8c-1.57-9.3,7.29-9.25,5.7,0h4.75ZM112.08,97.03l11.74-.13c.6-.17,1.78-1.21,2.05-1.75.79-1.58.81-17.89.03-19.07-3.94-1.97-9.38-.44-13.82-.9v21.85ZM133.94,75.18h-3.8v21.85h3.8v-21.85ZM151.99,97.03v-20.43c0-1.97-10.6-1.88-12.37-.97-.29.15-1.88,1.79-1.88,1.92v19.48h4.75s0-6.65,0-6.65c1.38.12,2.91-.18,4.25,0,1.12.15.24,5.32.5,6.66h4.75ZM170.04,97.03v-18.53c0-.26-1.69-2.98-2.48-3.22l-12.72-.11v21.85h4.75v-18.05h5.7v18.05h4.75ZM86.43,109.39v19h4.75v-19h4.75c1.18-5.2-7.34-4.12-10.96-3.84-2.77.22-3.63.77-3.29,3.83h4.75ZM102.58,105.58h-4.75v22.8h4.75v-22.8ZM105.43,107.01v21.38h4.75c-1.86-11.9,7.57-11.85,5.7,0h4.76c-.2-1.99.31-4.29.02-6.2-.25-1.66-2.03-2.41-1.84-3.64.14-.88,1.38-1.96,1.66-3.15.87-3.74-.01-8.72-4.29-9.65-2.03-.44-10.22-.8-10.76,1.25ZM133.94,105.59c-2.63-.11-9.46-.49-10.35,2.48-.52,1.74-.45,14.71-.12,17.01.21,1.49,1.2,2.49,2.52,3.18l7.95.13v-3.8c-1.26-.26-5.56.61-5.71-.51-.21-1.62.15-3.52,0-5.2h5.71s0-3.8,0-3.8h-5.71s0-5.7,0-5.7h5.71s0-3.8,0-3.8Z"/>
    <path class="cls-1" d="M109.23.11c.42,1.98,3.98,10.05,5.29,10.42,2.4.68,4.37-3.18,7.07-2.81l-3.8,19.95,9.02-9.5,2.44,4.68,8.49-1.84-.88,9.44c.57.59,4.67.38,3.73,2.44l-15.7,13.76c-1.72,3.31,1.22,3.86,1.45,6.68l-14.67-2.83c-2.42,1.59-1.71,4.39-.53,6.63h-5.7s0-6.65,0-6.65l-15.2,2.85c-.18-2.49,3-4.18,1.45-6.67-3.67-3.49-8.2-6.58-11.93-9.93-.85-.76-4.76-4.35-3.78-5.25l3.74-1.02-.89-8.48,8.49.89,2.44-4.68,9.02,9.5-3.8-19.95c2.7-.36,4.67,3.5,7.07,2.82,1.13-.32,4.37-7.5,5.11-9.19.56-1.27-.07-1.53,2.07-1.23Z"/>
    <path class="cls-2" d="M105.43,107.01c.54-2.06,8.73-1.69,10.76-1.25,4.27.92,5.16,5.9,4.29,9.65-.28,1.19-1.51,2.27-1.66,3.15-.2,1.23,1.58,1.98,1.84,3.64.29,1.91-.22,4.21-.02,6.2h-4.76c1.87-11.86-7.55-11.91-5.7,0h-4.75v-21.38ZM115.89,116.04c.15-3.78.8-7.47-4.23-6.61-2.16.61-1.39,4.78-1.47,6.61h5.71Z"/>
    <path class="cls-2" d="M112.08,97.03v-21.85c4.45.47,9.89-1.06,13.82.9.79,1.18.77,17.49-.03,19.07-.27.54-1.45,1.57-2.05,1.75l-11.74.13ZM121.58,78.98h-4.75v14.25h4.75v-14.25Z"/>
    <path class="cls-2" d="M151.99,97.03h-4.75c-.27-1.33.62-6.51-.5-6.66-1.34-.17-2.87.12-4.25,0v6.66s-4.75,0-4.75,0v-19.48c0-.13,1.59-1.77,1.88-1.92,1.77-.91,12.37-.99,12.37.97v20.43ZM147.24,78.98h-4.76v8.55c1.91-1.14,2.85-1.14,4.75,0v-8.55Z"/>
    <path class="cls-2" d="M74.08,97.03h-4.75c1.59-9.25-7.27-9.3-5.7,0h-3.8v-20.43c0-1.91,11-1.96,12.4-1,.3.21,1.85,2.73,1.85,2.9v18.53ZM69.33,78.98h-5.71v7.61h5.71v-7.61Z"/>
    <path class="cls-2" d="M109.23,97.03h-4.75c1.59-9.25-7.27-9.3-5.7,0h-3.8v-20.43c0-1.97,10.6-1.88,12.37-.97.29.15,1.88,1.79,1.88,1.92v19.48ZM104.48,78.98h-5.71c.12,1.71-.7,8.43,1.41,8.45l4.29-.85v-7.59Z"/>
    <path class="cls-2" d="M170.04,97.03h-4.75v-18.05h-5.7v18.05h-4.75v-21.85l12.72.11c.79.24,2.48,2.96,2.48,3.22v18.53Z"/>
    <path class="cls-2" d="M91.18,97.03h-4.75v-18.05h-4.75v18.05h-4.75v-21.85c1.8-.5,3.56.8,5.05.73,1.33-.06,9.2-2.13,9.2.69v20.43Z"/>
    <path class="cls-2" d="M133.94,105.59v3.8s-5.71,0-5.71,0v5.71s5.71,0,5.71,0v3.8h-5.71c.15,1.68-.22,3.57,0,5.2.15,1.11,4.45.25,5.71.51v3.8s-7.95-.13-7.95-.13c-1.32-.69-2.31-1.68-2.52-3.18-.33-2.3-.4-15.28.12-17.01.89-2.97,7.72-2.59,10.35-2.48Z"/>
    <path class="cls-2" d="M51.27,93.23h5.7s0,3.8,0,3.8c-2.48-.4-9.58,1.19-10.36-1.52-.41-1.43-.41-17.38,0-18.82.78-2.71,7.88-1.12,10.36-1.52.58,4.19-2.37,4.06-5.7,3.8v14.25Z"/>
    <path class="cls-2" d="M86.43,109.39h-4.75c-.34-3.07.52-3.62,3.29-3.84,3.62-.29,12.14-1.36,10.96,3.83h-4.75v19.01h-4.75v-19Z"/>
    <rect class="cls-2" x="97.83" y="105.58" width="4.75" height="22.8"/>
    <rect class="cls-2" x="130.14" y="75.18" width="3.8" height="21.85"/>
    <path class="cls-1" d="M115.89,116.04h-5.71c.09-1.83-.68-6,1.47-6.61,5.03-.86,4.39,2.83,4.23,6.61Z"/>
    <rect class="cls-1" x="116.83" y="78.98" width="4.75" height="14.25"/>
    <path class="cls-1" d="M147.24,78.98v8.55c-1.91-1.14-2.85-1.14-4.75,0v-8.55s4.75,0,4.75,0Z"/>
    <rect class="cls-1" x="63.62" y="78.98" width="5.71" height="7.61"/>
    <path class="cls-1" d="M104.48,78.98v7.59s-4.3.85-4.3.85c-2.1-.02-1.29-6.73-1.41-8.45h5.71Z"/>
  </g>
</svg>