<?xml version="1.0" encoding="UTF-8"?>
<svg id="Layer_2" data-name="Layer 2" xmlns="http://www.w3.org/2000/svg" viewBox="0 0 255.82 70.83">
  <defs>
    <style>
      .cls-1 {
        fill: #425365;
      }

      .cls-2 {
        fill: #fff;
      }
    </style>
  </defs>
  <g id="Layer_8" data-name="Layer 8">
    <path class="cls-1" d="M97.74,24.14l.96-3.24c5.11-11.46,21.95-14.13,32.78-10.4.48.16,3.6,1.45,3.71,1.62.16.25-.01.76-.18,1.01l-6.06,8.93c-3.41-1.74-7.05-3.35-11-2.6-1.57.29-3.71,2.17-1.58,3.19,1.85.89,6.07,1.12,8.41,1.81,13.97,4.14,8.03,17.16-2.19,21.66-7.36,3.24-15.99,3.12-23.71,1.28-.95-.23-6.1-1.68-6.49-2.15-.41-.5,6.48-9.58,6.95-10.91,1.4.59,2.55,1.66,3.92,2.31,2.78,1.31,7.93,2.56,10.68.83,1.36-.85,1.67-2.45-.01-3.09-2.41-.92-6.07-.82-8.8-1.65-3.21-.99-6.57-3.01-7.17-6.57l-.74,4.13c-4.35,15.2-23.14,20.57-37.23,17.59-22.68-4.8-17.23-28.63.96-36.14,12.49-5.16,34.37-4.27,36.8,12.37ZM71.1,21.7c-10.07,1.22-12.44,15.22-.75,14.93s14.29-16.57.75-14.93Z"/>
    <path class="cls-1" d="M172.47,9.6l-3.41,12.26c2.29-2.94,4.65-5.48,7.78-7.55,8.58-5.66,19.2-6.76,28.99-3.78l-2.25,14.51-2.8-1.85c-3.99-2.42-9.05-2.45-13.03,0-3.58,2.19-6.09,7.05-2.8,10.61s9.94,2.75,14.02.83c.43-.2,2.85-1.82,3.02-1.63l-3.16,14.16c-.33.46-5.8,1.19-6.72,1.28-4.56.43-9.27.48-13.69-.85-9.8-2.95-14.88-11.28-11.42-21.3.51-1.47,1.36-2.77,1.82-4.2-3.11.22-6.23-.5-9.33-.13l-7.94,26.02h-17.04l7.73-26-9.32.11,3.63-12.49h35.89Z"/>
    <path class="cls-1" d="M49.77,1.91l-2.7,17.46c-.25.03-.45,0-.68-.11-.81-.43-2-1.63-3.03-2.2-6.9-3.79-20.13-1.92-21.45,7.02-1.43,9.74,11.76,9.94,18.11,7.43,1.74-.69,3.32-1.8,5-2.61l-3.9,17.22c-2.96.87-6.09,1.37-9.17,1.63-6.73.57-13.47.44-19.73-2.3C-4.57,38.08-2.74,20.14,9.71,9.38,20.52.04,36.29-2.07,49.77,1.91Z"/>
    <path class="cls-1" d="M230.81,8.99c12.98-.84,28.31,5.63,24.38,21.2s-25.17,21.3-39.15,17.28c-9.62-2.77-15.08-10.1-12.22-20.26,3.21-11.41,15.93-17.49,26.99-18.21ZM229.22,21.7c-11.3,1.3-12.32,17.07,1.01,14.64,10.68-1.95,11.27-16.05-1.01-14.64Z"/>
    <path class="cls-1" d="M130.45,53.21l-1.25,7.72c1.87-8.68,19.32-11.27,22.42-2.88l.64,2.2,1.14-7.04h7.72l-2.27,11.81h6.36c-.53,1.77-.46,3.84-1.25,5.45h-13.74c.32-1.69.58-3.4.93-5.09.14-.7.76-1.43.32-2.18-1.1,3.49-4.39,5.94-7.84,6.93-5.29,1.52-13.33.95-14.77-5.45-.08-.35.15-.4-.45-.34l-1.14,6.13h-7.27l1.14-5.9h-4.43c-.15.1-.24.21-.3.38-.49,1.51-.52,3.91-.95,5.52h-7.27l2.61-15.44-9.54,15.44h-6.47l-.8-9.31-4.24,9.28h-6.52s-3.89-17.22-3.89-17.22h7.72l.8,10.22,4.99-10.24,5.54.05,1.17,10.19c1.11-3.56,2.85-6.96,4.66-10.22h14.43l-.91,5.9h4.2c.75-1.76.93-3.96,1.25-5.9h7.27ZM139.93,58.71c-4.36.74-5.37,7.37.84,6.51,4.66-.64,4.99-7.51-.84-6.51ZM151.69,62.74v.23c.15-.08.15-.15,0-.23Z"/>
    <path class="cls-1" d="M180.65,65.7l-.34,2.73,2.72-4.08c1.06,1.07,5.75,2.79,6.6,1.13.78-1.54-2.66-1.42-3.76-1.71-2.54-.67-4.22-2.19-3.42-5.01,1.67-5.9,11.57-7.19,16.27-4.42.2.31-.53,1.27-.71,1.58-.24.41-1.87,2.93-2.04,2.97-1.28-.76-3.93-1.84-5.31-1-2.12,1.29,3.09,1.84,3.8,2.08,2.57.85,3.4,2.1,3.34,4.84l6.97-11.54,8.45-.06,3.51,14.69.48.32,2.73-14.99h7.5l-2.04,11.81h6.13c0,.75-.68,5.37-1.06,5.46h-21.21c-.03-.57.09-1.98-.56-2.07-.61-.08-4.81-.08-5.2.05-.6.2-.75,2.01-1.17,2.01h-7.84l1.13-2.27c-4.49,3.43-10.64,3.17-15.67,1.14-.12.2-.17,1.14-.23,1.14h-14.31l3.52-17.26h13.74l-.89,4.67c-.84.34-6.15-.13-6.37.1-.06.06-.04,1.28-.23,1.59h5.68l-.71,4.52c-.78.19-5.66-.17-5.87.04-.06.06-.17,1.31-.24,1.58h6.59ZM209.05,64.33l-.57-5.45c-.53.63-2.7,5.13-2.39,5.45h2.95Z"/>
    <path class="cls-1" d="M78.65,57.98H1.64v-4.77h75.76c.75,1.4.79,3.23,1.25,4.77Z"/>
    <path class="cls-1" d="M79.11,59.79l.91,4.54H1.75s-.34-.32-.34-.34v-3.86s.32-.34.34-.34h77.35Z"/>
    <path class="cls-1" d="M81.38,70.47H1.64v-4.31h78.72c.65,1.22.87,2.91,1.02,4.31Z"/>
    <path class="cls-1" d="M249.26,53.21l-.89,4.67c-.84.33-6.14-.11-6.36.11-.06.06-.17,1.31-.24,1.58h5.68l-.69,4.53c-.25.24-4.94-.22-5.76,0-.25.07-.37,1.3-.37,1.6h6.36l-.68,4.77h-14.31l3.18-17.26h14.08Z"/>
    <path class="cls-1" d="M247.61,43.72c4.36-.69,4.14,4.44.38,4.92-4.31.55-3.88-4.37-.38-4.92ZM248.8,47.53c2.86-1.58.26-4.32-2.16-2.73-2.14,1.41-.71,3.79,1.88,3.03.19-.06.25-.28.28-.3-.68.65-.9-1.09-1.02-1.14-.97-.4-.33,1.37-1.25,1.14.02-.35.14-2.4.23-2.49s2.17-.09,2.39.22c.44.61-.46.93-.53,1.28-.05.25.29.89.18,1ZM248.58,45.49h-1.13v.45h1.13v-.45Z"/>
    <path class="cls-2" d="M71.1,21.7c13.53-1.64,11.25,14.63-.75,14.93s-9.32-13.71.75-14.93Z"/>
    <path class="cls-2" d="M229.22,21.7c12.28-1.41,11.69,12.69,1.01,14.64-13.33,2.43-12.32-13.34-1.01-14.64Z"/>
    <path class="cls-2" d="M139.93,58.71c5.82-.99,5.5,5.87.84,6.51-6.21.86-5.2-5.77-.84-6.51Z"/>
    <path class="cls-2" d="M151.69,62.74c.15.08.15.15,0,.23v-.23Z"/>
    <path class="cls-2" d="M209.05,64.33h-2.95c-.32-.32,1.85-4.82,2.39-5.45l.57,5.45Z"/>
    <path class="cls-2" d="M248.8,47.53c.11-.11-.22-.75-.18-1,.07-.35.97-.67.53-1.28-.22-.3-2.31-.3-2.39-.22s-.21,2.15-.23,2.49c.92.23.28-1.54,1.25-1.14.12.05.34,1.79,1.02,1.14-.03.02-.08.24-.28.3-2.59.76-4.02-1.61-1.88-3.03,2.42-1.6,5.02,1.14,2.16,2.73Z"/>
    <rect class="cls-2" x="247.44" y="45.49" width="1.13" height=".45"/>
  </g>
</svg>