<?xml version="1.0" encoding="UTF-8"?>
<svg id="Layer_2" data-name="Layer 2" xmlns="http://www.w3.org/2000/svg" viewBox="0 0 234.82 193.87">
  <defs>
    <style>
      .cls-1 {
        fill: #405163;
      }

      .cls-2 {
        fill: #fffeff;
      }

      .cls-3 {
        fill: #425365;
      }

      .cls-4 {
        fill: #fff;
      }

      .cls-5 {
        fill: #d9dce0;
      }
    </style>
  </defs>
  <g id="Layer_6" data-name="Layer 6">
    <g>
      <path class="cls-1" d="M197.31,153.57c.66-.79.41-1.39,1.54-1.27,5.67.56,13.79,6.16,19.65,2.79,2.82-1.62,3.4-5.27,1.16-7.7-4.14-4.49-17.04-6.31-23.06-7.43-51.02-9.47-103.24-9.73-154.36-.74-5.7,1-12,2.02-17.56,3.5-4.15,1.11-14.05,4.78-10.09,10.73,4.33,6.51,16.11-.75,21.53-1.15.88-.07.81.57,1.35,1.18-.12.21-.27.21-.47.27-2.17.7-5.03,1.11-7.33,1.72-6.15,1.65-14.75,5.61-18.2-2.41L0,103.27c4.35-5.41,11.53-8.61,17.98-10.85,11.41-3.98,24.26-5.78,36.25-7.36,42.8-5.66,86.34-5.53,129.11.37,14.22,1.96,37.79,5.35,48.8,14.94.77.67,2.71,2.42,2.67,3.38-4.03,15.75-6.88,31.85-11.02,47.57-2.84,10.81-13.23,5.53-20.71,3.6-1.91-.49-3.85-.88-5.77-1.35Z"/>
      <path class="cls-3" d="M32.86,143.79c18.31-3.63,36.88-6.07,55.53-7.22,16.96,12.11,40.61,12.58,57.56.11,16.32.73,32.72,2.8,48.81,5.69,1.93.35,4.96.68,6.7,1.24.19.06.34.06.47.27-7.93,14.19-19.34,26.39-33.09,35.09-31.09,19.68-70.66,19.88-101.97.55-14.13-8.72-25.93-21.25-34.01-35.73Z"/>
      <path class="cls-5" d="M213.02,86.51c-3.39-.67-6.75-1.63-10.16-2.31-12.7-2.54-25.81-3.89-38.69-5.29-.33-.1-1.51-3.3-1.81-3.92-10.75-22.04-35.49-33.38-59.29-26.26-14.64,4.38-26.94,15.83-32.17,30.19-16.38,1.77-32.95,3.39-48.86,7.78-.13-2.19.33-4.5.71-6.68C32.04,26.04,84.72-9.72,138.56,2.34c39.94,8.95,70.26,43.48,74.46,84.16Z"/>
      <path class="cls-4" d="M117.79,95.26c1.7,1.7,1.94,4.78.43,6.67-.55.69-1.28.95-1.84,1.57,5.7,1.19,5.29,9.07-.04,10.59-2.35.67-6.37.63-8.92.69-3.22.08-3.95-.04-4.17-3.42-.25-3.81-.12-7.99-.17-11.84-.03-1.84-1.07-5.29,1.74-5.63,2.46-.3,6.98-.4,9.43-.19,1.24.11,2.65.67,3.53,1.55Z"/>
      <path class="cls-4" d="M183.82,116.07c-.73.3-1.24.9-1.99,1.24-5.69,2.57-9.14-2.74-8.73-7.99.57-7.22,7.39-9.8,12.2-4.34.28-1.56.24-6.45,1.41-7.36.65-.51,1.52-.51,2.2-.03.8.57.69,1.64.65,2.51-.24,5.58-1.85,11.68-2.27,17.31-1.07,2.42-4.12,1.3-3.46-1.34Z"/>
      <path class="cls-4" d="M145.39,105.17c.21.28,4.32-4.12,4.71-4.44.87-.73,2.31-1.83,3.36-.68,2,2.19-3.28,4.43-3.27,5.39l4.16,7.48c.55,1.95-1.34,3.32-2.95,2.03l-4.08-7.01c-.13-.03-2.02,1.59-2.08,1.79-.38,1.29.36,4.75-1.47,5.18-1.69.39-2.65-.6-2.65-2.26,0-.43.2-.84.21-1.28.06-4.82.13-10.39.55-15.16.11-1.23.55-2.92,2.11-2.85,2.7.12,1.65,4.84,1.59,6.55s-.01,3.51-.18,5.26Z"/>
      <path class="cls-4" d="M133.36,104.59c.24-.38-.26-1.89-.55-2.26-.61-.78-2.45-.78-3.38-.65-2.22.31-2.54,2.67-3.57,2.9-1.39.31-2.28-.86-2-2.19.9-4.29,11.42-5.06,13-.41.86,2.53.17,5.05.22,7.52.03,1.55,1.85,4.71-.5,5.24-2.08.47-2.48-2.03-3.07-1.98-2.32,1.65-5.04,2.67-7.82,1.49-3.8-1.61-3.47-6.76.53-8.03.97-.31,6.89-1.24,7.14-1.63Z"/>
      <path class="cls-4" d="M159.8,109.05c.16,4.22,3.19,5.84,6.82,3.58.92-.57,2.13-2.2,3.27-.83,1.69,2.03-3.15,4.3-4.82,4.45-6.71.6-10.39-4.32-8.64-10.67,2.18-7.9,14.29-6.43,14.39,1.37.04,2.88-1.55,2.74-3.91,2.66-1.78-.06-3.74-.44-5.54-.56-.52-.04-1.05.02-1.57,0Z"/>
      <path class="cls-4" d="M62.98,115.88c-1.64,2.44-3.88,3.6-6.88,3.1s-3.45-3.85-3.81-6.35c-.27-1.88-.77-5.01-.78-6.81,0-2.45,3.19-2.96,3.85-.51.63,2.32.27,8.85,2.2,10.18s4.53-.71,4.67-2.86c.16-2.36-.88-5.54-.92-7.93-.02-.99.53-2,1.57-2.13,2.04-.25,2.22,1.1,2.48,2.71.58,3.64.69,7.4,1.3,11.04-.39,2.92-3.82,2.4-3.68-.44Z"/>
      <path class="cls-4" d="M42.72,99.69c.94-.93,3.18-.52,3.46.94.27,4.49,3.11,12.67,1.61,16.78s-8.53,5.49-11.41,2.26c-1.05-1.18-2.8-4.78-1.11-5.9,3.84-2.56,2.55,5.58,7.01,4.06,1.9-.65,1.78-2.55,1.66-4.25-.26-3.8-1.75-8.35-1.85-12.02-.02-.6.19-1.44.62-1.87Z"/>
      <path class="cls-4" d="M71.97,112.25c.69.64.73,1.37,1.85,1.93,2.35,1.18,6.38-.54,4.5-2.65-1.44-1.61-8.94-.54-9.43-4.61-.64-5.27,6.15-6.67,9.98-4.99,1.49.65,3.39,3.12,1.21,3.98s-2.55-2.01-5-2.06c-2.73-.05-4.15,2.43-.69,3.29,2.31.57,6.68.5,7.71,3.2,2.65,6.99-9.76,8.91-12.32,4.56-1.33-2.26.71-4.01,2.19-2.65Z"/>
      <path class="cls-4" d="M89.4,100.55c.16.15,2.94-.86,3.15,1.01.2,1.73-1.64,1.71-2.97,1.76l.56,7.85c.48,3.57,3.12.11,4.33,1.95,1.04,1.58-1.29,2.59-2.6,2.74-1.42.16-3.59.24-4.57-.95-1.41-1.7-1.22-7.8-1.42-10.2-.14-1.63-.59-.71-1.71-1.25-.94-.45-.97-1.7-.15-2.28.43-.3,1.39-.35,1.47-.47.59-.92-1.37-4.79,1.16-5.58,2.96-.93,2.66,3.69,2.74,5.42Z"/>
      <path class="cls-4" d="M197.45,99.12c3.38-.86,2.94,2.41,2.51,4.54s-1.47,6.38-2.27,8.44c-.38.99-1.04,2.12-2.22,1.28-.74-.53-.6-1.75-.56-2.58.12-2.47.58-7.42,1.16-9.74.19-.73.56-1.74,1.38-1.95Z"/>
      <path class="cls-2" d="M196.89,119.71c-1.75,1.98-5.28-.75-3.27-3s5.1.94,3.27,3Z"/>
      <path class="cls-1" d="M83.12,31.81l13.12,3.33-2.78,9.41c-.26.06-.49-.02-.73-.08-3.64-.97-8.31-3.39-12.1-4.72-.71-.25-3.87-1.48-4.29-1.34-.15.05-1.94,1.24-2.01,1.34-.09.14-.09.23,0,.38l7.69,10.25-6.88,4.57c-.7.28-2.14.17-2.63-.42-4.85-8.48-10.16-16.68-15.89-24.58-.2-.5.19-2.19.54-2.59,6.41-3.57,16.57-13.67,24.18-8.09,3.02,2.21,4.49,6.38,3.17,9.94-.34.93-1.02,1.68-1.38,2.59Z"/>
      <path class="cls-1" d="M155.41,16.52l2.35-.32c6.53,5.08,21.14,11.41,14.75,21.95-4.88,8.05-14.18,4.24-20.36.14-1.25.8-5.33,10.03-5.91,9.94-.27-.04-3.81-2.74-4.42-3.16-.57-.4-2.22-1.21-2.53-1.53-.34-.36-.64-1.87-.52-2.35,5.87-7.99,11.55-16.14,16.63-24.67Z"/>
      <path class="cls-1" d="M46.35,44.94c-4.67,5.95-6.82,13.33.75,18,8.75,5.39,16.22.06,19.2-8.58.12-.09.34.3.4.42.69,1.28,2.45,5.46,2.79,6.81.3,1.2-.89,3.23-1.51,4.34-5.05,9.13-13.99,12.04-23.19,6.49s-9.97-15.1-5.33-23.74c.31-.57,1.88-3.25,2.25-3.48.2-.12,4.43-.41,4.62-.28Z"/>
      <path class="cls-1" d="M198.05,56.94c-.34.72-1.47,4.6-1.97,4.77-5.65.14-11.27-.29-16.92-.29-4.33,2.63-8.38,5.71-12.05,9.2l-.46.18c-.8-1.68-1.81-3.29-2.81-4.86-.47-.74-2.01-2.52-2.23-3.13-.08-.22,0-1.09.08-1.3.14-.38,6.02-3.35,6.97-3.93.87-.53,3.82-2.27,4.27-2.94,1.02-1.52,2.69-7.63,3.37-9.75.61-1.89,1.12-3.83,1.65-5.74.13-.25,1.28-.62,1.57-.63.23,0,3.52,1.44,4.17,1.67,1.43.49,2.93.86,4.39,1.25-2.54,5.02-4.79,10.2-6.65,15.52h16.63Z"/>
      <path class="cls-1" d="M146.82,12.1c.12.19.5,2.61.42,2.72-4.43-2.06-7.34-1.27-9.19,3.28-2.84,6.97-1.59,17.77-10.16,20.89-3.37,1.23-8.26.73-11.33-1.15-1.44-.88-.79-1.82-1.29-3.24,10.09,4.39,9.99-7.08,11.58-13.46,2.03-8.14,7.3-14.58,16.5-11.02.59.23,3.2,1.59,3.46,1.99Z"/>
      <path class="cls-1" d="M97.59,8.22c.33-.26,3.79-.53,4.6-.66,1.05-.17,2.7-.79,3.61-.84.23-.01.33.07.39.27,1.13,10.25,2.86,20.42,5.01,30.49.13.52-1,1.93-1.42,2.06-.89.28-2.57.28-3.6.46-.67.12-4.36.96-4.59.79-1.44-10.24-2.9-20.58-5.16-30.71,0-.28.93-1.68,1.16-1.86Z"/>
      <path class="cls-1" d="M107.51,111.45c-.04-1.2.04-2.41,0-3.61-.01-.42-.51-2.49.08-2.49h6.1c.42,0,1.69.75,1.99,1.15,1.37,1.85.17,4.13-1.88,4.68-.17.05-1.31.27-1.4.27h-4.9Z"/>
      <path class="cls-1" d="M107.33,102.4l-.19-5.36c2.65-.07,9.08-1.3,7.86,3.33-.52,1.97-2.79,1.71-4.26,1.83-.24.02-.49.19-.55.19h-2.86Z"/>
      <path class="cls-1" d="M183.2,106.16c2.22,2.29,1.22,8.55-2.42,8.81-5.45.39-4.56-8.93-.85-9.72,1.18-.25,2.42.03,3.27.91Z"/>
      <path class="cls-1" d="M133.38,107.02c.06,1.47,0,3.19-1.23,4.22s-3.98,1.55-4.95-.17c-1.84-3.31,4.4-3.36,6.17-4.05Z"/>
      <path class="cls-1" d="M167.01,107.38l-6.84-.55c.37-5.28,7.33-4.85,6.84.55Z"/>
      <path class="cls-5" d="M65.2,25.17c4.05-1.93,8.44-2.29,11.09,1.93s.32,8.39-3.41,10.8c-2.68-4.13-5.46-8.3-7.69-12.73Z"/>
      <path class="cls-5" d="M162.58,22.95c.24-.16,1.1.79,1.29,1.01,6.64,7.31-1.86,17.34-10.16,12.19l8.87-13.2Z"/>
    </g>
  </g>
</svg>