<?xml version="1.0" encoding="UTF-8"?>
<svg id="Layer_2" data-name="Layer 2" xmlns="http://www.w3.org/2000/svg" viewBox="0 0 348.37 106.14">
  <defs>
    <style>
      .cls-1, .cls-2 {
        fill: #405163;
      }

      .cls-3, .cls-4 {
        fill: #fff;
      }

      .cls-2, .cls-4 {
        stroke: #405163;
        stroke-miterlimit: 10;
      }

      .cls-4 {
        stroke-width: 2px;
      }
    </style>
  </defs>
  <g id="Layer_8" data-name="Layer 8">
    <path class="cls-1" d="M68.33,43.5l-1.41,7.18,14.52,8.04c1.18,1.82-.86,3.87-1.94,5.33C57.59,93.68,9,85.9,1.04,49.08-9.27,1.41,59.83-18.65,81.83,21.46l-15.19,8.72,1.69,7.93h-13.51l.91-2.69h-2.72s.92-2.69.92-2.69l-2.56-.15-.15-2.55-2.75.51-.86-2.3c-2.49,2.75-2.95.36-4.03.36s-1.54,2.39-4.03-.36l-.89,2.33-2.72-.55-.14,2.57-2.57.14.91,3.58-2.7.02c1.15,1.68-.54,3.39-.5,4.02.08,1.27,2.29,1.51-.4,4.02l2.34.89-.54,2.72h3.61s-.9,2.69-.9,2.69l3.59-.9v2.7s3.11-.96,3.11-.96l.5,1.84,1.33.02.96-1.86,2.6,1,1.03-1.88,2.17.94.04-2.63,3.56-.08-.91-2.68h2.72s-.91-2.7-.91-2.7h13.51ZM75.53,21.05c.86-1.23-6.77-8.23-8.17-9.33C37.44-11.8-6.73,17.18,6.4,53.61c9.8,27.2,46.5,34.38,65.55,11.89.71-.84,3.72-4.19,3.15-4.97l-10.84-6.06-11.71,8.75-.44,12.58-8.56-4.45-8.54,4.45-.42-12.59c-39.57-19.77,1.97-68.33,29.67-35.87l11.26-6.28Z"/>
    <path class="cls-1" d="M283.54,101.81l16.18-30.94-23.37-46.22,25.07-.76c.97.68,7.94,17.33,9.83,20.24.56.86-.11,1.61,2,1.15l10.37-21.53h24.76l-40.07,78.06h-24.76ZM299.75,28.24h-17.11l21.28,42.62-14.08,27.37h17.11l35.12-69.98h-17.11l-13.5,26.02-11.71-26.02Z"/>
    <path class="cls-1" d="M106.15,23.76v33.65c0,2.65,4.08,6.31,6.89,6.47,2.1.12,7.51-3.36,7.51-4.67V23.76h22.51v57.42h-22.51v-2.7c-11.37,6.92-28.43,4.3-34.12-8.61-.37-.84-1.9-4.91-1.9-5.29V23.76h21.61ZM102.55,27.35h-14.41v34.54c0,.33,1.46,5.59,1.75,6.33,5.47,13.69,26.83,13.41,33.82,1.29l.45,8.08h15.31V27.35h-15.31v32.75c0,3.07-7.89,7.72-11.18,7.58-4.21-.18-10.43-5.18-10.43-9.37v-30.95Z"/>
    <path class="cls-1" d="M208.8,3.12l.9,78.06c-6.46.03-12.94-.07-19.41.03-5.61.08-4.46.37-9.37,1.35-34.45,6.9-48.49-36.42-23.47-55.69,9.02-6.95,19.62-5.5,29.74-2.22V3.12h21.61ZM205.2,6.71h-14.41v26.02c-24.1-20.6-52.61,7.75-38.88,33.81,5.57,10.57,14.98,14.33,26.65,12.77,4.88-.65,7.76-3.97,11.77-6.21l.46,4.49h14.41V6.71Z"/>
    <path class="cls-1" d="M274.53,81.18c-6.16.03-12.34-.05-18.5.03s-6.62,1-11.74,1.69c-25.53,3.43-40.94-21.58-31.43-43.88,6.92-16.22,24.39-20.95,40.06-14.37V3.12c6.49.57,13.43-.54,19.78-.53,1.06,0,1.16.06,1.84.98v77.61ZM270.93,6.71h-14.41v26.02c-16.78-16.36-43.07-3.18-43.04,19.29.03,23.29,25.44,36.92,43.03,20.19v5.38h13.06l1.35-1.35V6.71Z"/>
    <path class="cls-1" d="M246.62,90.15c1.34-.07,2.57.58,3.89.58,4.27-.01,5.45.05,9.2-.56,8.07-1.3,4,8.14,4.91,13.43-1,1.17-1.72.14-1.8-1.33-.15-2.94,1.33-10.04-2.25-10.39-5.28-.5-2.51,8.42-3.15,11.72h-2.69s-.14-10.18-.14-10.18c-.85-2.69-4.37-1.46-5.08.94-.75,2.53.83,8.35-1.08,9.7-.49.89-1.8-.8-1.8-.91v-13.01Z"/>
    <path class="cls-1" d="M232.9,91.26l1.1,10.88,1.81,1.02c-1.87,2.95-3.17-.44-4.79-.3-2.27.19-7.31,4.77-8.56-1.7-.96-4.97,4.72-4.63,8.28-5.62l.57-2.24c-.9-1.41-2.52-1.62-4.05-1.41-2.74.39-1.4,3.21-3.59,2.75-3.89-.83,4.94-7.64,9.23-3.38ZM231.31,97.33c-1.93.49-7.26.61-6.29,4.03,1.15,1.66,2.81,1.78,4.51.92l1.78-4.95Z"/>
    <path class="cls-1" d="M278.13,93.74c-.87.8-3.91-3.35-7.23-1.37-2.94,4.64,8.05,3.01,8.14,7.17.13,5.93-10.43,6.97-11.71.49,3.42-.57,2.81,3.07,6.75,2.72,1.36-.12,2.25-.84,2.26-2.28.03-3.82-9.31-1.16-8.1-7.12,1.35-6.65,12.28-1.83,9.88.39Z"/>
    <path class="cls-1" d="M220.51,85.66c1.16.99.15,1.72-1.34,1.8-3.14.16-6.34-.11-9.47,0l.85,5.89c2.3,1.53,8.74-1.55,8.16,2.18h-9s0,8.98,0,8.98c-.24.3-1.79-1.14-1.79-1.35v-17.5h12.61Z"/>
    <path class="cls-1" d="M237.62,90.15l2.5.29.22,1.48c.29.19,4.51-4.07,4.48-.43l-4.08,2.24-.44,9.89h-2.7v-13.46Z"/>
    <path class="cls-3" d="M75.53,21.05l-11.26,6.28C36.57-5.13-4.97,43.43,34.6,63.2l.42,12.59,8.54-4.45,8.56,4.45.44-12.58,11.71-8.75,10.84,6.06c.57.78-2.45,4.13-3.15,4.97-19.05,22.49-55.75,15.31-65.55-11.89C-6.73,17.18,37.44-11.8,67.36,11.72c1.41,1.11,9.03,8.1,8.17,9.33Z"/>
    <polygon class="cls-3" points="299.75 28.24 311.46 54.26 324.96 28.24 342.07 28.24 306.95 98.23 289.84 98.23 303.92 70.86 282.64 28.24 299.75 28.24"/>
    <path class="cls-3" d="M102.55,27.35v30.95c0,4.19,6.22,9.2,10.43,9.37,3.29.14,11.18-4.51,11.18-7.58V27.35h15.31v50.24h-15.31l-.45-8.08c-6.99,12.12-28.35,12.4-33.82-1.29-.3-.74-1.75-6-1.75-6.33V27.35h14.41Z"/>
    <path class="cls-3" d="M205.2,6.71v70.88h-14.41l-.46-4.49c-4.02,2.25-6.89,5.56-11.77,6.21-11.67,1.56-21.08-2.21-26.65-12.77-13.73-26.06,14.78-54.41,38.88-33.81V6.71h14.41ZM174.35,41.02c-12.73,3.35-9.05,26.07,4.98,24.71,15.65-1.51,13.59-29.59-4.98-24.71Z"/>
    <path class="cls-3" d="M270.93,6.71v69.53l-1.35,1.35h-13.06v-5.38c-17.6,16.73-43.02,3.1-43.04-20.19-.02-22.47,26.26-35.65,43.04-19.29V6.71h14.41ZM234.29,43.76c-5.5,6.12-3.34,18.56,5.1,20.84,14.39,3.9,21.48-15.24,9.33-22.75-4.47-2.76-10.94-1.98-14.44,1.91Z"/>
    <path class="cls-3" d="M231.31,97.33l-1.78,4.95c-1.69.86-3.36.74-4.51-.92-.97-3.41,4.36-3.53,6.29-4.03Z"/>
    <path class="cls-1" d="M174.35,41.02c18.57-4.88,20.63,23.2,4.98,24.71-14.03,1.36-17.72-21.36-4.98-24.71ZM176.13,44.57c-9.33,2.05-7.41,18.09,3.17,16.71,11.08-1.44,8.3-19.23-3.17-16.71Z"/>
    <path class="cls-1" d="M234.29,43.76c3.5-3.89,9.97-4.67,14.44-1.91,12.14,7.51,5.05,26.65-9.33,22.75-8.44-2.29-10.6-14.72-5.1-20.84ZM240.05,44.58c-7.94,2.37-5.76,18.16,4.12,16.7,11.07-1.64,8.53-20.47-4.12-16.7Z"/>
    <path class="cls-3" d="M176.13,44.57c11.47-2.52,14.24,15.27,3.17,16.71-10.57,1.38-12.49-14.66-3.17-16.71Z"/>
    <path class="cls-3" d="M240.05,44.58c12.65-3.78,15.19,15.06,4.12,16.7-9.88,1.46-12.06-14.32-4.12-16.7Z"/>
    <circle class="cls-4" cx="322.16" cy="96.53" r="5.3"/>
    <path class="cls-2" d="M320,92.59h2.41c1.56,0,2.71.57,2.71,2.18s-1.14,2.28-2.71,2.28h-1.41v3.26h-1v-7.72ZM322.28,96.24c1.2,0,1.86-.49,1.86-1.48s-.66-1.38-1.86-1.38h-1.27v2.86h1.27ZM322.99,96.26l2.35,4.05h-1.12l-2.01-3.53.78-.52Z"/>
  </g>
</svg>