<?xml version="1.0" encoding="UTF-8"?>
<svg id="Layer_2" data-name="Layer 2" xmlns="http://www.w3.org/2000/svg" viewBox="0 0 302.12 197.49">
  <defs>
    <style>
      .cls-1 {
        fill: #405163;
      }

      .cls-2 {
        fill: #425365;
      }

      .cls-3 {
        fill: #fffefe;
      }
    </style>
  </defs>
  <g id="KitKat">
    <path class="cls-1" d="M173.96,74.97l26.77-63.83c7.81.29,15.53,1.66,23.19,3.13l-36.02,77.32,45.49,63.21c-5.83,3.33-11.73,6.56-17.83,9.39h-.56s-40.67-54.87-40.67-54.87l-.02,69.79-20.41,4.1V13.06c.12-.2.26-.23.47-.27,2.77-.56,6.59-.85,9.47-1.12,3.22-.3,6.46-.37,9.67-.73.15-.04.45.19.45.27v63.77Z"/>
    <path class="cls-1" d="M59.93,101.7c.41-.3.62-1.02.83-1.49,9.89-22.7,18.93-45.78,28.79-68.49,9.91-4.15,19.9-8.16,30.18-11.32l-46.21,98.51,48.81,67.73c-8.72.28-17.47.01-26.11-1.19-12.01-16.17-23.92-32.44-36.11-48.47v41.03c-5.99-2.38-12.35-4.48-17.88-7.83-.68-.41-2.28-1.17-2.37-1.9v-93.36c6.48-2.5,13.27-4.13,20.07-5.51v32.3Z"/>
    <path class="cls-2" d="M83.14,30.05l-1.59-6.31C107.55,11.42,136.2,3.53,164.95.9c41.7-3.82,100.17,3.58,126.05,40.71,24.79,35.56,4.31,75.98-24,101.59-50.32,45.52-139.55,66.78-204.62,46.74C32.12,180.61,3.75,160.64.31,126.67c-1.34-13.22,1.71-26.69,7.9-38.33.28-.07,2.02,1.89,2.42,2.22.51.44,2.67,1.83,2.68,2.32-2.29,4.95-4.2,10.12-5.32,15.47-8.86,42.05,26.55,67.44,62.49,76.84,58.69,15.35,135.04-2.08,182.77-39.04,23.49-18.19,46.83-46.95,41.35-78.79s-35.85-48.16-63.72-55.3C187.53.94,136.38,7.91,95.4,24.76c-3.69,1.52-7.52,3.63-11.15,5-.36.14-.71.31-1.11.28Z"/>
    <path class="cls-2" d="M78.31,22.25c1.24,4.02,2.65,8.16,3.14,12.37.75,6.48-.96,13.15-4.28,18.69-8.27,13.78-20.74,13.04-34.42,17.76-11.29,3.9-22.21,8.91-27.95,20.05-7.75-5.36-13.66-15.5-14.29-24.97C-1.11,42.3,20.69,14.83,46.22,27.13c1.84.89,3.51,2.06,5.26,3.11l.36-.19c2.92-4.49,7.36-8.08,13-7.79,3.25.17,9.03,2.72,11.8,1.21.68-.37.97-1.06,1.66-1.22ZM71.77,31l-8.68,2.67c-.69.47-.67,2.58.62,2.11l8.53-1.69c.7-.4,1.01-3.29-.47-3.09ZM60.07,33.24c-.79.02-1.71.3-1.83,1.15-.23,1.69.15,3.53.2,5.2.12,3.79-.02,8.18.36,11.89.03.27.12.84.28,1.02.4.48,2.96-.09,2.7-1.2-.35-5.3-.13-10.88-.56-16.15-.07-.87-.05-1.94-1.15-1.91ZM55.1,39.7v-3.62c0-.06-.19-1.2-.21-1.27-.18-.61-2.21-.35-2.67.25-.71.94.01,3.89-.27,5.07-.06.23-.68.22-.93.41-.56.41-.34,1.5-.38,2.13-3.66-3.97-10.51-.27-9.61,5.06.53,3.15,4.46,2.55,6.7,2.97,1.56.29.35,2.61-1.31,2.88-2.28.37-2.33-1.26-2.96-1.41-.19-.05-1.99.35-2.24.47-1.08.53.03,2.8.79,3.4,3.09,2.47,8.8-.17,9.48-3.89.35-1.88.01-4-2.01-4.69-1.07-.36-4.43-.33-4.96-.79-.35-.3-.21-1.15-.04-1.53.43-1,2.66-1.33,3.44-.61.29.26.27.8.63.92s2.32-.27,2.45-.65c.17-.5-.08-1.07-.16-1.55h1.3s0,5.85,0,5.85c0,.58.25,2.11.47,2.69.81,2.13,3.16,2.46,5.06,1.55.57-.27.58-2.15.25-2.58-.48-.62-1.38.37-2.17-.62s-.39-4.48-.44-5.87c-.02-.4-.36-1.52-.17-1.74.33-.39,2.51.18,2.76-1.42.47-3.04-2.38-.98-2.78-1.38ZM50.04,35.66l-26.7,4.69c-1.06.79-.41,4.31-.36,5.56.11,3.13.18,6.26.36,9.38l-1.02-1.67c-1.87-3.21-3.33-7.02-5.26-10.15-.32-.52-.63-1.18-1.28-1.32-.7-.15-3.55.37-4.05.88-.9.92-.28,2.73-.26,3.81.05,2.91.12,5.84.19,8.73.04,1.64-.29,8.57.35,9.49s3.54-.05,3.5-1.36c-.18-4.24.05-8.54-.13-12.77-.02-.43-.19-.78-.19-1.2,2.6,3.9,4.46,8.31,6.87,12.34.65,1.33,4.21.31,4.72-.66.61-1.17.12-2.3.1-3.41-.06-3.72-.07-7.44-.19-11.14-.04-1.14.02-2.29.03-3.42l22.87-4.71c.9-.24.88-2.62.46-3.07ZM73.07,43.55c1.05-1.03-.3-4.67-1.16-5.72-1.82-2.21-5.64-1.35-7.46.44-5.02,4.94-1.4,16.09,6.05,11.34,1.05-.67,3.4-3.25,2.53-4.54-.21-.31-2.05.07-2.38.24s-.88,1.41-1.52,1.82c-1.82,1.14-3.8.09-3.81-2.04,1.14-.31,7.24-1.02,7.76-1.53ZM31.51,53.44c2.43-.59,5.35-.92,7.69-1.68,1.73-.56,1.23-2.43.91-3.86-.78-3.55-3.32-5.44-6.93-4.2-7.75,2.66-6.74,19.06,2.28,15.83,2.46-.88,4.86-3.73,4.59-6.46-.16-.16-2.27.31-2.59.48-.56.3-1.05,1.58-1.78,2.12-1.99,1.48-4.27.17-4.17-2.22ZM12.2,78.31c.32.08.37-.13.56-.28,2.32-1.78,4.36-4.22,6.92-6.08,11.76-8.5,24.16-8.28,37.65-11.37,6.29-1.44,13.01-3.2,15.6-9.84l-3.29,2.66c-8.13,5.63-19.76,5.05-29.26,6.59-10.17,1.64-20.04,5.23-28.19,11.55v6.78Z"/>
    <path class="cls-1" d="M205.9,68.75c5.1-8.45,13.96-17.38,24.77-15.85,6.77.96,12.68,6.19,13.65,13.09l.1,30.16c1.81,2.4,4.68.26,6.23-1.31.39,8.92-4.19,22.31-15.56,19.17-1.24-.34-2.25-1.08-3.44-1.52-2.71,2.37-5.64,4.77-9.13,5.93-18.62,6.15-23.81-17.46-13.29-29.44,4.66-5.31,12.57-8.67,16.53-13.74,1.26-1.61,2.41-4.54.57-6.13-2.1-1.82-5.43.55-7.23,1.88-4.98,3.67-8.77,8.83-13.2,13.07v-15.32ZM227.44,89.82c-.41.06-.88.48-1.2.75-3.02,2.5-8.59,8.31-6.26,12.56,1.57,2.86,5.68,2.4,6.87-.45.2-.48.6-1.92.6-2.37v-10.49Z"/>
    <path class="cls-1" d="M121.58,98.18l-5.2,1.02,14.16-30.13,9.06-2.08-.18,14.11,11.14-2.78v12.62l-11.15,2.71v26.54c.94,6.4,6.02,3.26,9.11.55.26-.23,2-2.2,2.23-1.95.68,5.99-.7,12.36-5.29,16.53-6.55,5.95-17.2,5.12-21.9-2.62-.69-1.14-1.96-4.19-1.96-5.46v-29.05Z"/>
    <path class="cls-1" d="M270.34,35.24v14.11l10.77-2.78v12.35l-.32.24-10.74,2.82-.09,25.17c1,8.94,7.92,3.71,11.52-.1.67,6.15-.53,13.61-5.88,17.42-6.84,4.86-17.84,3.26-21.69-4.61-.46-.93-1.4-3.6-1.4-4.55v-29.05c-1.66.31-3.29.94-4.95,1.28-.29.06-.28.04-.25-.25l14.14-29.68.35-.39,8.53-1.96Z"/>
    <polygon class="cls-1" points="113.6 142.91 96.14 147.18 96.14 105.32 113.6 94.65 113.6 142.91"/>
    <path class="cls-1" d="M104.64,73.35c9.77-1.32,11.58,9.99,7.5,16.78-6.14,10.22-18.28,6.38-16.91-5.95.48-4.31,4.91-10.22,9.41-10.83Z"/>
    <path class="cls-3" d="M50.04,35.66c.42.44.44,2.82-.46,3.07l-22.87,4.71c0,1.14-.06,2.29-.03,3.42.12,3.7.13,7.42.19,11.14.02,1.11.51,2.25-.1,3.41-.51.97-4.07,1.99-4.72.66-2.42-4.04-4.27-8.44-6.87-12.34,0,.42.17.77.19,1.2.19,4.24-.05,8.53.13,12.77.04,1.31-2.88,2.24-3.5,1.36s-.31-7.85-.35-9.49c-.06-2.89-.13-5.81-.19-8.73-.02-1.08-.63-2.89.26-3.81.5-.51,3.36-1.04,4.05-.88.65.14.96.81,1.28,1.32,1.93,3.13,3.39,6.94,5.26,10.15l1.02,1.67c-.18-3.12-.25-6.25-.36-9.38-.04-1.25-.7-4.77.36-5.56l26.7-4.69Z"/>
    <path class="cls-3" d="M12.2,78.31v-6.78c8.15-6.32,18.02-9.91,28.19-11.55,9.5-1.53,21.12-.95,29.26-6.59l3.29-2.66c-2.59,6.64-9.31,8.4-15.6,9.84-13.49,3.09-25.89,2.88-37.65,11.37-2.57,1.85-4.6,4.3-6.92,6.08-.19.14-.23.36-.56.28Z"/>
    <path class="cls-3" d="M55.1,39.7c.4.4,3.24-1.66,2.78,1.38-.25,1.6-2.43,1.03-2.76,1.42-.18.21.16,1.34.17,1.74.05,1.39-.33,4.9.44,5.87s1.69,0,2.17.62c.33.43.31,2.31-.25,2.58-1.89.91-4.24.58-5.06-1.55-.22-.58-.47-2.11-.47-2.69v-5.85h-1.3c.08.49.33,1.06.16,1.55-.13.38-2.09.77-2.45.65s-.34-.65-.63-.92c-.78-.71-3.01-.39-3.44.61-.17.39-.3,1.23.04,1.53.53.46,3.89.43,4.96.79,2.02.69,2.36,2.81,2.01,4.69-.68,3.72-6.39,6.36-9.48,3.89-.75-.6-1.87-2.87-.79-3.4.25-.12,2.05-.52,2.24-.47.63.15.69,1.79,2.96,1.41,1.66-.27,2.87-2.59,1.31-2.88-2.24-.42-6.17.18-6.7-2.97-.9-5.33,5.95-9.03,9.61-5.06.04-.63-.18-1.71.38-2.13.25-.19.87-.18.93-.41.28-1.19-.44-4.14.27-5.07.46-.6,2.48-.86,2.67-.25.02.07.21,1.21.21,1.27v3.62Z"/>
    <path class="cls-3" d="M31.51,53.44c-.1,2.39,2.18,3.71,4.17,2.22.72-.54,1.21-1.82,1.78-2.12.32-.17,2.43-.63,2.59-.48.26,2.73-2.13,5.57-4.59,6.46-9.01,3.23-10.02-13.17-2.28-15.83,3.62-1.24,6.15.66,6.93,4.2.32,1.43.82,3.3-.91,3.86-2.34.76-5.27,1.09-7.69,1.68ZM37.08,49.16c-.82-4.46-5.63-2.31-5.75,1.31l5.75-1.31Z"/>
    <path class="cls-3" d="M73.07,43.55c-.52.51-6.62,1.22-7.76,1.53,0,2.13,1.99,3.19,3.81,2.04.64-.4,1.18-1.65,1.52-1.82s2.17-.55,2.38-.24c.87,1.29-1.48,3.87-2.53,4.54-7.44,4.76-11.06-6.4-6.05-11.34,1.82-1.79,5.64-2.66,7.46-.44.86,1.04,2.21,4.69,1.16,5.72ZM70.51,41.55c-.72-3.71-5.12-2.28-5.2.93l5.2-.93Z"/>
    <path class="cls-3" d="M60.07,33.24c1.1-.03,1.08,1.04,1.15,1.91.44,5.27.21,10.85.56,16.15.26,1.11-2.29,1.68-2.7,1.2-.15-.18-.25-.76-.28-1.02-.38-3.7-.24-8.1-.36-11.89-.05-1.67-.43-3.51-.2-5.2.12-.86,1.03-1.13,1.83-1.15Z"/>
    <path class="cls-3" d="M71.77,31c1.48-.2,1.17,2.69.47,3.09l-8.53,1.69c-1.28.48-1.31-1.64-.62-2.11l8.68-2.67Z"/>
    <path class="cls-3" d="M227.44,89.82v10.49c0,.45-.4,1.89-.6,2.37-1.19,2.85-5.3,3.32-6.87.45-2.33-4.25,3.25-10.07,6.26-12.56.32-.26.79-.69,1.2-.75Z"/>
    <path class="cls-2" d="M37.08,49.16l-5.75,1.31c.12-3.62,4.93-5.77,5.75-1.31Z"/>
    <path class="cls-2" d="M70.51,41.55l-5.2.93c.08-3.21,4.48-4.64,5.2-.93Z"/>
  </g>
</svg>