<?xml version="1.0" encoding="UTF-8"?>
<svg id="Layer_2" data-name="Layer 2" xmlns="http://www.w3.org/2000/svg" viewBox="0 0 104.07 48.42">
  <defs>
    <style>
      .cls-1 {
        fill: #b1b8bf;
      }

      .cls-2 {
        fill: #d3d7db;
      }

      .cls-3 {
        fill: #445466;
      }

      .cls-4 {
        fill: #d5d9dd;
      }

      .cls-5 {
        fill: #afb6bd;
      }

      .cls-6 {
        fill: #bec4ca;
      }

      .cls-7 {
        fill: #fbfcfc;
      }

      .cls-8 {
        fill: #405163;
      }

      .cls-9 {
        fill: #4f5f6f;
      }

      .cls-10 {
        fill: #425365;
      }

      .cls-11 {
        fill: #cdd2d6;
      }

      .cls-12 {
        fill: #d9dce0;
      }

      .cls-13 {
        fill: #abb2ba;
      }

      .cls-14 {
        fill: #fefefe;
      }

      .cls-15 {
        fill: #dde0e3;
      }

      .cls-16 {
        fill: #a9b1b9;
      }

      .cls-17 {
        fill: #d1d5da;
      }

      .cls-18 {
        fill: #c8cdd2;
      }

      .cls-19 {
        fill: #4a5a6b;
      }

      .cls-20 {
        fill: #62707f;
      }
    </style>
  </defs>
  <g id="Layer_4" data-name="Layer 4">
    <g>
      <path class="cls-8" d="M92.74,15.21c.09,0,.18,0,.26,0,.78.12,3.53,2.7,4.22,3.43,4.33,4.57,5.14,9.88,1.03,14.95-6.58,8.13-20.36,11.56-30.32,13.03-12.44,1.84-25.16,1.61-37.46-1.01-8.66-1.85-20.37-5.54-25.51-13.22C-1.27,23.1,9.34,15.28,17.01,11.92l.4.05c.18-.08.36-.12.52-.1,11.23-2.3,21.41,1.09,32.25,3.42s20.15,3.68,30.76,2.43c4-.47,7.94-1.4,11.8-2.5Z"/>
      <path class="cls-1" d="M60.05,5.78c.04.18-.27.16-.42.1-13.86-.65-29.04.34-41.91,5.87.04.14-.17.19-.31.21C8.29,15.99-2.6,24.58,7.09,34.7c8.88,9.28,29.26,12.54,41.59,12.89,13.95.4,36.82-2.19,47.47-12.05,8.07-7.48,4.59-15.01-3.41-20.33-3.74-2.49-7.94-4.27-12.26-5.55-.07-.08,0-.12.21-.1,6.34,1.4,13.74,4.07,18.65,8.43,9.5,8.46,3.18,16.98-5.76,21.9-17.07,9.4-44.93,10.13-63.72,6.51-9-1.73-24.91-6.48-28.92-15.61C-4.16,19.14,12.72,11.58,21.23,8.93c12.24-3.82,26.12-4.91,38.82-3.14Z"/>
      <path class="cls-1" d="M66.76,14.69s.04-.13.1-.16c.51-.24,1.57.22,1.87.03.05-.03.43-1.03.43-1.08-.01-.14-.51-.18-.66-.27-.44-.25-.31-.71-.47-1.1-.39-.91-2.14-2.32-2.78-3.2-1.11-1.55-.44-3.31.2-4.91.14-.34.55-.84.57-1.21s-.38-.78-.31-1.2l-.52.1c.1-.97.54-1.85,1.68-1.68l-.11.21c2.08.13,1.82,1.98,2.33,3.38.39,1.06,2.18,2.49,3.36,2.48,1.47-.01,2.49-1.31,3.93-.82.23.41-.37,1.58-.3,1.81.05.17.39.17.53.32.21.22-.39,1.33-.49,1.63-.15.43-.26,1.21-.57,1.61-.11.15-.35.14-.48.28-.23.23-.54.97-.88,1.32-.39.39-.67.06-.5.92.12.59.49.74.81,1.18-.07.15-.35-.11-.42-.05-.04.03-.2.81-.32.94,1.45-.03,2.9.05,4.35,0,3.19-.09,6.79-.72,9.9-.63.26-.06.4-.02.42.1-9.13,2.13-17.19,2.78-26.54,1.56-11.5-1.51-23.22-6.82-34.85-6.17-.18.09-.57.13-.52-.1,6.21-2.05,14.87-.88,21.17.57,5.86,1.35,12.53,3.96,18.54,4.14.17.1.34.05.52,0Z"/>
      <path class="cls-10" d="M98.05,40.82c1.43,1.53-.78,3.69-2.27,2.33-1.66-1.52.82-3.88,2.27-2.33Z"/>
      <path class="cls-6" d="M60.05,5.78l.73.21c-.33,0-.66.02-1,0-.17,0-.15-.1-.16-.1l.42-.1Z"/>
      <path class="cls-11" d="M88.03,14.59l1.05-.1c-.05.16-.46.17-.63.21-.07-.16-.28-.1-.42-.1Z"/>
      <path class="cls-4" d="M26.53,9.98c.09.17.36.1.52.1,0,0,.01.09-.16.1-.26.02-.53,0-.79,0-.03-.16.26-.16.42-.21Z"/>
      <path class="cls-18" d="M80.69,9.56l-.21.1c-.25-.07-.49-.14-.73-.21-.09-.03-.09-.06,0-.1.34.05.62.14.94.21Z"/>
      <path class="cls-2" d="M17.93,11.86c-.13.03-.31.19-.52.1.07-.03.17-.15.31-.21l.21.1Z"/>
      <path class="cls-12" d="M79.75,9.35v.1c-.11-.03-.53-.12-.52-.16.14-.2.44.04.52.05Z"/>
      <path class="cls-17" d="M66.76,14.69c-.17.11-.37.22-.52,0,.17,0,.35,0,.52,0Z"/>
      <path class="cls-14" d="M57.85,24.02c.2.08.37.34.31.52,1.13,2.71-.1,7.12-3.51,7.12h-5.08v-9.64h5.19c1.06,0,2.55,1.1,3.09,1.99Z"/>
      <path class="cls-14" d="M92.85,22.13v2.41h-4.82v1.15h3.98c-.02.31.31,2.41-.05,2.41h-3.93v1.05h4.66s.16.15.16.16v2.25h-7.33v-9.43h7.33Z"/>
      <path class="cls-14" d="M71.26,31.66h-2.67c-.53-.51-.3-1.39-1.15-1.47-.98-.1-2.1.05-3.08.13l-.7,1.35h-2.57l3.92-9.65c.45.09,2.17-.14,2.42.11l3.82,9.54Z"/>
      <path class="cls-14" d="M38.84,22.02c.32.2,2.07,3.47,2.25,3.35l1.89-3.35h3.04c-.18.51-.52,1-.79,1.46-.38.62-2.98,4.39-2.98,4.67v3.41h-2.51v-3.51c0-.14-1.31-1.94-1.51-2.26-.77-1.24-1.55-2.49-2.26-3.76h2.88Z"/>
      <polygon class="cls-14" points="30.93 22.13 30.93 29.25 35.43 29.25 35.43 31.56 28.41 31.56 28.41 22.13 30.93 22.13"/>
      <path class="cls-14" d="M13.43,22.13v7.02h4.45s.16.15.16.16v2.25h-7.02v-9.43h2.41Z"/>
      <path class="cls-14" d="M77.24,22.13c-.07,1.49.12,2.97.11,4.46,0,.3-.11.55-.11.83,0,.26-.07,1.84.16,1.84h4.45v2.3h-7.02v-9.43h2.41Z"/>
      <rect class="cls-14" x="21.71" y="22.13" width="2.41" height="9.53"/>
      <path class="cls-1" d="M58.27,24.43c1.54,1.76,1.84,4.33.57,6.38-.53.86-1.9,1.89-2.92,1.89h-5.4s-.02-.42,0-.42h4.45c3.79,0,5.2-5.01,3.3-7.75-.08-.03-.08-.07,0-.1Z"/>
      <path class="cls-1" d="M42.77,28.78l3.51-5.6.57-.11c.07.06-.27.64-.33.76-.4.72-3.23,4.85-3.23,5.15v3.61h-2.51s-.02-.42,0-.42h1.99v-3.41Z"/>
      <path class="cls-1" d="M25.16,23.18v9.53h-2.41s-.02-.42,0-.42h1.89v-9.12h.52Z"/>
      <path class="cls-1" d="M71.68,32.29l-3.56-9.07c-.06-.22.15-.17.3-.14l3.79,9.62h-2.72s-.1-.35-.1-.42h2.3Z"/>
      <path class="cls-1" d="M93.89,30.3v2.3h-7.33s-.02-.42,0-.42h6.81v-1.89h.52Z"/>
      <path class="cls-1" d="M82.89,30.3v2.3h-7.12s-.02-.42,0-.42h6.6v-1.89h.52Z"/>
      <path class="cls-1" d="M36.48,30.3v2.3h-7.02s-.02-.42,0-.42h6.5v-1.89h.52Z"/>
      <path class="cls-1" d="M18.98,30.3v2.3h-7.02s-.02-.42,0-.42h6.5v-1.89h.52Z"/>
      <path class="cls-1" d="M44.55,36.8v.63c-.19.03-1.13-.07-1.15.05-.09.5.65.18.94.26v.63h-.94s0,.31,0,.31h1.15s0,.63,0,.63h-1.73s-.16-.15-.16-.16v-2.36h1.89Z"/>
      <path class="cls-5" d="M62.04,32.71c.08-.11.07-.4.17-.43.42-.12,1.69.16,2.03-.04.24-.15.47-1.2.8-1.4.13-.05,2.51-.06,2.69-.02.13.03.18.39.18.53h-2.51l-.68,1.36h-2.67Z"/>
      <path class="cls-1" d="M46.85,38.68c-.36-.5-1.44-.45-1.32-1.26.14-.95,1.87-.76,1.94-.03.06.62-.74-.03-.79-.05-.15-.05-.46,0-.45.14,0,.17,1.11.44,1.23.86.35,1.17-1.8,1.3-1.93.35-.08-.6,1.08.33,1.32,0Z"/>
      <rect class="cls-5" x="77.76" y="23.18" width=".52" height="5.66"/>
      <rect class="cls-5" x="31.45" y="23.18" width=".52" height="5.66"/>
      <path class="cls-1" d="M55.13,39.31c-.11-.24.42-.69.31-.84-.02-.03-.49-.07-.66-.45-.37-.86.83-1.67,1.54-1.01.88.82-.72,2.74-1.2,2.3Z"/>
      <path class="cls-1" d="M61.73,38.05s.36.03.39.38c.1.91-1.25,1.05-1.86.66,0-.75,1.15-.27,1.15-.57s-.96-.12-.58-.68c.04-.06.68-.23.47-.41-.15-.13-1.28.5-.89-.31.19-.4,1.05-.42,1.37-.11.51.5-.09,1.01-.06,1.05Z"/>
      <path class="cls-5" d="M59.21,38.16c.08.11.25.05.22.36-.01.1-.23.68-.29.69-.71.19-.54-.31-.62-.33-.39-.08-1.11.26-1.1-.36,0-.15.7-1.55.79-1.63.19-.17.45-.1.68-.1.06.05-.25.72-.31.84.06.14.24.19.53.16l.09.37Z"/>
      <path class="cls-5" d="M50.36,36.8c.19.06.17.45.16.63-.04.04-.73-.04-.73,0v1.78h-.63v-1.78h-.73s0-.63,0-.63c.5.09,1.52-.13,1.94,0Z"/>
      <path class="cls-1" d="M14.37,23.18v5.66s-.42.02-.42,0v-5.66s.34.01.42,0Z"/>
      <polygon class="cls-1" points="93.89 23.18 93.89 25.38 88.55 25.38 88.55 25.17 93.37 25.17 93.37 23.18 93.89 23.18"/>
      <polygon class="cls-5" points="93.06 26.63 93.06 28.83 88.55 28.83 88.55 28.63 92.53 28.63 92.53 26.63 93.06 26.63"/>
      <path class="cls-5" d="M53.77,39.21h-.63v-1.68l-.31.1c-.39-.78.94-1.03.94-.68v2.25Z"/>
      <path class="cls-1" d="M40.77,37.85s.02.42,0,.42h-4.19c.02-.13.41-.42.47-.42.49,0,3.59-.13,3.72,0Z"/>
      <path class="cls-16" d="M67.91,38.26h-4.19s-.02-.42,0-.42h3.72s.44.32.47.42Z"/>
      <path class="cls-13" d="M51.28,38.61c.32-.33.9.2.61.56-.37.45-1.02-.14-.61-.56Z"/>
      <path class="cls-9" d="M58.59,37.64c.07.21.58.06.63.1v.42c-.07-.1-.1-.3-.17-.32-.79-.21-.15.55-.77.42-.08-.3.22-.45.31-.63Z"/>
      <path class="cls-20" d="M58.27,24.43v.1h-.1c-.04-.09-.24-.4-.31-.52.36-.03.34.32.42.42Z"/>
      <path class="cls-14" d="M69.48,14.58c0-.48.58-1.21,1.02-1.34.27-.08,1.35-.09,1.77-.12.3-.02.54.2.88-.12-.1.72.51,1.55-.31,1.94-.41.19-2,.24-2.46.15-.32-.06-.5-.54-.89-.53Z"/>
      <path class="cls-17" d="M67.91,14.8c0,.19-.46.12-.58.1-.12-.01-.47-.03-.47-.21l1.05.1Z"/>
      <path class="cls-7" d="M97.74,42.84c-1.24,1.19-2.96-.84-1.59-1.85,1.29-.95,2.64.85,1.59,1.85Z"/>
      <path class="cls-8" d="M54.24,24.54c2.06.29,2.35,3.61.68,4.35-.1.04-.74.26-.79.26h-2.04v-4.45s.15-.16.16-.16c.59,0,1.44-.08,1.99,0Z"/>
      <path class="cls-10" d="M67.07,27.89h-1.78c.24-.67.44-1.51.73-2.15.05-.1.07-.25.21-.26l.84,2.41Z"/>
      <path class="cls-19" d="M55.96,37.94c-.16.22-.72.02-.62-.35.11-.41.9-.04.62.35Z"/>
      <path class="cls-3" d="M96.3,41.09c.49-.07,1.34,0,1.26.68-.04.37-.54.27,0,.89-.48.16-.48-.37-.79-.42-.35-.06.08.6-.47.42v-1.57Z"/>
      <path class="cls-5" d="M54.45,25.17c.34.05.84.3,1,.63-.8-.29-1.49-.16-2.3-.1v3.14h-.52v-3.67c.57.06,1.28-.08,1.83,0Z"/>
      <path class="cls-15" d="M97.14,41.51c.21.21-.36.68-.52.26-.15-.39.49-.29.52-.26Z"/>
    </g>
  </g>
</svg>