<?xml version="1.0" encoding="UTF-8"?>
<svg id="Layer_2" data-name="Layer 2" xmlns="http://www.w3.org/2000/svg" viewBox="0 0 302.8 53.01">
  <defs>
    <style>
      .cls-1 {
        fill: #425365;
      }

      .cls-2 {
        fill: #fbfbfb;
      }
    </style>
  </defs>
  <g id="Layer_8" data-name="Layer 8">
    <path class="cls-1" d="M302.8,41.55c-4.68,15.56-36.43,14.6-37.57-2.85h10.81c.14,0-.15,1.84.29,2.83,2.53,5.72,15.95,4.69,15.49-1.33-.21-2.67-3.41-3.79-5.66-4.51-6.1-1.98-14.28-1.68-18.37-7.24l-7.77,22.69h-11.22c-1.08-.69-5.64-21.44-6.85-24.74-.29-.79.21-.97-1.19-.8l-6.32,25.56c-2.49-.33-10.63,1.06-11.8-.89l-6.35-18.97v16.22c0,.7,1.34,2.61,1.14,3.7h-10.53c-1.4,0-.14-4.08-1.7-3.41-.41.18-1.09,1.2-1.81,1.61-7.26,4.16-17.54,4.27-23.52-2.18-.15.53.19,3.98,0,3.98h-10.81v-8.54l-3.71,5.12c-7.1,6.38-18.94,6.32-24.75-1.7-.2.64.25,5.12,0,5.12h-10.25v-7.4c-7.23,9.58-21.18,11.06-31.02,4.56l-.28,2.28c-8.38-1.13-27.91,2.73-34.1-3.19-.75-.72-2.9-4.27-2.9-5.07V.57h10.81v35c0,.37,1.53,2.63,2.07,3.05.81.63,4.75,1.78,5.61,1.78h12.24c-1.17-6.13-1.82-11.84.7-17.8,5.98-14.16,28.45-14.96,36.87-2.69V.57h10.81v16.51c6.28-6.72,16.01-7.74,23.29-1.94l4.6,5.93V.57h10.81v20.49c1.12-.75,1.34-2.47,2.28-3.7,2.7-3.52,8.11-5.33,12.39-5.82,6.16-.71,12.09.82,18.03.96,3.11.07,6.24-.08,9.34.1l6.91,25.54c1.48.16.9,0,1.15-.83,2.4-8.16,3.57-16.83,6.62-24.81l10.39.08,7.17,26.12,7.46-26.21c3.02.03,6.05.08,9.07.01,5.55-.13,10.96-1.59,16.47-1.1,7.38.66,13.77,4.61,14.52,12.51h-9.96c-.57,0-1.26-3.3-2.57-4.26-6.62-4.84-19.09,2.74-6.71,6.71,7.45,2.39,17.48,1.37,20.38,10.64v4.55ZM179.86,34.15c4.94-6.91,18.99-3.82,23.93-7.66,6.17-4.79-4.31-11.49-10.81-6.83-2.39,1.71-2.03,4.81-2.3,4.81h-10.81v9.68ZM110.27,19.49c-9.97,1.71-10.23,21.8-.89,24.52,16.67,4.86,18.04-27.47.89-24.52ZM148.4,19.49c-9.7,1.79-10.18,22.48.12,24.65,15.19,3.21,15.56-27.55-.12-24.65ZM205.47,32.45c-3.94,1.98-14.62.94-15.81,6.09-1.52,6.61,5.31,7.8,10.24,6.26,5.6-1.74,5.82-7.27,5.57-12.36Z"/>
    <path class="cls-1" d="M44.4,0c1.01,1.64.31,3.55.69,5.29,1.06,4.84,7.89,2.72,8.42,3.25.26.26-.2,6.26,0,7.41-13.32.95-17.86-2.07-14.8-15.94h5.69Z"/>
    <path class="cls-1" d="M52.93,0l.57,6.26c-4.94.37-7.13-1.25-5.12-6.26h4.55Z"/>
    <path class="cls-2" d="M110.27,19.49c17.15-2.94,15.77,29.38-.89,24.52-9.34-2.73-9.08-22.81.89-24.52Z"/>
    <path class="cls-2" d="M148.4,19.49c15.68-2.89,15.31,27.86.12,24.65-10.3-2.18-9.82-22.87-.12-24.65Z"/>
    <path class="cls-2" d="M179.86,34.15v-9.68h10.81c.27,0-.09-3.1,2.3-4.81,6.5-4.66,16.98,2.03,10.81,6.83-4.94,3.84-18.99.75-23.93,7.66Z"/>
    <path class="cls-2" d="M205.47,32.45c.25,5.09.03,10.61-5.57,12.36-4.93,1.53-11.76.35-10.24-6.26,1.18-5.16,11.87-4.11,15.81-6.09Z"/>
    <path class="cls-1" d="M22.2.57v15.65c0,2.42,2.58,7.52,4.33,9.33,1.86,1.91,7.04,4.62,9.61,4.62h17.36v22.77c-16.96-.62-35.99,3.58-47.37-12.11-2.1-2.9-6.13-11.56-6.13-14.93V.57h22.2Z"/>
    <path class="cls-1" d="M35.29.57v12.24c0,2.03,5.19,5.41,7.11,5.41h11.1v9.68h-16.79c-1.81,0-6.56-2.07-7.96-3.42-.9-.86-3.7-5.57-3.7-6.54V.57h10.25Z"/>
  </g>
</svg>