<?xml version="1.0" encoding="UTF-8"?>
<svg id="Layer_2" data-name="Layer 2" xmlns="http://www.w3.org/2000/svg" viewBox="0 0 262.22 57.46">
  <defs>
    <style>
      .cls-1 {
        fill: #425365;
      }

      .cls-2 {
        fill: #fffefe;
      }
    </style>
  </defs>
  <g id="Metro">
    <g>
      <path class="cls-1" d="M68.38,56.09h-17.04c1.45-7.21,2.89-14.42,4.39-21.62.77-3.7,4.19-12.05-3.08-10.8-2.28.39-3.6,2.12-4.19,4.21-2.32,8.22-2.99,17.62-5.14,25.98-.16.61-.26,1.58-.71,2.01-1.16,1.12-4,.24-5.45.21-3.82-.1-7.66.09-11.48,0l6.36-28.5c.49-5.97-7.13-5.1-8.58-.63-2.48,8.73-3.62,18.17-6.07,26.86-1.09,3.87-2.88,2.33-6.13,2.26-3.75-.08-7.51.08-11.25,0,1.49-7.12,2.76-14.3,4.39-21.39,1.73-7.56,2.93-14.64,9.12-19.95,5.81-4.98,15.31-6.41,22.38-3.51,2.71,1.11,4.1,2.92,6.29,4.62,4.1-2.86,9.16-5.51,14.26-5.88,10.81-.78,19.16,3.35,18.29,15.33-2.06,10.27-3.99,20.59-6.36,30.77Z"/>
      <path class="cls-1" d="M236.9,10.29c20.27-1.49,31.82,14.65,21.44,32.79-9.63,16.84-42.17,21.07-48.54.53-5.34-17.23,10.86-32.13,27.1-33.32ZM237.13,21.18c-8.75.4-11.65,11.95-10.8,19.07.36,3.03,1.83,3.76,3.72,5.82,4.05.74,7.44.45,10.31-2.8,4.7-5.33,7.89-22.59-3.23-22.09Z"/>
      <path class="cls-1" d="M93.82,36.33c-.17,1.09.25,1.91.64,2.88,4.97,12.12,19.51,7.78,28.89,4.16.05.32-.03.6-.11.91-.64,2.35-1.97,5.68-2.9,8-.73,1.82-.64,2.47-2.67,3.23-5.42,2.02-16.4,2.41-22.08,1.42-25.12-4.38-20.77-38.93,1.18-45.47,14.5-4.32,30.05,1.36,31.12,17.94.06.98.24,6.92-1.02,6.92h-33.05ZM113.13,27.48c.67-11.93-14.86-9.11-17.04,0h17.04Z"/>
      <path class="cls-1" d="M131.76,22.25l1.86-10.4c.36-.24.78-.26,1.19-.29,1.39-.1,4.08.6,4.9-.32,1.02-1.16.63-6.44,1.53-6.93l16.64-4.31-2.04,11.81h10.68l-.91,5.79c-.14.89-.11,4.29-.91,4.77-.37.22-3.31.15-3.99.12-1.1-.04-6.22-.99-6.69-.07-1.02,5.26-5.29,16.34-1.13,20.77.51.55,2.61,1.77,3.29,1.77h3.98l-1.87,10.73c-.33.83-1.74,1.02-2.55,1.09-4.73.41-9.81-.03-13.98-2.39-12.31-6.95-6.38-21.41-3.86-32.14h-6.13Z"/>
      <path class="cls-1" d="M166.06,56.09l8.41-44.28h16.81l-.68,5c1.04-.55,1.81-1.45,2.79-2.1,3.06-2.03,7.51-3.53,11.19-3.81.84-.06,6.14-.12,6.37.21.18.26.11.7.08,1.01l-2.92,13.9c-4.88.45-9.6-.1-14.02,2.33-9.34,5.13-7.88,15.06-10.18,24.11-.14.56-.9,3.63-1.37,3.63h-16.47Z"/>
      <path class="cls-2" d="M237.13,21.18c11.12-.51,7.93,16.76,3.23,22.09-2.86,3.25-6.26,3.54-10.31,2.8-1.89-2.06-3.36-2.78-3.72-5.82-.85-7.11,2.05-18.67,10.8-19.07Z"/>
      <path class="cls-2" d="M113.13,27.48h-17.04c2.18-9.11,17.7-11.93,17.04,0Z"/>
    </g>
  </g>
</svg>