<?xml version="1.0" encoding="UTF-8"?>
<svg id="Layer_2" data-name="Layer 2" xmlns="http://www.w3.org/2000/svg" viewBox="0 0 194.52 200.74">
  <defs>
    <style>
      .cls-1 {
        fill: #405163;
      }

      .cls-2 {
        fill: #fff;
      }
    </style>
  </defs>
  <g id="Bic">
    <path class="cls-1" d="M10.29,197.03c-.13,1.08-.9,2.39-1.98,2.76-.93.31-5.36.32-6.27,0-1.14-.4-1.75-1.47-1.93-2.62l-.06-44.85c.07-1.75,1.17-3.12,2.94-3.31,1.68-.18,7.16-.18,8.62.29,2.55.82,3.7,3.67,4.97,5.83,5.45,9.33,10.44,18.94,15.84,28.3l.43.24v-32.3c0-.49,1.47-1.99,2.08-2.09l80.08-.09c2.45-.02,2.09,6.11,1.14,7.02-.1.1-.9.56-.95.56H42.98l-.28.28v40.73c0,.61-1.32,1.83-1.95,2.03-.92.3-7.01.29-8.18.13-1.07-.15-2.13-.95-2.95-1.6l-19.33-33.62v32.3Z"/>
    <path class="cls-1" d="M87.61,21.9c1.36-3.21,3.95-6.19,5.41-9.27.49-1.03.69-2.18,1.13-3.23,3.84-9.1,14.63-11.75,23.03-7.11,5.72,3.16,9.09,8.73,13.35,13.36,3.54,3.84,7.96,6.67,11.85,10.13,14.82,13.21,27.88,35.53,37.36,53.01,4.76,8.77,12.94,24.02,14.51,33.61.64,3.91-.3,4.4-3.93,2.98s-6.66-4.37-9.99-6.31c-.21-.12-.34-.29-.63-.22l7.14,19.85c1.62,7.38-6.65,3.66-10.47,5.14-2.97,1.15-6.14,8.06-9.93,5.39-1.62-1.14-2.04-5.47-2.42-7.43-2.03-10.45-3.61-21.01-5.15-31.54.8-.95,1.23-.17,1.54.67,1.88,5.14,3.25,12.8,4.59,18.33,1.05,4.3,1.8,9.47,3.09,13.58.45,1.45,1.22,1.5,2.4.63.22-.16,2.66-2.75,2.76-2.92.32-.56.2-1.58.13-2.23-.55-4.82-2.75-10.42-3.15-15.23-.08-1.02.09-1.64,1.12-.88l5.87,16.57c.13.15.4.36.58.42.6.18,3.6.22,4.25.1.95-.18.71-1.4.58-2.09l-7.53-21.64c-20.23-15.57-43.66-35.42-52.6-60.14-.47-1.31-3.13-9.67-2.51-10.28l1.05.18c4.97,11.57,11.19,22.64,18.96,32.57,12.46,15.91,28.59,28.16,45.12,39.58l4.42,2.88c-6.89-18.62-16.5-36.17-27.21-52.83-6.4-9.96-13.5-20.3-22.25-28.34-2.95-2.71-6.34-4.83-9.29-7.38-7.54-6.53-13.91-21.41-26.44-16.96-5.39,1.91-5.73,5.23-7.73,9.7-.68,1.53-1.9,2.96-2.6,4.51h4.55l-2.46,4.55c4.2-.69,10.22-1.55,13.26,2.18,2.54,3.13,2.79,11.23,3.44,15.31,1.71,10.72,5.55,17.94,12.57,26.08.6.7,4.33,4.33,4.24,4.8-.03.16-.23.31-.35.41-.2.15-.35.07-.55,0-.56-.21-2.7-2.05-3.32-2.56-8.7-7.21-13.98-14.67-16.15-25.91-.82-4.25-1-10.01-2.38-13.91-2.06-5.86-11.51-3.12-16.06-2.23l2.84-5.87h-6.06Z"/>
    <path class="cls-1" d="M167.39,184.24c.06,6.88,8.06,10.47,13.71,6.98,1.42-.88,2.48-3,3.63-3.39,1-.33,5.24-.3,6.46-.19,3.67.34,1.23,4.7-.02,6.43-3.89,5.38-12.19,7.42-18.5,6.4-21.84-3.53-20.43-40.31,5.44-38.4,9.65.71,16.9,9.2,16.4,18.85-.05,1.05-.67,3.31-2,3.31h-25.11ZM184.45,177.05c-.84-9.86-16.05-9.83-17.06,0h17.06Z"/>
    <path class="cls-1" d="M56.43,184.24c-.5.15-.02,1.73.11,2.17,1.51,5.32,7.6,7.44,12.49,5.31,2.29-1,3.26-3.83,5.4-4.07,1.08-.12,5.62-.14,6.49.15,2.54.84-.24,5.48-1.28,6.76-4.05,5.02-11.87,6.88-18.04,5.92-19.52-3.04-20.84-33.36-1.63-37.89,8.3-1.96,17.15.94,21.09,8.78,1.28,2.54,2.91,8.55,1.94,11.22-.2.54-1.24,1.66-1.75,1.66h-24.83ZM73.39,177.05c-1.05-9.81-16.24-9.88-17.06,0h17.06Z"/>
    <path class="cls-1" d="M98.94,162.14c5.86-.48,13.8.86,17.06,6.33.85,1.43,2.04,5.08-.43,5.37-1.03.12-5.08.14-5.98-.09-1.14-.29-1.93-2.6-3.53-3.48-2.99-1.64-11.57-1.46-10.02,3.58.27.87,1.64,1.46,2.42,1.75,6.79,2.51,18.68,2.22,19.65,11.81,1.6,15.82-25.4,17.1-31.78,6.38-.78-1.31-1.99-4.81-.36-5.78.81-.49,4.8-.44,5.92-.34,2.74.24,2.14,1.53,3.59,3.04,2.52,2.65,11,3.36,12.51-.39.93-2.32-.55-3.39-2.56-4.07-7.93-2.7-20.72-2.48-19.28-14.53.72-6.04,7.37-9.12,12.8-9.56Z"/>
    <path class="cls-1" d="M32.65,52.78l-1.36,3.19c-3.98.34-8.63.82-12.34,2.35-8.65,3.56,1.99,8.37,6.11,9.33,5.34,1.25,5.91-1.28,10.16-1.78,6.29-.74,14.2,3.28,19.58,6.17-.32,1.55-1.03,2.35-2.72,2.13s-5.54-2.26-7.55-2.87c-2.73-.84-5.69-1.53-8.58-1.27s-5.39,2.41-8.53,2.27c-3.93-.18-8.76-2.73-11.94-4.92-1.33,2.18.08,4.54,1.51,6.25,2.96,3.53,7.68,6.12,12.04,7.48.19.16.7,2.61.75,3.04.06.46-.03.19-.19.19-3.91-.19-8.54-2.14-11.65-4.45-1.11,1.74-.27,3.75.78,5.28s5.49,6.86,6.92,7.48c2.48,1.07,5.14-.7,7.65-.65,4.74.09,12.15,4.93,15.65,8.05.55.49,2.13,1.94,2.47,2.46.12.18.25.3.17.55l-2.91,2.03c-2.36-2.69-5.54-5.16-8.7-6.87-3.49-1.89-6.35-3.05-10.36-1.95-6.72,1.83-14.02,6.44-20.79,8.58-5.79,2.87-4,5.45-4.41,10.74-.22,2.86-1.53,3.09-4.18,2.93-.45-7.63-1.1-12.78,6.4-16.62,4.89-2.5,10.44-4.16,15.39-6.59-3.65-4.26-9.06-8.38-8.72-14.59.05-.97.46-1.96.56-2.85.28-2.72-3.17-4.78-3.56-7.76-.3-2.21.77-3.84.76-5.67,0-1.61-1.25-2.28-.63-4.4.88-2.98,7.52-5.15,10.27-5.83,3.86-.96,7.97-1.45,11.94-1.42Z"/>
    <path class="cls-1" d="M30.57,13.76h.56c.03-4.58,3.08-8.82,7.53-10,.36-.1.91.05,1.15-.08.12-.07,1.37-1.69,1.84-2.04,6.07-4.66,15.45,1.4,13.03,8.86-.29.9-1.66,2.55-1.71,2.81s.37,1.4.35,2.06c-.07,2.33-1.69,5.13-3.55,6.5-.45.33-2.19,1.1-2.29,1.22-.13.16-.34,1.3-.58,1.79-1.27,2.54-4.98,4.11-7.71,3.85-.67-.06-1.15-.19-.76-.95.2-.4,2.01-1.1,2.54-1.44,1.23-.77,2.28-1.81,2.96-3.1.29-.56.72-2.19.94-2.47.17-.21,1.16-.49,1.54-.73,1.96-1.21,3.22-2.58,3.3-5.05.02-.75-.44-2.28-.36-2.62.06-.26.94-.94,1.21-1.45,2.44-4.54-3.04-9.03-7.02-5.88-.51.4-1,1.47-1.23,1.61-.21.12-1.81.21-2.45.39-2.52.72-4.67,3.16-5.34,5.64-.19.68-.16,1.67-.4,2.25-.19.48-1.06,1.23-1.38,1.84-.47.86-1.02,4.05-1.72,4.16-.87.14-1.19-2.76-1.44-3.45-1.02-2.84-3.07-4.21-5.98-4.73-.43-3.39-3.8-6.56-7.17-6.94-1.05-.12-3.1.25-3.75.12-.14-.03-1.21-1.08-1.69-1.32-4.94-2.43-9.38,3.96-4.96,7.8.26.23.84.37.95.56.17.28.21,1.79.33,2.32.97,4.05,4.68,6.82,8.83,6.81.77,2.16,2.57,3.9,4.72,4.66.83.29,2.72.31,2.72,1.28,0,1.13-2.55,1.18-3.56,1.58s-2.34,1.8-2.66,1.89c-.72.21-2.13-.03-2.99.04-2.43.22-5.65,1.55-6.71,3.9-.22.5-.38,1.64-.44,1.74-.05.08-1.21.61-1.58.97-4.55,4.4,2.11,11.04,6.67,6.47,3.3,2.14,7.27,1.23,9.3-2.11,2.41-.03,5.19-.42,7.21-1.85.57-.4,2.67-2.98,2.67-1.09,0,2.28-3.45,5.26-5.5,5.84-.68.19-2.83.29-2.96.36s-1.26,1.57-1.76,1.93c-1.64,1.19-3.79,1.56-5.78,1.44-.67-.04-1.75-.41-2.22-.35-.41.06-1.52.83-2.18,1.04-7.54,2.41-14.18-6.39-9.48-12.7.68-.91,2.32-1.72,2.52-2.03.43-.64.44-1.83,1.27-2.9,2.69-3.46,7.06-3.27,10.86-3.92.26-.05.56.19.48-.27-.55-.34-1.22-.49-1.72-.94-.45-.41-.72-1.36-.94-1.52-.29-.22-2.82-.56-3.65-.9-2.65-1.09-5.79-4.47-6.31-7.33-.12-.66.04-1.6-.18-2.09-.11-.23-1.68-1.42-2.08-1.89C-3.52,7,3.87-2.59,11.74.65c.72.3,2.4,1.65,2.66,1.71.32.07,2.08-.22,2.8-.16,3.4.28,6.2,2.31,7.9,5.17.29.5,1.17,2.64,1.37,2.8.31.23.74.13,1.06.27,1.49.64,2.87,1.56,3.03,3.32Z"/>
    <path class="cls-1" d="M42.69,117.94l17.37-12.66c.46-.04,1.65,1.87,1.95,2.32l-3.59,3.05c1.18,1.27,2.83,2.3,4.42,2.98,7.64,3.24,13.49-.8,21.07-1.55,12.52-1.23,25.42,2.52,36.73-4.21,8.7-5.17,15.77-13.57,20.03-22.7l3.41,1.91c-4.83,10.92-14.1,21.35-25.07,26.35-11.29,5.15-25.7,1.11-37.85,3.27-3.46.62-7.01,2.14-10.51,2.37-5.64.37-11.58-1.8-15.53-5.82-5.14,3.61-9.82,7.89-14.9,11.58-2.53,1.84-4.82,3.28-7.94,4-1.41.33-4.82.84-6.17.67-.2-.03-.43,0-.57-.19-.21-1.73.15-3.35,2.12-3.59,3.6-.43,6.58-.35,9.55-2.96s3.07-9.5.46-12.4c-1.95-2.16-4.62-2.35-6.85-3.57-.22-.12-.32,0-.24-.42l3.35-1.86c3.33,1.14,6.92,3,8.17,6.54.16.46.61,2.03.61,2.42v4.45Z"/>
    <path class="cls-1" d="M132.71,170.42v17.52c0,1.66,1.55,3.55,3.09,4.11,2.05.75,4.91-.5,5.25,2.52.19,1.71.44,5.14-1.8,5.4-8.78,1.04-15.78-2.17-16.39-11.66-.38-5.83.28-12.03,0-17.9-1.14,0-3.2.17-3.87-.96-.5-.85-.51-4.72.18-5.47.11-.11.88-.58.94-.58h2.75v-11.65c0-1.14,1.21-2.42,2.36-2.56.94-.11,4.83-.14,5.65.04.65.15,1.84,1.54,1.84,2.14v11.74l.28.28h6.82c.5,0,1.27.94,1.38,1.46.14.7.14,3.77-.1,4.36-.22.54-1.33,1.19-1.85,1.19h-6.54Z"/>
    <path class="cls-1" d="M145.92,149.24c.84-.17,5.14-.17,5.98,0,1,.2,1.9,1.33,2.02,2.34l.02,45.83c-.06,1.16-1.03,2.37-2.19,2.54-.9.14-5.34.13-6.12-.11-.89-.28-1.6-1.38-1.72-2.26l-.02-45.83c.05-1.08.97-2.3,2.03-2.51Z"/>
    <path class="cls-1" d="M131.76,80.44l-.11.39c-5.49,2.67-9.8,6.93-13.3,11.86-.63.89-3.02,4.3-3.25,5.08-.11.37.07.24.28.27,5.21.79,9.22-2.7,13.17-5.49.28,2.31.55,3.25-1.34,4.81-2.92,2.43-8.58,4.74-12.39,4.46-.62-.04-2.29-.57-2.63-.51-.4.07-2.88,1.56-3.6,1.88-9.72,4.24-20.9,4.84-31.4,4.89-.13-.97.5-2.83,1.51-3.14,5.27-.32,10.54-.48,15.74-1.41-1.01-3.11-3.54-7.46-7.29-7.4-2.6.04-7.57,2.31-10.08,3.39-2.81,1.22-5.58,2.61-8.31,4.02-.46,0-1.61-1.91-1.95-2.37.06-.84,13.04-6.74,14.75-7.38,2.06-.78,4.7-1.76,6.92-1.62,4.72.3,8.7,6.07,9.96,10.22.5.36,7.61-2.17,8.58-2.66,4.18-2.09,5.5-5.44,8.11-8.94,3.52-4.72,8.34-9.54,13.71-12.06l2.93,1.7Z"/>
    <path class="cls-1" d="M84.01,15.84l-3.78,5.78,5.11,3.78c-3.09,1.3-6.45,2.15-9.01,4.45-.7.63-2.16,2.67-2.75,2.94-.26.12-.51.17-.77.01-.64-.46.57-2.62.86-3.14,1.27-2.27,3.45-4.31,5.97-5.11l-3.05-2.19,2.1-3.3h-2.94c-1.54,0-4.55-2.04-7.01-2.09-8.83-.21-8.08,9.65-11.06,15.48-2.29,4.49-6.08,7.98-9.12,11.91-4.1,5.29-6.95,11.3-9.77,17.34l-4.45.08c2.49-6.18,5.21-12.33,9.21-17.69,2.89-3.88,7.12-7.62,9.52-11.7,3.99-6.79,2.88-18.34,13.58-19.2,5.04-.4,7.75,2.66,10.81,2.66h6.54Z"/>
    <path class="cls-1" d="M89.5,34.41l-2.46,6.24,5.57,2.27.11.39c-3.6,2-6.77,5.89-8.5,9.6-2.03,4.33-2.2,8.97-2.52,13.68-1.09.6-1.19-.67-1.4-1.49-1.44-5.63-.74-11.23,2.15-16.23,1.11-1.93,2.73-3.99,4.58-5.18.25-.36-3.34-1.4-3.52-1.69l1.43-3.51c.06-.18-3.25.68-3.69.68-1.05,0-2.37-.5-3.41-.58-5.38-.43-9.18,2.24-9.94,7.67-.6,4.27.18,5.67-2.2,9.74-2.5,4.28-5.94,8.24-8.6,12.43l-3.52-1.81c-.42-.58,7.32-10.53,8.11-11.8,3.94-6.33.02-15.12,8.93-19.11,5.2-2.33,7.81.15,12.55-.15,2.1-.13,4.23-1.02,6.34-1.14Z"/>
    <path class="cls-1" d="M170.42,4.1c-.74,2.2-1.88,4.31-2.66,6.53-.86,2.47-3.04,9.04-.25,10.68,1.77,1.04,5.55-.06,7.5-.59,5.17-1.41,10.18-3.7,15.31-5.25v4.17c-4.93,1.38-9.64,3.5-14.59,4.83-3.25.87-7.19,1.96-10.33.29-2.38-1.26-3.14-3.99-2.93-6.54,0-.17-.38-.12-.47-.09-.49.21-4.98,7.77-5.82,8.95-.53.75-1.35,1.98-1.95,2.6-.2.2-.33.44-.66.38-.14-.98-2.54-2.11-2.19-3.02,5.59-7.27,10.47-15.06,15.16-22.93h3.88Z"/>
    <path class="cls-1" d="M190.85,148.3c1.22,0,2.3.69,2.48,1.96.12.84.15,4.3-.02,5.06-.15.65-.96,1.32-1.62,1.42l-30.47.05c-.63-.01-1.24-.46-1.38-1.09-.27-1.19-.34-4.05,1.24-4.36l29.76-3.04Z"/>
    <path class="cls-1" d="M75.1,92.17c-7.31,3.73-15.34,6.17-23.05,1.94-2.82-1.55-4.89-3.89-6.88-6.37-2.31.39-9.82,1.64-11.57.37-.77-.56-.71-1.91-.95-2.74,2.24,0,4.49.04,6.73-.19.51-.05,3.86-.48,3.88-.85-2.04-3.6-2.48-6.84-7.48-6.35-2.51.25-5.63,2.96-6.13-1.21.07-.3,3.41-1.55,3.96-1.72,11.66-3.61,10.88,6.09,16.3,12.68,6.68,8.12,16.11,5.89,24.16,1.24l1.04,3.2Z"/>
    <path class="cls-1" d="M98.03,83.85c-6.78.57-13.3,3.07-19.05,6.63-.2,0-.99-2.86-.77-3.22.1-.17,2.97-1.63,3.44-1.87,6.27-3.19,13.14-5.27,20.16-5.9.32,2.16-.45,9,2.93,8.91,1.81-.05,5.37-3.76,6.64-5.12,3.06-3.27,5.66-6.98,8.53-10.42l2.35,1.82c.08.34-3.62,4.97-4.16,5.66-2.71,3.44-9.1,11.81-13.54,12.22-4.8.45-6.54-4.79-6.54-8.71Z"/>
    <path class="cls-1" d="M194.49,23.8v4.17c-1.88.78-16,5.84-16.4,6.63-.13.26-.19.68.09.87.72.48,4.52,0,5.57-.13,2.19-.29,4.35-.92,6.57-1.11v2.94c-.52.36-1.38.46-2.05.6-5.33,1.19-10.01.82-15.3,1.19-3.38.23-6.87,1.71-10.02,2.86l-2.2-3.23c10.92-5.6,22.19-10.57,33.73-14.78Z"/>
    <path class="cls-1" d="M72.83,72.86c-3.09,1.04-13,5.22-13.94,8.33-1.24,4.13,5.31,3.03,7.5,2.57,1.56-.33,3.29-.92,4.78-1.47,1.61-.6,6.08-3.05,7.25-3.18,1.59-.17,2.25.74,2.75,2.09-6.18,3.05-14.15,7.24-21.27,6.39-3.68-.44-6.18-3.12-4.7-6.87,1.88-4.76,10.99-8.66,15.5-10.48.31-.09.42.07.62.25.28.26,1.72,2.13,1.51,2.37Z"/>
    <path class="cls-1" d="M115.05,68.16l1.93,2.42c-3.78,1.72-7.82,3.5-12.04,3.79-5.69.39-11.43-1.46-17.06-1.14-2.95.17-6.16.96-8.88,2.08l-1.82-2.54c3.98-2.79,8.96-3.53,13.75-3.33,8.22.35,12.34,2.25,20.89-.32.68-.2,2.75-1.24,3.23-.96Z"/>
    <path class="cls-1" d="M166.38,78.99c2.87,2.91,5.67,5.9,8.79,8.54.46.76.08,1.24-.78.97-.73-.23-3.23-2.2-4.03-2.79-8.29-6.06-18.39-15.89-22.97-25.16-.27-.54-.98-1.44-.39-1.91s1.12.34,1.53.77c2.64,2.77,5.14,6.2,7.76,9.1,3.25,3.59,6.68,7.04,10.07,10.48Z"/>
    <polygon class="cls-1" points="106.75 56.57 89.31 56.57 90.82 53.62 91.67 53.34 105.3 53.38 106.75 56.57"/>
    <path class="cls-1" d="M31.89,27.4c.01.17.07.35.19.47,2.42,2.55,4.91,5.81,6.72,8.83.37.62,1.8,2.83,1.54,3.39l-2.47,3.22c-2.29-4.86-4.62-9.72-7.6-14.2-.18-.45,1.42-1.86,1.63-1.71Z"/>
    <path class="cls-1" d="M12.68,11.31c4.62,1.47,9.1,4.59,11.93,8.51l-1.34,1.5-10.87-9.21.28-.8Z"/>
    <path class="cls-1" d="M43.97,11.32c.72-.11.75.6.52,1.1l-7.57,11.54-1.73-1.31c1.49-3.22,3.3-6.26,5.8-8.81.4-.41,2.65-2.47,2.98-2.53Z"/>
    <path class="cls-1" d="M25.81,33.66l.39,2.06-13.35,4.37c-1.4-.56.58-1.7,1.24-2.17,3.3-2.34,7.68-3.91,11.72-4.26Z"/>
    <path class="cls-1" d="M103.85,10.01c1.37-.25,4.26.32,4.03,2.12-.16,1.22-3.42,3.3-4.61,3.26-2.56-.08-1.81-4.94.58-5.38Z"/>
    <path class="cls-1" d="M68.99,20.24c3.02-.52,4.97,2.66,1.19,4.41-4.5,2.07-3.85-3.95-1.19-4.41Z"/>
    <path class="cls-1" d="M76.56,41.64c4.44-1,4.52,3.54.54,4.7-3,.88-2.59-4.24-.54-4.7Z"/>
    <path class="cls-2" d="M184.45,177.05h-17.06c1.01-9.83,16.21-9.86,17.06,0Z"/>
    <path class="cls-2" d="M73.39,177.05h-17.06c.81-9.88,16-9.81,17.06,0Z"/>
  </g>
</svg>