<?xml version="1.0" encoding="UTF-8"?>
<svg id="Layer_2" data-name="Layer 2" xmlns="http://www.w3.org/2000/svg" viewBox="0 0 285.59 121.4">
  <defs>
    <style>
      .cls-1 {
        fill: #a5adb6;
      }

      .cls-2 {
        fill: #8a95a0;
      }

      .cls-3 {
        fill: #b1b8bf;
      }

      .cls-4 {
        fill: #6c7987;
      }

      .cls-5 {
        fill: #bac0c7;
      }

      .cls-6 {
        fill: #405163;
      }

      .cls-7 {
        fill: #485869;
      }

      .cls-8 {
        fill: #4d5d6e;
      }

      .cls-9 {
        fill: #85909b;
      }

      .cls-10 {
        fill: #caced3;
      }

      .cls-11 {
        fill: #98a1ab;
      }

      .cls-12 {
        fill: #e2e5e8;
      }

      .cls-13 {
        fill: #dde0e3;
      }

      .cls-14 {
        fill: #dbdee1;
      }

      .cls-15 {
        fill: #4a5a6b;
      }

      .cls-16 {
        fill: #a3abb4;
      }
    </style>
  </defs>
  <g id="Layer_5" data-name="Layer 5">
    <g>
      <path class="cls-10" d="M0,112.88L25.4,29.44c25.55-.55,51.04-2.73,76.48-5.28,61.45-6.18,122.61-15.33,183.72-24.16l-23.42,78.03c-.51,1.14-1.8.4-2.59.48-.36.04-.7.27-.83.27-.86-.27-1.8-.3-2.65,0-1.18.06-2.28.3-3.31.33-.57-.11-1.13-.23-1.66-.33-.83.09-1.72.2-2.65.33-.11,0-.22,0-.33,0-3.43.52-6.85.63-10.27.33-.63-.26-1.36-.27-1.99,0-.57.71-1.42.71-1.99,0l-2.32.33c-.19.63-.48.63-.66,0-.63-.27-1.36-.27-1.99,0-.42.64-.91.64-1.33,0l-1.99.33c-.19.63-.48.63-.66,0-.63-.27-1.36-.27-1.99,0-.3.64-.69.64-.99,0-.66.26-1.34.27-1.99,0-.72.09-1.49.2-2.32.33-.3.64-.69.64-.99,0l-1.99.33c-1.13.83-2.18.83-3.31,0-.52.24-1.14.28-1.66,0-.63.1-1.3.21-1.99.33-.3.64-.69.64-.99,0-.52.24-1.14.28-1.66,0-.63.1-1.3.21-1.99.33-.3.64-.69.64-.99,0l-1.99.33c-.68.33-1.38.67-2.14.73-33.04,2.72-67.4,6.2-101.15,11.42-30.57,4.73-59.96,11.06-90.07,17.94-2.22.51-4.49.79-6.76,1.02Z"/>
      <path class="cls-6" d="M248.16,79.11c-1.29.35-3.12.56-4.48.66-78.18,5.93-156.11,18.6-230.98,41.63-4.48-2.44-8.61-5.51-12.7-8.53,56.03-14.38,113.46-23.33,171.13-28.8,9.35-.89,19.67-2.1,28.99-2.32l1.99-.33c.33,0,.66,0,.99,0,.64-.25,1.35-.28,1.99,0,.51-.11,1.06-.22,1.66-.33.33,0,.66,0,.99,0,.64-.25,1.35-.28,1.99,0,.51-.11,1.06-.22,1.66-.33,1.1,0,2.21.01,3.31,0l1.99-.33c.33,0,.66,0,.99,0,.75-.26,1.57-.29,2.32,0,.63-.1,1.3-.21,1.99-.33.33,0,.66,0,.99,0,.65-.27,1.33-.27,1.99,0,.22,0,.44,0,.66,0l1.99-.33c.44,0,.88,0,1.33,0,.65-.27,1.33-.27,1.99,0,.22,0,.44,0,.66,0l2.32-.33c.66,0,1.33,0,1.99,0,.63-.28,1.35-.27,1.99,0,3.43-.12,6.84-.23,10.27-.33Z"/>
      <path class="cls-11" d="M258.76,78.78c-.87.04-1.95-.04-2.65,0,.51-.55,2.13-.56,2.65,0Z"/>
      <path class="cls-4" d="M251.14,78.78c.29.09.29.2,0,.33-.88.03-1.77-.03-2.65,0,.54-.57,1.84-.35,2.65-.33Z"/>
      <path class="cls-6" d="M252.79,79.11c-.55.02-1.11-.02-1.66,0v-.33c.53.01,1.38-.2,1.66.33Z"/>
      <path class="cls-6" d="M170.63,74.48l14.4-48.01.68-.31c5.35-.27,10.92-1.71,16.21-2.01,5.58-.32,9.5.15,9.14,6.81-.32,5.85-4.05,11.51-8.95,14.55,5.77,3.42,3.61,11.17,1.17,16.07-6.4,12.89-20.49,10.93-32.65,12.89Z"/>
      <path class="cls-6" d="M43.13,72.88l-6.07,19.1-11.88,1.37,15.54-51.76c.2-.29,1.44-.41,1.9-.49,4.48-.81,17.89-2.69,21.73-1.61,9.06,2.56,2.71,18.84-.92,24.05-5,7.17-12.04,8.52-20.3,9.35Z"/>
      <path class="cls-6" d="M114.64,67.53c2.75-6.75,5.61-13.47,8.44-20.2,2.86-.74,6-.7,8.95-1.32l-.54,2.11-16.18,33.48-10.27,1.49c.8-5.18,1.52-10.38,2.32-15.56.04-.84-.07-1.06-.33-.66-2.22,5.61-4.55,11.19-6.67,16.84l-10.89,1.37,4.54-34.1,8.71-.98c-.97,6.53-2.21,13.02-3.31,19.53-.18,1.02-.07,1.13.33.33,2.79-7.04,6.2-13.89,9.19-20.86l8.04-.99c-.71,6.43-1.82,12.79-2.65,19.2.02.61.13.72.33.33Z"/>
      <path class="cls-6" d="M230.26,67.19l-9.6,1.33-.17-2.65c-3.11,3.63-14.14,6.92-15.05.14-1.04-7.76,6.06-14.27,12.33-17.41,2.26-1.13,7.19-2.3,8.51-4.08,1.96-2.64,1.18-7-2.49-4.47-2.1,1.45-2.81,5.6-3.13,5.81-.41.28-9.56,1.43-9.96,1.13,1.55-9.87,10.3-13.67,19.39-14.23,4.51-.28,8.23.49,7.78,5.79-.36,4.18-3.94,12.67-5.2,17.31-.99,3.67-2.07,7.54-2.42,11.32Z"/>
      <path class="cls-6" d="M81.44,51.07c4.17-.42,9.79,0,9.98,5.39.1,2.92-4.84,19.41-6.31,22.43-2.97,6.1-8.68,9.04-15.36,9.48-7.22.47-10.11-2.95-8.61-9.93.96-4.48,4.7-17.64,7.29-20.85,3.08-3.82,8.21-6.03,13.02-6.52Z"/>
      <path class="cls-6" d="M152.68,61.18l-16.35,2.37c-.82,2.45-4.35,11.53,1.4,8.68,2.51-1.24,2.96-5.04,3.74-5.53,1.6-1,7.53-.49,9.6-1.49-1.65,7.9-8.12,14.26-16.39,14.91-6.71.52-10.97-1.22-10.08-8.75.41-3.48,4.86-16.83,6.66-19.83,3.74-6.25,12.17-9.45,19.29-8.48,9.24,1.26,3.11,12.82,2.12,18.12Z"/>
      <path class="cls-6" d="M262.4,28.8l-2.68,9.23c-8.87-.8-10.77,3.51-13.31,10.7-1.98,5.6-3.27,11.49-5.25,17.1l-9.23,1.03,10.33-34.37,9.22-1.04c-1.07,3.72.81,1.12,2.35.19,2.56-1.55,5.55-2.75,8.59-2.84Z"/>
      <path class="cls-6" d="M178.91,39.39c-.15,1.14-2.24,8.85-2.63,9.12-.54.38-2.87.05-3.8.17-5.21.67-6.95,5.76-8.49,10.06-1.99,5.56-3.26,11.44-5.14,17.05-.68,1.04-7.81,1.07-9.43,1.66l10.24-34.21c.64-.84,7.86-.84,9.3-1.54.07.79-.1,1.57-.66,2.15.86.24,1.97-1.23,2.87-1.76,2.26-1.34,5.08-2.67,7.73-2.71Z"/>
      <path class="cls-5" d="M247.16,61.57c.18.03.4-.09.6.06.13.1.3.69.39.93.22.67.16,1.44-.33,1.99-.22.29-.3.48-.66.66-.64.18-1.65.29-1.99-.33-.23-.65-.12-1.09.33-1.32.05-.28.16-.39.33-.33.31-.2.64-.42.99-.66-.64-.19-.64-.48,0-.66-.14-.12-.03-.24.33-.33Z"/>
      <path class="cls-16" d="M245.51,61.9c.44.25.44.8,0,1.66,0,.71.73.77-.33,1.32-.05-.05-.43.06-.56-.1-.18-.22-.06-.49-.1-.56-.33-.79-.64-1.58,0-2.32.2-.12.82-.12.99-.33.29.09.29.2,0,.33Z"/>
      <path class="cls-8" d="M244.51,64.22c-.48-.77-1.47-1.41,0-2.32v2.32Z"/>
      <path class="cls-4" d="M245.51,61.57c.12-.15-.39-1.05,1.14-.67.35.09.15.39.18.67-.43.25-.88.24-1.33,0Z"/>
      <path class="cls-7" d="M247.16,65.21c-.11.05-.18.25-.51.32-1.85.38-1.35-.54-1.48-.65l1.99.33Z"/>
      <path class="cls-2" d="M107.35,67.53l-.33-.66c.2-.5.13-1.42.66-1.32.32.77-.26,1.52-.33,1.98Z"/>
      <path class="cls-9" d="M99.73,69.84c-.2.5-.13,1.42-.66,1.32-.31-.68.27-1.3.33-1.65l.33.33Z"/>
      <path class="cls-6" d="M247.82,64.55l.33-1.99c.12.34.46.4.35,1.14s-.53.65-.68.84Z"/>
      <path class="cls-3" d="M233.91,79.44c-.45.58-1.59.32-2.32.33.45-.58,1.59-.32,2.32-.33Z"/>
      <path class="cls-13" d="M219.99,80.11c.29.09.29.2,0,.33-.77.01-1.55,0-2.32,0,.45-.58,1.59-.32,2.32-.33Z"/>
      <path class="cls-1" d="M114.64,67.53c-.18.43-.36.84-.34,1.32h-.32c-.31-.68.29-1.34.33-1.65l.33.33Z"/>
      <path class="cls-14" d="M237.89,79.44c-.66.02-1.33,0-1.99,0,.33-.54,1.67-.53,1.99,0Z"/>
      <path class="cls-12" d="M230.93,79.77c-.66,0-1.33,0-1.99,0,.33-.54,1.67-.53,1.99,0Z"/>
      <path class="cls-12" d="M224.96,80.11c-.66,0-1.33,0-1.99,0,.33-.54,1.67-.53,1.99,0Z"/>
      <path class="cls-3" d="M227.61,79.77c-.36.56-1.36.32-1.99.33.36-.56,1.36-.32,1.99-.33Z"/>
      <path class="cls-3" d="M221.98,80.11c-.36.56-1.36.32-1.99.33v-.33c.66,0,1.33,0,1.99,0Z"/>
      <path class="cls-3" d="M216.68,80.44c-.36.56-1.36.32-1.99.33.36-.56,1.36-.32,1.99-.33Z"/>
      <path class="cls-14" d="M209.72,80.77c.29.09.29.2,0,.33-.66.01-1.33,0-1.99,0,.36-.56,1.36-.32,1.99-.33Z"/>
      <path class="cls-14" d="M205.08,81.1c.29.09.29.2,0,.33-.66.01-1.33,0-1.99,0,.36-.56,1.36-.32,1.99-.33Z"/>
      <path class="cls-3" d="M202.1,81.43c-.36.56-1.36.32-1.99.33.36-.56,1.36-.32,1.99-.33Z"/>
      <path class="cls-10" d="M246.83,61.57c.11,0,.23-.02.33,0-.04.16-.18.31-.33.33-.36.42-1.11.58-1.33,0v-.33c.44,0,.88,0,1.33,0Z"/>
      <path class="cls-3" d="M211.38,80.77c-.28.53-1.12.32-1.66.33v-.33c.55,0,1.1,0,1.66,0Z"/>
      <path class="cls-3" d="M206.74,81.1c-.28.53-1.13.32-1.66.33v-.33c.55,0,1.1,0,1.66,0Z"/>
      <path class="cls-10" d="M184.21,63.88l3.39-11.51c8.18-3.37,7.92,4.51,4.04,9.16-1.9,2.28-4.61,2.36-7.42,2.34Z"/>
      <path class="cls-10" d="M190.51,43.36c-.06-.46.05-.89.15-1.34.21-.92,2.39-7.93,2.67-8.26.74-.88,5.2-1.23,5.73.57,1.26,4.31-4.38,9.32-8.54,9.03Z"/>
      <path class="cls-10" d="M46.06,62.89l3.67-13.54c7.23-1.37,8.31.4,5.86,7.01-1.76,4.73-4.69,6-9.53,6.53Z"/>
      <path class="cls-10" d="M224.3,51.64c-1.03,2.7-1.29,6.31-3.17,8.58-2.62,3.15-6.83,2.69-4.74-2.09,1.28-2.93,4.94-5.5,7.91-6.49Z"/>
      <path class="cls-10" d="M78.77,58.99c1.46-.25,2.53,0,2.4,1.71-1.85,3.47-3.84,16.53-6.27,18.6-1.75,1.5-4.27,1.34-3.92-1.59.27-2.29,3.85-14.26,4.87-16.33.56-1.13,1.65-2.18,2.92-2.39Z"/>
      <path class="cls-10" d="M144.75,55.91c-.24.2-5.41.58-6.26.69.36-2.39,3.58-9.22,6.77-6.92,1.09.78-.1,5.9-.51,6.23Z"/>
      <path class="cls-15" d="M246.83,61.9c.02.22-.02.45,0,.66-.17.41-.57.56-.99.66-.05.15-.19.27-.33.33,0-.55,0-1.1,0-1.66.44-.03.89.05,1.33,0Z"/>
      <path class="cls-10" d="M246.83,62.56c.08.72-.22,1.16-.99.66.18-.58-.3-.82.99-.66Z"/>
    </g>
  </g>
</svg>