<?xml version="1.0" encoding="UTF-8"?>
<svg id="Layer_2" data-name="Layer 2" xmlns="http://www.w3.org/2000/svg" viewBox="0 0 142.18 87.66">
  <defs>
    <style>
      .cls-1 {
        fill: #a5adb6;
      }

      .cls-2 {
        fill: #f5f6f7;
      }

      .cls-3 {
        fill: #b1b8bf;
      }

      .cls-4 {
        fill: #6c7987;
      }

      .cls-5 {
        fill: #445466;
      }

      .cls-6 {
        fill: #bac0c7;
      }

      .cls-7 {
        fill: #727e8c;
      }

      .cls-8 {
        fill: #f4f5f6;
      }

      .cls-9 {
        fill: #9aa3ac;
      }

      .cls-10 {
        fill: #7d8995;
      }

      .cls-11 {
        fill: #536273;
      }

      .cls-12 {
        fill: #647281;
      }

      .cls-13 {
        fill: #afb6bd;
      }

      .cls-14 {
        fill: #b5bbc2;
      }

      .cls-15 {
        fill: #818c98;
      }

      .cls-16 {
        fill: #516171;
      }

      .cls-17 {
        fill: #7b8793;
      }

      .cls-18 {
        fill: #fbfcfc;
      }

      .cls-19 {
        fill: #405163;
      }

      .cls-20 {
        fill: #485869;
      }

      .cls-21 {
        fill: #4d5d6e;
      }

      .cls-22 {
        fill: #6a7785;
      }

      .cls-23 {
        fill: #f9fafa;
      }

      .cls-24 {
        fill: #838e9a;
      }

      .cls-25 {
        fill: #85909b;
      }

      .cls-26 {
        fill: #4f5f6f;
      }

      .cls-27 {
        fill: #909aa5;
      }

      .cls-28 {
        fill: #798592;
      }

      .cls-29 {
        fill: #707d8a;
      }

      .cls-30 {
        fill: #adb4bc;
      }

      .cls-31 {
        fill: #4b5b6c;
      }

      .cls-32 {
        fill: #425365;
      }

      .cls-33 {
        fill: #a7afb7;
      }

      .cls-34 {
        fill: #98a1ab;
      }

      .cls-35 {
        fill: #a1aab3;
      }

      .cls-36 {
        fill: #596877;
      }

      .cls-37 {
        fill: #465668;
      }

      .cls-38 {
        fill: #fefefe;
      }

      .cls-39 {
        fill: #969fa9;
      }

      .cls-40 {
        fill: #556474;
      }

      .cls-41 {
        fill: #74808d;
      }

      .cls-42 {
        fill: #a9b1b9;
      }

      .cls-43 {
        fill: #5f6d7c;
      }

      .cls-44 {
        fill: #9ea6af;
      }

      .cls-45 {
        fill: #606f7e;
      }

      .cls-46 {
        fill: #8c97a1;
      }

      .cls-47 {
        fill: #576676;
      }

      .cls-48 {
        fill: #687684;
      }

      .cls-49 {
        fill: #b3b9c1;
      }

      .cls-50 {
        fill: #4a5a6b;
      }

      .cls-51 {
        fill: #75828f;
      }

      .cls-52 {
        fill: #62707f;
      }

      .cls-53 {
        fill: #a0a8b1;
      }

      .cls-54 {
        fill: #949ea8;
      }

      .cls-55 {
        fill: #89939e;
      }

      .cls-56 {
        fill: #7f8a96;
      }

      .cls-57 {
        fill: #5d6b7a;
      }

      .cls-58 {
        fill: #6e7b88;
      }

      .cls-59 {
        fill: #f2f3f4;
      }

      .cls-60 {
        fill: #5b6979;
      }

      .cls-61 {
        fill: #667482;
      }

      .cls-62 {
        fill: #fdfdfd;
      }

      .cls-63 {
        fill: #929ca6;
      }
    </style>
  </defs>
  <g id="Savoy">
    <path class="cls-47" d="M113.97,34.83c-1.36,7.08-1.08,15.28,8.39,11.86l-6.39,17.07c-.47,3.08.26,3.27,1.95,5.15.87.32,1.03.65.49.99-.7,1.42-4.58,3.56-6.3,4.18-12.75,4.57-22.88,7.98-36.69,9.1-9.91.81-20.44.44-30.21-1.44-1.08-.21-2.02-.78-2.86-1.47l.21-1.21c18.42-2.18,35.05-9.96,46.92-24.08-1.27-.98-1.59-2.75.29-2.37.55.6,1.37,1.49,1.98,1.98,6.92,3.82,12.49-3.19,15.47-8.7l4.06-10.22c.63-.74,2.1-1.72,2.69-.83Z"/>
    <path class="cls-38" d="M51.73,24.95c.24-.98.74-.82,1.48.49,1.2-1,2.04-.54,1.98.99,3.95,3.74-.55,10.35-3.45,13.54-2.27,2.5-6.83,6.53-9.89,7.2-1.46,1.62-4.58,2.74-6.92,2.47-.04,1.82-4.32,1.37-5.73,1.02s-4.4-1.3-3.17-3c-1.27-4.34,1.62-7.6,5.43-9.39.07-.86,1.6-1.49,2.47-1.48,1.83-1.47,7.04-3.72,8.89-1.93.35.34.24.52,0,.94.2.35.37.75.24,1.14-.29.83-9.04,5.63-10.61,6.27-.1,1.49,2.59-.09,3.55-.66l.41.17c5.46-2.92,9.25-5.79,12.84-10.87-.28-.79-1.04-.86-2.29-.22l-.68-.77c-3.26.89-6.45,1.97-9.58,3.22l-.79-.26-.22.72c-5.97,2.91-11.38,6.98-16.17,11.57l-1.39.06.17,1.31c-2.69,2.51-2.85,4.2-.47,5.08l.31,1.02c2.76-.52,7.69-.31,10.59.53,1.08.04,1.85.37,2.26,1.45,2.84.44,5.21,3.22,2.96,5.43.21.19.4.38.53.61,1.74,3.06-17.94,19.51-22.52,20.21-2.37.36-4.96.64-4.68-2.54-.76-.73-.85-3.31,0-3.95-.77-.42-.18-1.63.49-1.98-.15-1.1.25-1.34.99-.49.19.31.45.95.49.99,1.16.21,2.31.21,3.46,0l.19-1.12c1.65-.93,3.22-1.83,4.75-2.83l-.13-1.22c1.62-1.65,3.31-3.05,5.07-4.21-.6-.52-.55-1.25.16-2.21-3.14-.66-16.01-3.52-15.79-7.38.02-.27.15-.52.32-.78-.44-1.62-.29-3.31,0-4.94-1.43-.66-.42-2.53.99-1.98-.53-1.73.52-3.69,2.47-3.46-.61-1.25-.25-1.58.99-.99l2.03-2.33c-.19-1.4.5-2.22,1.92-1.63-.79-1.14-.21-1.68.99-.99-.91-1.22.85-2.34,1.98-1.48-.48-1.41.74-2.33,1.98-1.48-.72-1.28.38-1.85,1.48-.99-.2-1.89,1.33-2.24,2.96-1.98-.46-1.33.39-1.92,1.48-.99-.36-1.24.3-1.57,1.98-.99-.39-.65-.06-.82.99-.49-.34-.92.16-1.04.99-.49.08-1.68,1.1-1.7,2.47-.99-.1-1.81,1.63-1.56,2.96-.99.35-.98,1.5-1.31,3.46-.99.68-2.01,3-1.76,4.45-.99.12-.44.29-.43.49,0,2.44-.43,4.91-.43,7.41,0Z"/>
    <path class="cls-47" d="M89.76,52.61s-.52.22-.28.94c.14.43,1.26,1.04,1.26,1.28.02.8-9.19,9.47-10.63,10.6-8.47,6.69-18.67,11.2-29.29,13.19-2.83.53-6.1.27-8.49,1.64-2.94.88-15.58-2.59-17.22-4.45-.25-.28-.42-.62-.57-.98l-.11-1.22c3.67-2.96,7.22-6.03,9.58-10.23l1.39-.41c-.17.92-.49,3.09-.49,3.95,1.55,11.3,12.12,1.41,16.08-2.79l.72.32c.03.16-.04.35,0,.49,2.06,4.88,5.45,2.87,8.53.33l5.06-5.52c1.08-.6,1.58-.22,2.21.74.13.18.36.31.49.49,3.55,4.94,8.21-.08,10.92-3.28,3.82-5.06,7.13-10.42,9.94-16.06.48-.67,1.04-1.31,1.87-.91.91.92-1.3,4.73-1.47,6.67s.16,3.29.48,5.18Z"/>
    <path class="cls-47" d="M7.27,83.24c-1.11-.26-1.35-1.22-.49-1.98-.17-.79-.4-2.13.49-1.98.65,1.23,1.67,1.93,3.08,1.87,5.17-.21,22.71-14.88,23.6-20.15.22-2.74,2.13-2.64,1.98,0-.27.86-.32,1.05-.49,1.98-1.33,2.29-3.1,4.77-4.92,6.69-1.62,1.72-4.37,3.5-5.95,5.16l.65,1.23c29.93,11.66,65.46,9.71,93.5-5.4.58-.14,1.16-.1,1.68.22-.05-.97,1.2-1.16,2.07-1.24.41-1.29,1.04-1.86,1.88-1.72l1.72-2.3c10.11-7.09,17.29-20.53,10.29-32.2l-.16-2.05c-1.08-.67-.74-1.88.49-1.98,13.3,16.76.11,34.26-14.86,43.67-24.15,15.19-61.1,18.4-88.14,10.18-2.13-.65-12.16-4.96-12.85-4.94-2.73.1-6.46,7.58-13.57,4.93Z"/>
    <path class="cls-50" d="M114.46,13.59c1.42.6,1.44,1.88,0,2.47-.05.64.1,1.39,0,1.98.34.26.72.57.8,1,.45,2.44-7.23,11.34-10.68,9.87-.68.29-2.15.25-2.96.49-.53.71-1.02.88-1.48.49-3.74.45-1.33-2.17.99-2.96-.94-1.51,2.28-2.4,3.46-2.47,1.86-3.87,3.41-7.94,4.64-12.21l.8-.64c-1.33.02-1.51-.61-.49-1.48-.76.08-.73-.75,0-.99.13-1.29.29-2.65.48-4.09-.94-.1-1.43-.55-1.47-1.34-.2,1.3-.6,1.25-.99,0,.59-.45,4.38-.92,4.72-.86,1.31.25,2.15,9.07,2.2,10.74Z"/>
    <path class="cls-47" d="M124.83,23.47c.23.15.22.32,0,.49-.45.96-1.03.96-1.48,0-5.06-.06-4.74,2.03-8.44,4.16-3.35,1.93-6.76,2.66-10.33.78,4.35-1.83,9.08-6.03,9.88-10.87,3.8,1.14,7.13,3.21,10.37,5.43Z"/>
    <path class="cls-26" d="M136.69,29.4c-.18.66-.31,1.35-.49,1.98.44,1.39.87,2.85-.99,2.96.05.7.09,1.39.05,2.09s-.09,1.36-.27,2c-2.23,7.71-4.75,15.53-7.44,23.1-.22.62-.58,1.2-.95,1.78s-.81,1.13-1.26,1.66c.86.71.53,1.7-.99,2.96-1.68,4.01-1.22,2.02-3.95,2.96-1.27.22-1.92-.11-1.98-.99-.19-.28-.29-.76-.49-.99,1.91.32,3.7,1.26,4.47-1.21l14.19-43.12c.6-1.9-.28-2.75-1.37-4.07,5.07.83,2.39,5.63,1.48,8.89Z"/>
    <path class="cls-60" d="M2.82,44.22c1.4.25,1.29,1.52,0,1.98-.41,2.61-.41,5.25,0,7.9,1.07.47,1.75,1.54,2.02,3.22,1.96,4.26,6.92,13.11,11.81,12.59.28-.94.71-.94.99,0-1.8,1.69-2.16,3.04-4.94,3.95-.43-.14-.43-.31,0-.49-1.77-.16-2.59-.82-2.47-1.98C5.18,66.71,1.39,60.97.35,54.1c-.23-2.29-.21-4.62,0-6.92.17-1.23.14-2.14.49-3.46.45-1.4,1.97-.92,1.98.49Z"/>
    <path class="cls-45" d="M19.62,48.17l1.71-.15c5.52,3.03,11.89,3.93,18.06,4.18.67.11.66.74-.01,1.89-.73,1.15-2.49,4.28-2.96,5.43l-.66-.07c-1.17-2.05-2.76-3.34-4.77-3.88-4.38-1.05-9.06-.94-12.84-1.98-.11-2.28,1.03-.19.34-.42-2.54-.85-1.12-5.39,1.15-5.01Z"/>
    <path class="cls-60" d="M84.33,29.89c1.72.56,1.55,1.46.02,2.2-.38,1.33-.96,1.85-2,2.74-1.34,4.23-.27,2.63.05,5.68.29,2.72-6.46,12.94-8.78,14.49-.67.45-.6.7-1.15.08.83-5.12,2.32-10.06,4.45-14.82-.79-.96-.26-1.14.96-1.18,1.66-2.66,2.94-5.47,3.83-8.45l1.14-.75c.42-1.34,1.06-1.36,1.48,0Z"/>
    <path class="cls-12" d="M25.55,44.71c.14.86.3,1.85.49,2.96,1.72,2.63,6.18,2.44,8.89,1.98,2.52-.12,4.99-.78,7.41-1.98.26-.75.93-.9.99,0,1.27-.55,1.5.1.49.99-1.49,1.16-3.43,3.83-4.45,5.43.28-1.52-.76-.93-1.71-.99-6.38-.4-12.54-1.55-18.05-4.94-.59-.45-.26-.94.99-1.48-.87-1.23.73-2.78,1.98-1.98,1.1-.16,2.09-.16,2.96,0Z"/>
    <path class="cls-32" d="M80.38,1.74c3.25,2.18,1.2,8.64-2.47,9.39-1.36,1.32-3.35,1.54-4.94.49h-.99c-3.15-1.1-5.16-5.55-4.45-8.4-.08-1.52,2.2-1.75,3.46-1.48.16-.43.33-.43.49,0l.6.34c-2.18,9.36,9.8,4.89,3.61.2l-.25-1.04c-1.63-.45-1.8-1.14,0-.99,2.33.38,2.83.62,4.94,1.48Z"/>
    <path class="cls-43" d="M60.12,49.65c2.54-1.48,4.92-3.26,7.15-5.34,1.53-.05,1.29.71.75,1.88-1.34,2.29-7.78,13.29-9.72,13.76-4.55,1.11.44-8.77.83-9.81.33-.23.66-.39.99-.49Z"/>
    <path class="cls-47" d="M121.38,39.77l-.93-.14c.3-4.05,1.39-8.1,3.27-12.14.09-1.57.46-2.75,1.12-3.53v-.49c1.11.76,4.94,2.55,4.86,4.11-.1,1.98-6.23,11.08-8.32,12.19Z"/>
    <path class="cls-12" d="M71.98,29.4c.62-.37,2.94-.48,3.22.09,1.09,2.25-9.24,14.44-11.83,16.01-.72.43-1.05.6-1.76.2-.14.43-.31.42-.49,0,.2-1.14-.26-2.13-.99-2.96l.05-.7c3.77-2.99,6.97-6.81,9.3-11l-.46-1.14c0-1,2.52-1.53,2.96-.49Z"/>
    <path class="cls-50" d="M107.54,3.71c.25.09.71-.08.99,0,1.64.37,1.79,4.37.49,5.43-.14.43-.3.42-.49,0-.16.42-.32.42-.49,0-.25,0-.41.34-.49.99.32.13.31.3,0,.49.59.32.91.81.99,1.48.63,1.53-.46,6.62-2.47,6.42-1.55,1.3-5.8,3.94-6.91.87-.97-2.68,2.6-3.51,3.94-1.85l2.96-.49c-.66-.11-1.08-.58-1.26-1.43-1.17-1.32-2.56-2.33-4.17-3.02.12-.59.78-1.08,1.98-1.48l.02-.68c1.18-.38,1.67-1.14,1.47-2.28.69-1.44.79-2.87.29-4.28l.69-1.15c.93.33,1.75.74,2.47.99Z"/>
    <path class="cls-45" d="M75.44,28.9l3.16.52c.35.41-2.39,6.87-3.13,7.56-.92.87-1.3.83-2.58.65-.11-.02,2.02-.54,1.55.66-1.36-.42-2.09.67-2.96.99-.89,1.65-9,10.23-10.26,9.33-1.03-.74-.39-2.17.38-2.91.09-.42-.07-1.01,0-1.48l.73.98c5.51-3.83,9.14-9.64,12.1-15.56-.52-.47-1.75-.25-2.47-.24-.47-1.33,3-1.49,3.46-.49Z"/>
    <path class="cls-5" d="M89.27,11.12c.67.73.36,1.01-.49.49-1.39,2.66-1.39,3.98,0,3.95.96.27.95.71,0,.99v1.98c-.32.43-.81.76-1.48.99-1.85-.48-3.78-.96-5.76-1.44-1.29-.79-1.35-2.42.33-2.01.94-.35,2.03-.48,2.96,0,.81.6.81-.06,0-1.98-.93-.55-1.92-1.05-2.96-1.48l-.23-.72c1.86-.54,2.27-.96,1.22-1.26-.62-.74-.35-.99.49-.49l.8-.97c2.66.37,2.79-1.95,2.16-3.97,1.48-.28,2.68-1.26,3.95-1.98,2.84-.07,1.32,7.67-.99,7.9Z"/>
    <path class="cls-4" d="M64.57,30.88l1.67.26c1.58,1.77-8.22,10.89-10.5,11.61l.44.97c-2.38.86-4.77.81-7.41,1.98-1.26.76-1.93-.43-.99-1.48.61-1.61,2.65-3.59,4.45-3.46l7.42-6.24c1.07-.66,1.72-1.21,1.96-1.67-.42-.12-.41-.29,0-.49.24-.9,2.04-1.49,2.96-1.48Z"/>
    <path class="cls-20" d="M97.66.75c1.97-.08,3.3.45,3.06,2.63-.1,1.98-.13,3.9-.1,5.76.27.79-.13,1.25-1.2,1.38,1.52-.37,2.58-.17,3.18.6-.38.8-1.27,1.03-1.98,1.48.18,1.32-1.75,2.8-2.96,2.96-.12,3.3-.62,4.12-1.48,2.47l-1.02-.77c-.1-2.49-.58-4.87-1.45-7.13-.31-1.36,1.05-1.38,2.2-1.34l.33-6.51.93-1.54c.16-.02.33.01.49,0Z"/>
    <path class="cls-36" d="M114.46,13.59c2.97.31,16.76,7.96,17.13,10.11.15.9-.52,1.52-1.49,1.18-.88-.31-6.07-4.44-7.9-5.45-2.46-1.35-5.11-2.42-7.74-3.37.06-.8.02-1.66,0-2.47Z"/>
    <path class="cls-5" d="M92.23,2.23l1.97-.46c.89.24.75,7.96-.98,8.36,1.36.29,1.7,2.67.49,3.46.17,1.04.17,2.03,0,2.96-1.22.84-.96,2.38-.69,3.63l-.79.81c-.5,1.85-2.94-.13-.99-.99l-.49-3.46c-2.68-.14-.63-3.94.99-1.48.71-1.25-.03-1.57-1.15-2.01l-.34-1.45c-.72.71-1.05.55-.99-.49.88-2.22,2.29-5.63.99-7.9.83-.47,1.03-.6,1.98-.99Z"/>
    <path class="cls-36" d="M105.07,35.82c1.25,1.31-5.71,12.67-8.89,12.34-1.26-1.42,5.44-13.22,8.89-12.34Z"/>
    <path class="cls-16" d="M91.74,54.59c7.3,2.52,12.04-3.72,15.08-9.38,1.28-2.39,3.03-8.62,3.97-9.86.45-.59,2.2-1.4,2.94-1.51,1.4-.22.33.53.25.99-.7.17-1.54.17-2.01.83-1.15,1.63-2.7,7.86-4.16,10.54-2.93,5.41-9.43,13.69-16.06,8.39Z"/>
    <path class="cls-43" d="M49.26,52.61c.58-.33.88-1.52,2.47-.98.66.51-7.12,13.01-10.37,11.85-1.16-1.18,4.76-8.25,5.92-9.38l1.98-1.48Z"/>
    <path class="cls-22" d="M67.04,30.39c1.02-.36,1.76-.26,2.21.29.51,1.12-7.8,12.29-10.61,11.56-.45.32-2.07,1.34-2.47,1.48l-3.46-.24c4.15-2.52,10.52-6.68,12.44-11.29.5-1.2.48-.49-.58-1.31.47-.56,2.04-1.16,2.47-.49Z"/>
    <path class="cls-11" d="M90.75,40.76c-2.34.93-3.08,4.55-4.36,6.75-2.39,4.1-9.94,16.81-15.12,16.45-2.24-.15-2.41-1.81-3.24-2.95,5.32,5.01,12.15-5.51,14.83-9.62,1.25-1.91,5.45-10.37,6.42-10.89.83-.45.89-.33,1.47.26Z"/>
    <path class="cls-36" d="M101.62,29.4c-.44,1.39-3.6,3.3-4.78,3.86-4.53,2.18-6.05,1.42-10.53,1.07.12-1.11,1.44-2.45,2.62-2.19l-.15-1.26c1.66-1.25,5.39-1.57,6.87-.33l2.02-.16c-.25-.91.57-1.08,2.47-.49.54-.12.98-.34,1.48-.49Z"/>
    <path class="cls-37" d="M97.17.75c.19,4.07,0,7.92-.99,11.85l-.49-2.96-1.97.49c-.14.43-.31.43-.49,0,0-2.31.69-4.38.5-6.69-.12-1.51.25-1.27-1.48-1.21,1.77-.73,2.8-1.2,4.94-1.48Z"/>
    <path class="cls-43" d="M80.87,29.4c1.71,1.37-1.02,6.59-2.25,8.13-.28.35-1.34,1.49-1.58,1.51-.4.03-.77-.04-1.11-.25-.55,0-.99-.31-1.48-.49-.66-.25-2-.4-1.97-.98,3.14.61,3.79-5.44,5.43-7.67l-2.46-.73c.95-.89,4.87-.83,5.43.49Z"/>
    <path class="cls-49" d="M69.51,1.24c.09-.89,1.95-.5,1.48.49-1.62.41-2.11.83-3.46,1.48.01.91-.31,1.15-.99.49.09,1.4-.72,2.38-1.98,1.48.2,1.46-1.81,2.92-2.96,1.98-.24,1.82-3.01,5.58-4.94,5.43.14.47-.02.64-.49.49.82,2.34-2.46,1.86-1.48,0,.13-1.29.95-3.16,1.98-3.95.5-.99,1.16-1.81,1.98-2.47.19-.3.29-.71.49-.99l2.47-1.48c.16-.17.33-.33.49-.49.9-.94,2.65-1.98,3.95-1.98.88-.78,2.51-1.29,3.46-.49Z"/>
    <path class="cls-61" d="M69.02,29.89c.63.25,1.95-.64,1.73.49-.53,2.76-7.74,11.64-10.62,12.35-.38.09-1.1-.29-1.48-.49,3.2-2.26,7.61-7.56,9.46-11.04.79-1.49-.28-.65-1.06-.81-.04-.81,1.51-1.24,1.98-.49Z"/>
    <path class="cls-45" d="M71.49,39.28c-.69,2.54-2.15,4.69-3.46,6.92.15-1.41-.29-1.2-1.24-.5-1.68,1.24-3.13,3.21-5.23,4.23-.95.46-1.36-.28-1.43-.27-.4-.18-.4-.84,0-1.98.26-.7.97-1.87.99-1.98h.49c-.09.42-1.09,2.55.24,1.97,1.66-.72,6.07-5.56,7.69-7.14.54-.53.93-1.64,1.04-1.72.32-.24.86.49.91.47Z"/>
    <path class="cls-32" d="M80.38,1.74c1.09.45,3,1.38,3.95,1.98,1.62,1.57,1.24,5.8-.99,6.42-.06.15-.38.31-.49.49-.16.43-.33.43-.49,0l-3.46.49c-.28.95-.71.94-.99,0,2.59-2.6,3.96-5.71,2.47-9.39Z"/>
    <path class="cls-20" d="M103.1,1.74c1.74,1.58,1.59,6.16-.99,6.92-.15,1.06-.72,1.25-1.48.49-2.81-1.56,1.31-8.46-2.96-8.4,3.07-.28,2.67.06,5.43.99Z"/>
    <path class="cls-11" d="M34.93,66.94c2.26,9.45,11.38,1.42,15.1-2.46,1.15-1.2,1.08-3.18,1.7,0-2.48,1.49-4.31,4.14-6.75,5.84-5.06,3.52-10.11,4.9-10.04-3.37Z"/>
    <path class="cls-57" d="M82.85,29.89c-.61,4.21-3.22,7.63-4.95,11.36l-.49-1.48-.49.5c-.14.43-.31.43-.49,0,.06-.41-.53-1.33-.49-1.48.08-.34,1.52-1.14,2.08-2.12,1.22-2.16,2.56-4.8,2.86-7.26.86-1.05,2.08-.94,1.98.49Z"/>
    <path class="cls-16" d="M124.83,23.96c-.03,4.49-2.62,8.76-3.63,13.42-.16.72-.75,1.91.17,2.39-3.26,1.73-1.14-4.44-.62-6.3.87-3.11,3.34-6.53,2.6-9.5.49,0,.99,0,1.48,0Z"/>
    <path class="cls-40" d="M67.53,60.52c-.82-.57-1.4-.66-2.25-.04-1.17.84-3.39,4.35-5.15,5.73-3.86,3-6.89,4.33-8.4-1.24,2.42,4.09,5.78,1.75,8.63-.51,1.25-.99,4.25-4.96,4.7-5.19,2.2-1.11,1.95.5,2.48,1.25Z"/>
    <path class="cls-60" d="M87.29,30.39c1.21-.51,1.7-.34,1.48.49.44.17.84.66,1.48.5-.33.58-.42,1.4-.76,1.95-.92,1.48-.65-1.07-1.21-.47-.42.45-.12,1.14-1.98,1.48-1.63-.13-2.09-.73-3.95.49.31-.97.62-2.26,1.09-3.13.58-1.09,2.04-.44.89-1.81.6-1.42,2.68-.96,2.96.49Z"/>
    <path class="cls-5" d="M86.3,5.19c.49.4,1.45.43,1.52.78.22,1.12-1.54,4.07-1.03,5.64-.96.17-.23-1.15-.52-1.44-.26-.26-2.28.09-2.94-.04.84-2.01,1.15-4.24.99-6.42.96.6,1.17.82,1.98,1.48Z"/>
    <path class="cls-43" d="M5.79,37.79c1.18.79-1.03,5.02-1.83,6.25l-1.13.17-1.98-.49c.51-1.89,1.52-4.2,2.47-5.93.98-.89,1.97-1.67,2.47,0Z"/>
    <path class="cls-20" d="M105.07,2.72c.69,2.42,1.48,4.37-.99,5.43-.21,1.5-1.24,1.8-1.98.49,1.71-1.88.78-4.59.99-6.92.87.29,1.44.8,1.98.99Z"/>
    <path class="cls-47" d="M36.41,59.53c-.12.28-.38,1.11-.49,1.48-.72-1.46-1.35-1.29-1.98,0,.44-2.62-1.07-4.02-2.96-5.43.07.02.35-.49,1.34-.19,1.76.52,3.95,2.13,4.09,4.15Z"/>
    <path class="cls-11" d="M72.47,55.08c-1.79-2.06,3.49-11.71,3.95-14.82h.49l-4.45,14.82Z"/>
    <path class="cls-6" d="M39.87,12.6c1.08.62,1.9,1.28,2.47,1.98-.97,1.84-4.05,2.87-5.93,1.98-.85-.6-.68-1.59.49-2.96,1.03-.36,1.93-.66,2.96-.99Z"/>
    <path class="cls-52" d="M7.76,34.83c1.26.76-.67,3.59-1.98,2.96h-2.47c1.02-1.87,2.27-2.93,3.46-4.45,1.12-.92,1.97.46.99,1.48Z"/>
    <path class="cls-58" d="M14.68,27.92c.64,1.4-1.53,3.57-2.96,2.96-1.41.57-1.95-1.04-.99-1.98,1.33-1.27,2.06-1.84,3.46-2.96,1.52-.21,1.54,1.03.49,1.98Z"/>
    <path class="cls-48" d="M47.77,44.22l.99,1.48c-.96.43-4.1,2.31-4.94,2.96l-.49-.99c.13-1.16,3.16-3.37,4.45-3.46Z"/>
    <path class="cls-38" d="M6.28,75.83c.54,1.56.7,3.37.49,5.43.19.65.33,1.32.49,1.98-.38-.14-1.07.33-1.53-.29-.16-.22-.91-3.08-.92-3.49l1.47-3.63Z"/>
    <path class="cls-55" d="M56.67,8.65c.22.16.22.33,0,.49-.79.77-1.41,1.76-1.84,2.96h-.63c-3.53-.21-5.22-1.76-.99-2.96,1.15-.22,2.24-.69,3.46-.49Z"/>
    <path class="cls-48" d="M11.72,30.88c.91,1.15-.73,2.68-1.98,1.98-1.71,1.09-2.66.29-1.48-1.48.91-1.01,1.52-1.56,2.47-2.47l.99,1.98Z"/>
    <path class="cls-10" d="M19.62,21.99c1.95-1.11,2.87.61,1.48,1.98.52,1.41-1.27,2.34-2.47,1.48-1.1-.18-1.76-.67-1.98-1.48,1.02-.73,1.92-1.3,2.96-1.98Z"/>
    <path class="cls-27" d="M53.21,9.15c-.87.78-1.47.02-1.44,1.19.05,1.83,1.97.87,2.43,1.78-.53,1.15-3.44,1.85-3.95.49-1.07.51-1.66-1.86-.99-2.47,1.36-.32,2.38-.69,3.95-.99Z"/>
    <path class="cls-33" d="M33.45,15.07c1.6-.68,1.48,1.7.49,2.47-.28,1.56-1.21,1.91-2.47.99-.61-.7-.9-1.62-.49-2.47.85-.37,1.63-.65,2.47-.99Z"/>
    <path class="cls-24" d="M23.57,22.48c-.12,1.6-1,2.14-2.47,1.48-.53-.94-.13-2.33-1.48-1.98.84-.54,1.62-.98,2.47-1.48,1.2-.86,2.41.95,1.48,1.98Z"/>
    <path class="cls-13" d="M41.85,12.11c1.11-.22,1.77.44,1.98,1.98-.09,1.39-.5,1.47-1.48.49-1.72-.31-3.38.5-2.47-1.98.73-.23,1.37-.31,1.98-.49Z"/>
    <path class="cls-55" d="M24.56,19.02c1.26-.72,2.39.84,1.48,1.98.25,1.45-1.32,2.46-2.47,1.48l-1.48-1.98c.84-.49,1.6-1.01,2.47-1.48Z"/>
    <path class="cls-27" d="M28.02,20.01c-.2,1.17-.92,1.53-1.98.99l-1.48-1.98c.98-.53,1.97-.99,2.96-1.48.82-.28,1.21,2.07.49,2.47Z"/>
    <path class="cls-53" d="M46.29,10.63c1.42.03,1.78,1.89.49,2.47-.15,1.45-1.17,1.7-1.98.49-1.77.23-2.24-1.76-.49-2.47.65-.18,1.32-.33,1.98-.49Z"/>
    <path class="cls-7" d="M15.67,24.95c.88-.25,2.01-.15,1.98.99.73,1.3-1.91,3.01-2.96,1.98l-.49-1.98c.67-.54,1.1-.7,1.48-.99Z"/>
    <path class="cls-61" d="M8.26,31.37c-.26,1.1.64,1.14,1.48,1.48,1,1.11-.75,2.73-1.98,1.98l-.99-1.48c.54-.69.65-1.05,1.48-1.98Z"/>
    <path class="cls-47" d="M75.44.25l-.48.24.48.74c-.28.93-.71.93-.99,0-2.11.23-7.07.55-8.26-.34,1.21-1.28,7.75-.89,9.24-.65Z"/>
    <path class="cls-14" d="M36.91,13.59l.48.24-.97,2.72c-.04,1.42-.61,1.61-1.48.49-.34-.94-.51-1.77-.49-2.47.84-.33,1.59-.68,2.47-.99Z"/>
    <path class="cls-42" d="M44.32,11.12c-.56.72.11,1.74.49,2.47.29,1.34-.07,1.48-.99.49-1.23.26-1.29-1.2-1.98-1.98.77-.23,1.49-.72,2.47-.99Z"/>
    <path class="cls-60" d="M7.27,75.34c-.1,1.28.14,2.7,0,3.95-.04.31-.88,1.2-.49,1.98-.56-1.95-.64-3.33-.49-5.43.02-.32-.04-.67,0-.99.69-1.2,1.26-.83.99.49Z"/>
    <path class="cls-9" d="M48.27,10.63c.88-.26,1.54,2.15.49,2.47-.06,1.49-1.63,1.34-1.98,0l-.49-2.47c.54-.14,1.42.13,1.98,0Z"/>
    <path class="cls-53" d="M30.98,16.06c.91.62,1.18,1.59.49,2.47-.19,1.37-.57,1.54-1.48.49-.94-.12-1.01-2.14,0-2.47.33-.15.64-.34.99-.49Z"/>
    <path class="cls-38" d="M12.7,73.36c-.58.61-2.15.98-2.96.49l.49-2.47c.6.56,2.15.73,2.47,1.98Z"/>
    <path class="cls-21" d="M66.4.85c.43.14.08.7-.34.88-.91.3-4.46,3.52-5.32,2.81.04-.04,1.23-1.43,1.7-1.84,1.2-1.05,2.69-1.43,3.96-1.85Z"/>
    <path class="cls-51" d="M16.66,23.96c1.01.26,2.27.19,1.98,1.48.17,1.32-.06,1.45-.99.49-.94-.28-1.53.12-1.98-.99.25-.19.5-.63.99-.99Z"/>
    <path class="cls-54" d="M49.26,10.13l.99,2.47c.15,1.38-.64,1.59-1.48.49l-.49-2.47c.2-.05.55-.39.99-.49Z"/>
    <path class="cls-43" d="M.35,54.1c-.49-3.26-.45-3.66,0-6.92v6.92Z"/>
    <path class="cls-30" d="M34.44,14.58c1.87-.32.16,1.03.49,2.47.45,1.26.02,1.35-.99.49.57-.81.19-1.85-.49-2.47.29-.12.6-.34.99-.49Z"/>
    <path class="cls-9" d="M29.99,16.55v2.47c.19,1.32-.03,1.43-.99.49-.82.28-1.21-2.07-.49-2.47.52-.25,1.07-.31,1.48-.49Z"/>
    <path class="cls-34" d="M29,19.52c.18,1.32-.04,1.43-.99.49l-.49-2.47c.33-.16.66-.34.99-.49l.49,2.47Z"/>
    <path class="cls-63" d="M74.45,1.24c-.5,1.26-2.18,1.74-2.96.49-.16.03-.34-.04-.49,0-.27-.61-.93-.5-1.48-.49-.43-.14-.43-.31,0-.49.04-.16-.06-.42,0-.49l4.94.99Z"/>
    <path class="cls-57" d="M69.51.75v.49c-.94,0-2.6.21-3.46.49v-.49c1.13-.38,1.84-1.42,3.46-.49Z"/>
    <path class="cls-22" d="M7.76,73.36c.07,1.16-.47,1.65-.49,1.98l-.99-.49c.09-.63.35-.99.49-1.48-.22-.64-.24-1.15.49-.99.73-.97,1.38.44.49.99Z"/>
    <path class="cls-12" d="M58.64,6.68c-1.09,1.72-.19,1.2-1.98,2.47.06-.14-.06-.36,0-.49.36-.8,1.04-2.25,1.98-1.98Z"/>
    <path class="cls-38" d="M7.27,72.37c-.14.32-.44.81-.49.99-1-1.03-.4-2.66.99-2.47.49.78.54,1.62-.49,1.48Z"/>
    <path class="cls-5" d="M61.61,4.21c-.74.8-5.37,5.95-5.73,5.04.71-.97,4.85-6.17,5.73-5.04Z"/>
    <path class="cls-47" d="M60.12,49.65c-.41.09-.53,1.8-.99.49.32-.85.69-1.67.99-2.47v1.98Z"/>
    <path class="cls-22" d="M8.75,72.87l-.99.49c-.02-.42-.03-.83-.49-.99.21-.48.44-.95.49-1.48.87.12.71,1.52.99,1.98Z"/>
    <path class="cls-17" d="M12.7,73.85c-1.26.41-2.06,1.14-3.46,0h.49l2.96-.49v.49Z"/>
    <path class="cls-52" d="M49.26,52.61l-1.98,1.48c1.02-1,.74-.77,1.98-1.48Z"/>
    <path class="cls-62" d="M120.39,70.89c-2.96,1.02-6.06,3.3-9.05,4.53-27.4,11.26-60.28,12.47-87.76.9-.07-.1.79-1.27.99-1.48,5.83,2.73,11.51,4.16,17.78,5.43,23.17,4.69,46.14,2.6,68-6.34,1.7-.69,6.99-3.95,8.07-4.04.64-.05,1.61.4,1.98.99Z"/>
    <path class="cls-60" d="M8.26,47.18c-.4.77-.66.81-.99,1.98-.29,1.64-.43,3.31,0,4.94.87,1.86,3.75,3.7,5.59,4.53,1.96.88,10.36,2.46,10.66,2.92.68,1.05-.59,2.25-.95,2.92-.61.21-1.3.77-2.06,1.69-2.04.71-11.63-5.38-13.25-7.17-.43-.48.25-.56.01-.27-.12.14-.3.24-.51.31-2.08-.41-2.69-3.82-3.02-5.78-.41-2.48-.37-7.94,2.03-9.03,1.6-.62,3.51,1.31,2.47,2.96Z"/>
    <path class="cls-36" d="M22.58,64.47c-1.34,2.53-2.96,3.57-4.94,5.43-.32-.03-.67.04-.99,0-3.27,1.01-9.3-6.75-10.34-9.6l.46-1.27c-.09-1.71.26-.78,1.04-.3,2.73,1.68,9.47,6,12.28,6.52.97.18,1.64-2.13,2.49-.79Z"/>
    <path class="cls-44" d="M48.76,15.07l.81.78c-.48,4.27-1.84,7.24-5.75,9.1-1.03.12-3.24.71-4.45.99-3.58.82-7.39-1.91-9.39-4.45-.28-1.45,1.71-2.23,2.47-.99l1.97-.17c3.94,4.33,10.36,1.25,10.94-4.2l.92-.57c.05-1.56,1.55-1.66,2.47-.49Z"/>
    <path class="cls-16" d="M57.65,29.4c.69,1.51.69,2.33,0,2.47.32,1.25-.17,2.73-1.48,4.45l.24,1.1-4.19,3.34c-1.4,1.2-2.98,2.32-4.45,3.46-1.11.86-3.46,2.91-4.45,3.46-.2.11-.78-.11-.99,0-.83.32-.95.3-.49-.49,5.45-3.04,17.12-13.82,13.34-20.75,1.73-1.07,4.03,1.57,2.47,2.96Z"/>
    <path class="cls-47" d="M36.41,34.83c.01.86-1.66,1.43-2.47,1.48-.97.63-1.95,1.29-2.96,1.98-1.89,1.45-3.63,3.02-5.21,4.69l-.72-.25c.61,1.31-1.25,2.54-2.47,1.98-.62.62-1.42,1.31-1.98,1.98-1.67,1.82-2.29,1.2-2.47-.49,4.11-4.65,12.05-9.88,17.78-12.35,1.29-.5,1.5.07.49.99Z"/>
    <path class="cls-52" d="M11.72,42.73c-.36.45-.87.83-.99.99-1.31-.31-2.47-1.3-3.46-2.96-1.35-1.14,1.41-5.06,2.96-4.45,1.27-1.28,4.13,2.26,3.91,3.61l-2.43,2.81Z"/>
    <path class="cls-15" d="M46.29,30.88c1.16-.13,2.27-.55,3.45-.49.33.83-.38,1.14-.49,1.48-.14.38-.31.37-.49,0-1.92,1.12-3.73,2.11-5.43,2.96,1.31.61.94,1.24-.49.99.4-1.59-1.98-1.06-2.67-.94-1.28.22-5.09,1.39-6.22,1.93-.43-.14-.43-.31,0-.49.81-.44,1.47-1.03,2.47-1.48l.34-.75c3.12-1.25,6.3-2.32,9.54-3.2Z"/>
    <path class="cls-39" d="M50.74,14.58c1.45.94.17,5.47-.59,6.9-1.03,1.96-1.51,2.58-3.86,2.98-.6.13-1.26.29-1.98.49-.16.02-.33-.02-.49,0l-1.23-.49c4.56-1.03,5.51-5.38,6.16-9.39.42-1.38.96-1.52,1.98-.49Z"/>
    <path class="cls-20" d="M59.63,27.92c.15.94.32,1.93.49,2.96.43.14.43.31,0,.49.48,2.94-2.58.45-2.47-1.98-1.08-1.75.42-1.3-2.47-2.96-.58-.33-1.37-.76-1.98-.99-1.7-.85-1.87-2.34-.49-4.45h1.12c.72.55,6.31,5.4,6.25,5.82s-.13.79-.46,1.09Z"/>
    <path class="cls-60" d="M44.32,34.83c1.34-.26,2.03-.34,1.71,1.15-.28,1.31-6.97,5.76-8.62,5.27-1.11,1.2-4.01,3.53-4.94,1.98,3-2.7,8.27-4.83,10.37-7.41.25-.31.5-.55.49-.99.34-.79.77-.83.99,0Z"/>
    <path class="cls-36" d="M18.14,46.19h.66c.57,1.3.52.88,1.81.49-.35.42-.69,1.01-.99,1.48-.96,1.54-2.8,3.53-.26,4.95l-1.22.48c-5.36-1.47-2.44-4.65,0-7.41Z"/>
    <path class="cls-10" d="M36.41,42.73c-.11-.49.22-.99.99-1.48,1.95-1.05,5.83-2.83,7.18-4.42.86-1.01,1.15-1.32-.27-2l-.16-.58,4.6-2.38h.49c-1.88,5.5-7.68,8.86-12.84,10.87Z"/>
    <path class="cls-63" d="M29,21.99c.87-.03,7,3.8,7.03,4.21.02.24-.04.48-.12.72-.83.25-2.14.69-2.96.99-2.01.21-6.16-2.97-5.93-4.94-.24-1.46.95-2.05,1.98-.99Z"/>
    <path class="cls-28" d="M20.61,26.93c.91.29,1.63,1.12,2.18,2.49,1.23.71,1.99,1.53,2.27,2.45-.96.59-2.03,1.33-2.96,1.98-1.99.03-3.68-3.29-4.45-4.94-.66-1.44,1.86-2.98,2.96-1.98Z"/>
    <path class="cls-45" d="M10.73,43.72c-.87,1.21-1.58,1.74-2.47,3.46-.04-1.42-1.79-1.77-2.47-2.96-1.41-.83-.12-3.69,1.48-3.46,1.97-.25,2.52,1.64,3.46,2.96Z"/>
    <path class="cls-46" d="M27.03,22.98l5.93,4.94c-.7.25-1.77.69-2.47.99-2.08-.22-4.67-3.06-5.43-4.94.09-1.52.76-1.92,1.98-.99Z"/>
    <path class="cls-41" d="M22.09,33.84c-.47.32-1.13.73-1.48.99-2.27.71-4.12-2.74-4.94-4.45-.27-1.53.62-2.23,1.98-1.48,2.08.63,2.99,3.48,4.45,4.94Z"/>
    <path class="cls-58" d="M14.68,31.37c1.47-.67,4.72,3.58,3.95,4.94-.61.48-1.58,1.15-1.98,1.48-1.3.27-4.25-3.13-3.95-4.45-.59-1.34.69-2.83,1.98-1.98Z"/>
    <path class="cls-10" d="M26.53,30.88c-.26.14-.97.67-1.48.99-2.69-.79-3.87-2.37-4.45-4.94-.29-1.43.27-1.8,1.48-.99.21-.13.42-.24.64-.27.34-.05,4.59,4.41,3.8,5.21Z"/>
    <path class="cls-29" d="M15.67,30.39c.76.1,2.31,1.58,2.81,2.09.14.14-.31.67.14,1.11.09.09,1.52.04,1.99,1.25-.63.46-1.37,1.01-1.98,1.48l-3.95-4.94c-.59-1.25-.31-1.45.99-.99Z"/>
    <path class="cls-34" d="M29.99,21.49c3.16,2.18,5.38,3.88,9.39,4.45-.94.22-2.45.69-3.46.99l-6.92-4.94c-.19-1.33.03-1.44.99-.49Z"/>
    <path class="cls-61" d="M15.67,38.78c-1.53,1.36-2.38,2.77-3.95,3.95.27-.34,1.96-2.55,1.96-2.72,0-.25-2.77-3.4-3.44-3.7-.94-1.18.05-2.43,1.48-1.98,1.3-.27,4.25,3.13,3.95,4.45Z"/>
    <path class="cls-56" d="M28.51,29.89c-.62.31-1.41.67-1.98.99l-4.45-4.94c-.42-1.38.36-1.9,1.48-.99h.65c1.29,1.86,2.72,3.51,4.29,4.94Z"/>
    <path class="cls-48" d="M16.66,37.79c-.27.23-.61.65-.99.99l-3.95-4.45c-.47-1.3-.27-1.55.99-.99l3.95,4.45Z"/>
    <path class="cls-60" d="M46.29,30.88c-3.05,1.58-6.79,2.55-9.88,3.95l-.49-.99c3.51-1.51,6.56-2.52,10.37-2.96Z"/>
    <path class="cls-55" d="M25.05,23.96l5.43,4.94c-.32.14-.66.34-.99.49-2.12.09-5.08-3.05-4.94-4.94-.62-.73-.34-1,.49-.49Z"/>
    <path class="cls-4" d="M30.98,38.29c.15-.31.31-.3.49,0-2.8,1.93-6.2,5.69-5.43,9.39-.8-1.23-.42-1.72-.49-2.96-1.19-.23-.89-1.1-.49-1.98,1.86-1.6,3.53-3.57,5.93-4.45Z"/>
    <path class="cls-25" d="M24.56,24.46c1.36,2.09,2.59,3.87,4.94,4.94-.32.15-.67.33-.99.49-2.35-1.07-3.58-2.85-4.94-4.94-.11-1.01.3-1.22.99-.49Z"/>
    <path class="cls-55" d="M52.71,21c0,1.49-.27,3.08.49,4.45-.42-.16-1.07-.39-1.48-.49-.78,0-1.44-.16-1.98-.49l-.12-1.11c1.37-1.54,2.05-3.52,2.02-5.93l1.07-.37c.93,1.31.97,2.67,0,3.95Z"/>
    <path class="cls-60" d="M41.85,47.18l.49.49c-1.97,1.01-5.1,3.35-7.41,1.98,2.06-.36,5.13-1.47,6.92-2.47Z"/>
    <path class="cls-44" d="M46.29,24.46c2.02-1.26,3.17-1.26,3.46,0,1.1.11,1.29.32,1.98.49-2.41.16-5.04-.22-7.41,0,.37-.74,1.32-.48,1.98-.49Z"/>
    <path class="cls-57" d="M37.4,41.25c-.36.41-.63,1.14-.99,1.48-.79.74-6.39,3.17-5.43,1.24.32-.64,1.28-.57,1.48-.75,1.47.62,3.3-1.09,4.94-1.98Z"/>
    <path class="cls-52" d="M33.94,36.31v.49c-.3.14-2.15,1.26-2.47,1.48h-.49c.52-1.56,2.02-1.46,2.96-1.98Z"/>
    <path class="cls-45" d="M7.27,54.1c-.98-2.09-.56-2.98,0-4.94v4.94Z"/>
    <path class="cls-18" d="M124.34,67.93c.27-.65.7-2.12.99-2.96l1.67-2.42c7.54-6.38,13.24-16.83,8.29-26.44l-.09-1.76c.32-1.04.73-2.08.99-2.96,9.51,13.46.36,28.98-11.86,36.55Z"/>
    <path class="cls-62" d="M104.09,23.96c.92-.63,1.2-.36.49.49-1.06.92-2.58,1.68-3.46,2.47-1.17.91-2.16,1.24-2.96.99-1.61.86-2.6.86-2.96,0l-5.43.49c-1.57,1.02-4.44,1.2-5.43-.49-3.77-.43-7.6-.56-11.36,0-2.4,1.03-4.98,1.86-7.75,2.5-1.34.71-2.55,1.04-3.61.96-.42,1.2-1.2,1.3-1.48,0v-.49c-.38-.9-.41-2.13,0-2.96.28-1.13,2.15-2.08,2.96-.99-.02-1.75,3.25-2.02,4.45-.99,1.94-1.93,4.77-1.86,7.41-.99,1.15-.61,2.63-.61,4.45,0,.62-.97,1.35-.97,1.98,0l5.43.49c.41-1.41.75-1.2,1.48,0,4.29.14,8.52-.43,12.69-1.7l1.14.71c.23-1.48,1.11-1.76,1.98-.49Z"/>
    <path class="cls-31" d="M110.01,11.62c-.39,4.17-2.51,10.31-5.43,12.84.09-.29-.29-.51-.49-.49-1.42.05-.83-2.53-.18-1.64l-.31-.83c-.34-1.29,1.18-2.84,2.47-2.96,1.23-2.09,1.67-5.19,2.47-6.42-.79-.99,1.12-1.55,1.48-.49Z"/>
    <path class="cls-50" d="M108.53,3.71c.54.17,2.13.2,2.46.53.12.12-.21,3.3-.26,3.48-.23.91-1.17,1.31-1.21,1.43-.14.43-.31.43-.49,0l-.49-5.43Z"/>
    <path class="cls-31" d="M101.12,26.93c-.76.68-1.5,2.07-2.47,2.72l1.48.24c-.95.21-1.39.34-2.47.49-5.03.78-3.25-2.1.49-2.47.98-.62,1.48-1.28,2.96-.99Z"/>
    <path class="cls-35" d="M110.01,11.62c-.39.08-1.3.22-1.48.49-1.73.31-.91-1.05-.99-1.48.15-.32.31-.32.49,0,.09-.45.26-.43.49,0,.23-.82.38-1.27.99-.49,0,.26.54.95.49,1.48Z"/>
    <path class="cls-44" d="M109.52,9.15c-.07.18,0,.69,0,.99-.33.12-.67.41-.99.49-.43-.14-.36-1.14,0-1.48.15.04.34-.03.49,0h.49Z"/>
    <path class="cls-47" d="M125.33,64.96c3.4-9.95,6.81-20.57,9.88-30.63,7.48,10.63-.5,24.38-9.88,30.63Z"/>
    <path class="cls-62" d="M54.2,12.11c.84.06.64.62,0,.99-.23.92-.56,1.25-.99.99-.21,1.46-1.74,1.79-2.47.49-.66.17-1.31.32-1.98.49-.73.19-1.52.23-2.47.49-.74,1.6-1.98,1.94-3.46.99-1.79,2-4.27,2.78-6.92,2.47-.24,2-1.83,1.76-3.46,1.48-.82.35-1.54.55-2.47.99-.34.16-.66.33-.99.49-.7.34-1.29.63-1.98.99-.65.34-1.2.55-1.98.99-.18.1-.32.39-.49.49-.29.17-.64.28-.99.49-.53.32-.98.66-1.48.99s-.98.64-1.48.99c-1.05.72-1.81,1.09-2.96,1.98-.7.53-1.2.83-1.98,1.48-.43.36-.67.7-.99.99-.82.75-1.24,1.2-1.98,1.98-.31.33-.63.57-.99.99-.78.9-.93,1.25-1.48,1.98-1.5,1.96-1.74,2.03-2.96,4.45-.79,1.56-.92,1.65-1.48,3.46-1.94,6.22-1.84,8.83.99,14.82,1.43,3.02,6.58,10.43,9.88,10.87-.97,3.33-6.45-2.57-7.66-3.95-2.73-3.08-5.35-7.8-6.17-11.86-.41-2.65-.41-5.29,0-7.9.05-.63-.11-1.42,0-1.98.07-.35,2.62-5.84,2.96-6.42.28-.47,1.66-2.55,1.98-2.96.29-.38,1.4-1.33,1.98-1.98.46-.51,1.42-1.43,1.98-1.98.84-.82,2.25-2.38,2.96-2.96.53-.44,2.13-1.37,2.96-1.98.29-.21.7-.29.99-.49.64-.45,1.77-1.05,2.47-1.48.83-.51,1.62-1.01,2.47-1.48s1.59-1.03,2.47-1.48c.65-.34,1.31-.67,1.98-.99.33-.16.65-.34.99-.49s.65-.35.99-.49c.42-.18.98-.28,1.48-.49.8-.33,1.66-.67,2.47-.99.38-.15.71-.39.99-.49.48-.18.99-.32,1.48-.49,1.91-.68,3.99-1.4,5.93-1.98.53-.16,1.07-.38,1.48-.49.43-.12.79-.44.99-.49.62-.17,1.34-.34,1.98-.49.55-.13,1.4.12,1.98,0,.43-.09.92-.39,1.48-.49,1.32-.25,2.56-.71,3.95-.49Z"/>
    <path class="cls-43" d="M2.82,54.1c-.5-2.45-1.09-5.57,0-7.9-.21,2.6.15,5.29,0,7.9Z"/>
    <path class="cls-20" d="M72.97,27.92c3.76-.56,7.59-.43,11.36,0,1.97,0,3.85.47,5.43.49h.49c.67,1.77-1.57,2.01-2.96,1.98-.81-.2-2.01-.3-2.96-.49-.44-.09-1.02.07-1.48,0s-1.02-.38-1.98-.49c-1.99-.24-3.3-.5-5.43-.49-1.06,0-2.69-.37-3.46.49-1.5.02-1.88.31-2.96.49-.9.15-1.28.32-1.98.49-.81.2-1.66.2-2.47.49-1.01.36-1.96,1.08-2.96,1.48-1.47.87-1.77-.82,0-.99,3.91-1.06,6.63-3.05,11.36-3.46Z"/>
    <path class="cls-48" d="M25.55,44.71c-1.02.89-2.3,1.67-2.96,0,.66-.66,1.74-1.34,2.47-1.98,1.13.87.47,1.48.49,1.98Z"/>
    <path class="cls-23" d="M82.85,10.63c1.15-.11,4.42-.05,2.97,1.48-.29.3-1.62.02-2.58.07-3.29,0-6.4,2.07-9.43,1.97-2.23.04-3.99.68-5.28,1.92l.49,3.46c.65.31.66.7,0,.99.4,1.37.9,3.84-.99,3.95-.12.62-.33.81-.74.49-2.49-1.95-3.93-3.82-5.76-6.32.52,1.82.38,3.1-.41,3.85.95.29.94.73,0,.99,1.38,4.18-3.6,2.85-1.98-.49-1.05-.41-1.33-1.61,0-1.98-1.28-2.92-1.39-5.02-.49-7.9.88-1.45,2.33-.88,4.33,1.72l3.16,3.92c-.57-2.07-.64-6.31,1.89-6.63.43-.88,1.36-1.03,2.79-.46l2.15-.04c1.66-.15,3.31-.34,4.94-.49.32-.03.66.03.99,0l3.46-.49c.16,0,.33.02.49,0Z"/>
    <path class="cls-19" d="M74.45,1.24c.32,0,.67-.04.99,0,5.59.69,2.87,9.15-2.34,7.03-2.94-1.19-2.13-4.07-1.61-6.54,1.14-.24,1.57-.51,2.96-.49Z"/>
    <path class="cls-32" d="M71.98,11.62c.33,0,.66,0,.99,0-1.56.14-3.18.41-4.94.49-.42.17-.75.17-.99,0-1.7.13-3.64-5.71-2.47-6.92.64-.44.95-.92,1.98-1.48l.62.36c.61,3.09,1.59,6.29,4.82,7.55Z"/>
    <path class="cls-32" d="M67.53,3.22c.6,3.7,1.79,5.83,4.45,8.4-4.3-.11-4.6-4.55-5.43-7.9.34-.19.64-.33.99-.49Z"/>
    <path class="cls-2" d="M106.06,17.05l-2.96.49c-1.1.21-2.34.23-3.46.5,1.93,5.22,3.92-1.04,6.42.49-.52.88-1.45,2.68-2.47,2.96-.34,1.16-.72,1.45-1.05.28l-1.92-.28c-1.38.89-2.61.15-2.47-1.48-1.18-.47-1.34-1.95-.49-4.45.99-2.08,1.23-1.86,2.96-2.96,2.33-1.15,6.05,2.57,5.43,4.45Z"/>
    <path class="cls-59" d="M104.09,8.16c2.42,2.17.74,2.41-1.48,2.96-1.1.28-5.44,1.12-4.23-1,.36-.63,1.62-.76,2.26-.98.49-.17.99-.32,1.48-.49.55-.19,1.16-.14,1.98-.49Z"/>
    <path class="cls-40" d="M106.06,17.05c-.05.15.08.37-.25.48h-2.71c.8-.15,1.78-.92,2.96-.48Z"/>
    <path class="cls-1" d="M108.04,9.15c.41.13.36.73,0,.99-.15.32-.31.32-.49,0,0-.49-.58-1.4-.49-1.48.86-.28.93.48.99.49Z"/>
    <path class="cls-3" d="M108.53,10.63c-.15.04-.34-.03-.49,0-.33-.15-.32-.31,0-.49v-.99c.17.02.35-.04.49,0v1.48Z"/>
    <path class="cls-31" d="M108.04,10.63h-.49c-.03-.15,0-.33,0-.49h.49v.49Z"/>
    <path class="cls-5" d="M81.72,12.28c1.15,0,2.45.31,3.6.33l-.49,1.48-.28.61c-3.11-.12-5.28,1.67-3.18,4.33,2.54,1.08.94,2.1-1.21,1.14-.64,1.18-1.36.5-1.26-.65l-1.03-.37c-1.19-4.1-4.86-3.81-7.37-1.11-.37,1.07-.37,2.05,0,2.96,1.31.16,1.26.61,0,.99-.19,1.29-.54,1.22-.99,0l-.49-1.48c0-.33.01-.66,0-.99l-.49-3.46c-.12-.68-.09-1.34-.5-1.97,4.54-.62,9.06-1.84,13.69-1.81Z"/>
    <path class="cls-37" d="M88.77,18.53l.49,1.48.68-.03c.43,1.24,1.36,1.91,2.77,2.01.54-1.31,1.3-.71.49.49.68,1,.03,1.41-.92,1.85l-.07,1.11h-3.95c-.49-.03-.99.03-1.48,0l-5.43-.49c-.66,0-1.32,0-1.98,0-1.54-.06-2.69-.38-3.46-.99.09-.93,1.32-1.87,1.98-.99.92-1.45,1.94-1.31,2.96,0,.09-.44.26-.43.49,0,1.28.47,2.65.31,3.95,0,.85-1.1,1.14-2.14.87-3.13l1.1-.32c.47-1.27.42-1.88,1.48-.99Z"/>
    <path class="cls-2" d="M84.82,14.08c1.11.27,2.27,2.4.73,2.96-1.13.41-.59-.8-.73-.98-.95-.45-1.99-.35-2.96,0-2.2,1.92,5.56,1.45,5.43,3.46-.49,1.33.33,2.41-1.98,3.46-1.3.31-2.67.48-3.95,0-.16,0-.33,0-.49,0-1.54.16-2.33-2.58-1.35-3,1.43.46,3.06.89,1.84-.95-4.54-1.43-.2-5.84,3.46-4.94Z"/>
    <path class="cls-8" d="M90.26,11.62l.33,1.43c1.46.37,1.84,1.04,1.16,2.03-.33.12-1.04-.09-1.48,0,.11.51.46.93.49,1.48l.49,3.46c.18.58-.36,1.22.99.99,1.22-.6,1.43.09.49.99-2.44,1.25-2.83-.04-3.46-1.98l-.49-3.46c-.06-.31.07-.7,0-.99-1.28-.1-1.28-1.42,0-3.95.07-.17.43-.32.49-.49.48-.02.7.13.99.49Z"/>
    <path class="cls-31" d="M88.77,11.62c.82,1.97-.96,2.56-1,2.72-.23.92.94.96,1,1.23-3.09.46-.65-2.46,0-3.95Z"/>
    <path class="cls-31" d="M89.27,20.01c-.17-.52-.33-.76-.49-1.48-.13-.56.11-1.38,0-1.98l.49,3.46Z"/>
    <path class="cls-26" d="M84.82,16.06h-2.96c.81-.7,2.24-.94,2.96,0Z"/>
    <path class="cls-58" d="M61.61,32.86c0,.07.57-.05.28.48-.36.65-4.15,4.25-4.99,4.94l-4.68,2.48c1.01-.86,2.39-3.1,3.95-4.45.14-1.28,1.6-3.48,2.96-2.47-.44-1.4,1.67-2.09,2.47-.99Z"/>
    <path class="cls-31" d="M60.12,31.37c.45-.01,1.14.09,1.48,0-.72.68-.02.9,0,.99.03.14,0,.34,0,.49-.65.3-1.97.64-2.47.99-1.45.82-1.88-.65-1.48-1.98.17-.65-.12-1.73,0-2.47.41.67.92,1.93,1.51,2.27.62.36.9-.3.96-.3Z"/>
    <path class="cls-50" d="M98.16,20.01c1.87,2.94-2.96,6-5.93,5.43l-1.97-.74c.73-1.08,2.16-1.32,2.96-2.23-.25-1.21-.34-3.48.99-3.95.71.41,1.37.24,1.98-.49,1.41.33.76-.96,1.48-2.47-.37,1.47.57,3.15.49,4.45Z"/>
    <path class="cls-59" d="M93.71,10.13c2.04-.2,1.18.05,1.5,1.19.42,1.48.89,5.15.97,6.71.09,1.83.68,4.67-1.48,3.95l-.5-3.46c-.93-.15-.87-.54,0-.99-.33-1.28-.5-2.6-.49-3.95-.08-1.1-.49-2.06-.49-3.46h.49Z"/>
    <path class="cls-50" d="M93.71,16.55c.19.18.36.51.49.99,0,.33.02.66,0,.99-.11,1.81.37,2.41-.99,3.95.11-.45-.44-.41-.49-.49-.06-.09-.45-.86-.49-.99-.63-1.8-.78-5.51,1.48-4.45Z"/>
    <path class="cls-31" d="M90.26,11.62c.34.43.37,1.05.65,1.35s1.17.06,1.28.17c.24.26.24,1.68-.44,1.94.5-2.52-2.21-.36-1.48-3.46Z"/>
    <path class="cls-31" d="M94.21,17.54c-.47-.15-.46-.57-.49-.99-.08-.98.05-1.98,0-2.96.08,1.12.47,2.36.49,3.95Z"/>
    <path class="cls-31" d="M91.24,20.01c-.49-1.6-.41-1.89-.49-3.46l.49,3.46Z"/>
    <path class="cls-20" d="M98.16,27.92c-2.17,1.38-4.83,3.07-.49,2.47-2.88.41-5.86.72-8.89.49-.41-.16-1.08-.4-1.48-.49l2.96-1.98c1.61-.31,3.25-.48,4.94-.49.95-.11,2,.08,2.96,0Z"/>
    <path class="cls-5" d="M61.61,7.17l1.1.53c.41,1.7,1.36,3.18,2.32,4.62.74-1.01,1.22-1.31,2.02-.22.3-.05.67.02.99,0-3.32,1.01-.04,6.15-.99,8.89-1.93-1.13-6.14-8.69-8.39-7.9-.25,1.02-.37,2.1-.33,3.23l-.65-.26-.99-3.46c1.8-2.08,2.54-3.41,4.94-5.43Z"/>
    <path class="cls-5" d="M64.57,5.19l2.47,6.92c-2.26.37.03,1.61-1.47,2.96-1.44-2.59-3.53-4.8-3.96-7.9,1.14-.97,1.91-1.27,2.96-1.98Z"/>
    <path class="cls-50" d="M54.69,13.1c.21.33-.44,2,1.48,0,.89.17,1.38,1.16,1.48,2.96,1.08-.02-.12-2.67.99-2.96-.06,2.62.16,5.31.49,7.9h-1.14s-2.37-4.34-2.37-4.34c-1.97-1.14-2.45-2.32-1.43-3.57.15-.43.32-.43.49,0Z"/>
    <path class="cls-11" d="M56.67,9.15c-.58,1.26-.76,2.95-1.98,3.95-.03-.05-.33.03-.49,0,.02-.32-1.06,1.42-1,1.15.04-.17,2.46-4.91,2.6-5,.32-.23.78-.04.87-.1Z"/>
    <path class="cls-50" d="M56.67,12.6c1.51.63.94,2.08.99,3.46l-1.48-2.96c.16-.17.35-.32.49-.49Z"/>
    <path class="cls-5" d="M82.35,10.63c-.72.04-2.34.39-3.46.49l3.46-.49Z"/>
    <path class="cls-33" d="M46.29,15.57c.04,5.56-5.55,9.52-10.73,7.02-1.19-.57-1.68-1.97-3.11-2.08,1.19-.5,2.21-1.01,3.46-1.48,2.78.17,4.92-.5,6.92-2.47,1.16-.36,2.29-.66,3.46-.99Z"/>
    <path class="cls-50" d="M59.14,33.84c-.59.41-2.28,1.88-2.96,2.47-1.08-.88,1.2-3.32,1.48-4.45l1.48,1.98Z"/>
    <path class="cls-15" d="M48.76,31.87c-.39.86-3.71,2.76-4.45,2.96-.22.06-.69,0-.99,0-.13,0-2.54-.57-2.47-.98,3.03.5,5.21-1.1,7.9-1.98Z"/>
    <path class="cls-27" d="M53.21,14.08c1.25.95,1.23,2.53-.49,2.96-.52,2.76-.23,5.75-2.96,7.41-1.05-.1-2.37-.03-3.46,0,3.72-2.32,3.69-6.06,4.45-9.88.8-.21,2.01-.34,2.47-.49Z"/>
    <path class="cls-37" d="M52.71,17.05c1.31-.94,5.25,3.69,5.83,4.96.91,1.98-.78,3.05.03,1.02.03-.08.27-.08.57-.06.41,2.33,2.18,3.26,1.98.49,1.43.14,2.5,2.15,1.98,3.46-.71.19-1.78,1.3-2.96.99-.14.43-.31.43-.49,0-.3-1.07-6.2-5.07-6.92-6.92,0-1.31,0-2.64,0-3.95Z"/>
    <path class="cls-31" d="M60.12,30.88c-.98-.61-.28-2.2-.49-2.96h.49v2.96Z"/>
    <path class="cls-20" d="M61.11,22.48c-.37-1.92-.94-3.97-.25-5.92,1.71.97,5.32,7.19,6.3,7.79.34.2.56.09.86.11,1.06-.14,1.55-.96,1.48-2.47.3.06.77-.09.99,0,1.16-.2,2.14.46,2.96,1.98,1.12.07,1.61.4,1.48.99-2.47.16-4.98.52-7.41.99-1.93-.69-3.87-1.47-5.8-2.34l-.62-1.12Z"/>
    <path class="cls-50" d="M100.63,21.49c2.77.3,3.25.76,1.48,2.96-6.33,1.76-7.6,1.32-13.83.99,1.28-.1,2.7.15,3.95,0,2.39-.28,5.78-2.95,5.93-5.43.79.56,1.6,1.05,2.47,1.48Z"/>
    <path class="cls-20" d="M67.53,25.94c-1.25.24-3.23.67-4.45.99-.87-.78-1.68-2.37-1.98-3.46-.07-.27.06-.68,0-.99,2.25.53,5.09,1.47,6.42,3.46Z"/>
    <path class="cls-31" d="M103.59,21.49c1.83-.33.46,1.13.49,2.47-.6.04-1.36.32-1.98.49-.91-1.07-.04-1.53.49-2.46-.88.18-1.3-.17-1.98-.5.87-.14,2.22.21,2.96,0Z"/>
    <path class="cls-16" d="M84.33,27.92c-3.61,0-7.86-.3-11.36,0,3.41-.83,8-.83,11.36,0Z"/>
    <path class="cls-21" d="M75.93,23.96c.83.12,2.67.6,3.46.99-1.47.02-2.98-.1-4.45,0-.48-.32-.96-.76-1.48-.99.19-1.17,2.05-1.04,2.47,0Z"/>
    <path class="cls-21" d="M95.2,27.92c-1.73.21-2.88.52-4.94.49-.16,0-.33,0-.49,0,1.31-.1,3.72-.26,5.43-.49Z"/>
    <path class="cls-31" d="M86.8,25.45c-1.74-.12-4.09.5-5.43-.49,1.71,0,4.13-.42,5.43.49Z"/>
    <path class="cls-20" d="M54.2,13.1c-.22,2.99.39,1.4.99,1.8,1.92,1.26,2.78,4.23,3.95,6.11.08.62-.1,1.38,0,1.98l-.49,1.23-.71-1.75-5.22-5.4c.19-.98.61-1.92.49-2.96.35-.12.51-1,.99-.99Z"/>
    <path class="cls-14" d="M42.84,16.55c-1.24,3.31-3.94,3.94-6.92,2.47,2.33-.88,4.53-1.72,6.92-2.47Z"/>
    <path class="cls-21" d="M69.51,21.99c.09,2.06.57,2.63-1.48,2.47,1.56-.65.96-2.46.99-3.95.64.26.47.93.49,1.48Z"/>
    <path class="cls-31" d="M69.02,19.52l-.49-3.46c.24,1.36.43,1.88.49,3.46Z"/>
    <path class="cls-19" d="M75.81,3.33c2.99,2.19-4.32,6.38-2.34-.61.6.48,1.93.3,2.34.61Z"/>
    <path class="cls-16" d="M104.08,16.06c-.69-.44-4.91.85-4.92-.24-.04-2.24,4.9-2.88,4.92.24Z"/>
    <path class="cls-2" d="M78.89,19.52c.99,2.02.66,3.17-.99,3.46-.43.07-1.23,1.07-1.98.99-.77-.11-1.67.08-2.47,0-.28-.12-.93.07-1.46-.25-.66-.39-.97-1.5-1.5-1.73v-.99c-.38-.91-.38-1.9,0-2.96.13-.49-.27-.83.33-1.51,2.69-3.06,7.88-1.16,8.07,2.99Z"/>
    <path class="cls-50" d="M81.36,19.02c.84.26,4.7.06,4.44,1.72-.1.65-1.41,1.23-2.18,1.24-1.09,0-5.73-4.35-2.76.99-.81.04-2.81-.03-2.96,0,2.49-5.12-1.35-.73-1.79-.57-2.22.78-4.61-1.46-3.64-2.39.23-.22,5.57-.5,6.42-.5.34,0,2,1.02,2.96.49l-.49-.98Z"/>
    <path class="cls-31" d="M70.5,21c-1.25-.88-.22-2.14,0-2.96v2.96Z"/>
    <path class="cls-31" d="M85.32,22.98c-1.2.55-2.79,1.07-3.95,0,1.31-.07,2.64.05,3.95,0Z"/>
    <path class="cls-52" d="M76.92,18.53c-.75-.45-4.87,1.01-4.92-.24-.09-2.18,5-2.64,4.92.24Z"/>
  </g>
</svg>