<?xml version="1.0" encoding="UTF-8"?>
<svg id="Layer_2" data-name="Layer 2" xmlns="http://www.w3.org/2000/svg" viewBox="0 0 176.34 44.12">
  <defs>
    <style>
      .cls-1 {
        fill: #425365;
      }

      .cls-2 {
        fill: #fff;
      }
    </style>
  </defs>
  <g id="Metro">
    <g>
      <path class="cls-1" d="M160.74,15.36c-2.54,1.6-5.77,2.09-8.6,1.03-.91-.34-1.68-.94-2.56-1.34,1.9,2.94,2.68,5.63,1.3,9.01l-1.45,2.45c.85-.39,1.5-.98,2.39-1.35,2.56-1.07,5.52-.98,7.95.41,8.26,4.71,3.74,17.37-5.92,15.54-6.75-1.28-9-8.54-5.03-13.83-.7.19-1.19.76-1.88,1.1-5.49,2.72-12.66-1.15-12.49-7.44.21-7.82,8.44-11.14,14.37-6.48-.29-.81-.87-1.38-1.25-2.19-3.45-7.43,4-14.74,11.44-11.43,4.8,2.13,6.32,8.08,3.54,12.45-.12.19-.91.85-.74,1.02,1.22-.47,2.41-1.42,3.67-1.76,7.62-2.02,13.77,6.26,9.42,12.93-5.84,8.94-20.82.47-14.15-9.8.06-.1.55-.3.23-.61-.11.05-.17.27-.23.3Z"/>
      <path class="cls-1" d="M45.84,5.43c1.12.28,6.26-.52,6.89-.09.4.28-.09,7.71.3,8.79.78-.06,1.5-.43,2.26-.57,6.29-1.14,12.08,1.38,14.4,7.51,3.96,10.46-7.55,19.67-17.27,14.82-2.85-1.42-6.57-5.7-6.57-9.02V5.43ZM57.42,20.13c-1.94.2-4.22,1.88-4.51,3.89-1.03,7.12,8.49,8.2,10.12,2.63,1.06-3.63-1.92-6.91-5.61-6.52Z"/>
      <path class="cls-1" d="M96.57,25.9c-1.34,5.49-4.07,10.43-10.08,11.54-13.58,2.5-20.5-14.55-10.32-22.84,7.51-6.12,17.9-.88,19.64,8l-16.05,6.73c2.08,2.16,6.45,2.18,8.4-.16.81-.97,1.06-2.25,1.76-3.28h6.65ZM86.18,19.48c-2.8-2.24-7.08.04-7.94,3.21l7.94-3.21Z"/>
      <path class="cls-1" d="M32.52,13.41c10.45-.2,16.56,12.12,9.27,19.97-6.32,6.81-18.65,4.05-20.88-5.1-1.88-7.72,3.72-14.72,11.61-14.88ZM32.52,20.28c-4.15.13-6.45,4.78-3.79,8.13,2.43,3.05,7.73,2.33,8.9-1.48,1.1-3.57-1.41-6.77-5.11-6.65Z"/>
      <path class="cls-1" d="M30.56,10.62h-2.98c-1.87,0-4.8,2.09-5.96,3.51-2.99,3.65-1.39,8.14-3.01,12.11-2.42,5.94-8.71,10.68-15.16,11.12-.6.04-2.73.11-3.19,0-.09-.02-.26-.34-.26-.39v-7.56h2.98c1.87,0,4.96-1.88,6.19-3.28,3.28-3.7,1.56-7.85,3.13-11.99C14.74,7.71,21.45,2.5,28.5,2.51c.51,0,2.02.1,2.06.7v7.4Z"/>
      <path class="cls-1" d="M94.43,43.31c-.03-.44.24-.8.43-1.17,1.84-3.58,4.32-6.87,6.1-10.49-2.75-6.11-5.78-12.1-8.37-18.28h7.88s4.88,10.69,4.88,10.69c2.52-3.43,4.23-7.42,6.72-10.85h7.87c-.18,1.15-1.08,2.07-1.5,3.16l-16.15,26.93h-7.87Z"/>
      <path class="cls-1" d="M131.71,12.91l.13,6.7c-1.27.32-2.21.02-3.49.56-3.88,1.63-2.71,5.75-4.01,9.13s-5.58,7.6-9.36,7.6h-3.59l-.15-6.72c3.06.13,5.95-.83,6.66-4.12.65-3.04.08-4.47,1.93-7.39,1.52-2.39,5.66-5.76,8.6-5.76h3.29Z"/>
      <path class="cls-1" d="M115.21,43.92c-.3,0-.78.1-.9-.25-.25-.77.28-3.5-.21-3.99-.64-.64-2.1.14-2.1.96v3.28c-.22.04-.92,0-.92-.23v-4.96c.54.03.98-.23.99.46.57-1,3.13-.64,3.13.38v4.35Z"/>
      <path class="cls-1" d="M120.4,40.56c-1.35.26-.53-1.02-1.76-1.08-2.32-.1-2.1,4.34.24,3.6.77-.24.45-1.34,1.67-1-1.01,3.5-5.15,2.15-4.4-1.57.5-2.46,4.35-2.7,4.24.04Z"/>
      <path class="cls-1" d="M109.86,38.73v4.96c0,.23-.7.27-.92.23v-5.19h.92Z"/>
      <path class="cls-1" d="M122.04,42.27c1.58-.45,1.64,2.11,0,1.62-.76-.23-.75-1.41,0-1.62Z"/>
      <path class="cls-1" d="M160.74,15.66v-.31c.06-.04.12-.25.23-.3.32.31-.17.51-.23.61Z"/>
      <path class="cls-2" d="M57.42,20.13c3.69-.39,6.67,2.9,5.61,6.52-1.63,5.57-11.15,4.49-10.12-2.63.29-2.01,2.57-3.69,4.51-3.89Z"/>
      <path class="cls-2" d="M86.18,19.48l-7.94,3.21c.86-3.17,5.14-5.45,7.94-3.21Z"/>
      <path class="cls-2" d="M32.52,20.28c3.7-.12,6.21,3.08,5.11,6.65-1.18,3.81-6.48,4.54-8.9,1.48-2.66-3.35-.36-8,3.79-8.13Z"/>
    </g>
  </g>
</svg>