<?xml version="1.0" encoding="UTF-8"?>
<svg id="Layer_2" data-name="Layer 2" xmlns="http://www.w3.org/2000/svg" viewBox="0 0 371.62 90.91">
  <defs>
    <style>
      .cls-1 {
        fill: #425365;
      }

      .cls-2 {
        fill: #fdfdfd;
      }
    </style>
  </defs>
  <g id="Layer_8" data-name="Layer 8">
    <path class="cls-1" d="M13.48,17.49l6.26,40.45,8.24-40.4c2.64.31,11.83-1.02,13,.86l6.69,38.58,7.24-39.47,12.5-.02-13.43,52.54c-1.59,1.96-5.72,1.73-8.06,1.2-7.67-1.72-7.2-13.8-9.07-19.82l-3.15-19.48-8.33,38.58c-6.24,2.6-12.24-.44-14.31-6.8L0,17.49h13.48Z"/>
    <path class="cls-1" d="M179.13,71.42h-11.56v-26.48c0-3.1-6.56-6.31-9.18-3.4-.3.31-2.38,5.03-2.38,5.32v24.56h-11.56v-26.48c0-.18-1.21-3.07-1.43-3.39-1.98-2.97-9.17.52-9.17,2.43v27.45h-12.52V30.97h10.6s.48,4.81.48,4.81c5.89-8.12,16.3-8.08,22.15,0,4.39-6.3,15.29-8.33,20.74-2.43.76.82,3.82,7.1,3.82,7.74v30.34Z"/>
    <path class="cls-1" d="M99.19,71.41c-4.23.68-6.52-2.18-9.23-4.77-.94-.21-5.05,3.74-6.89,4.54-13.2,5.76-23.91-8.61-16.1-19.95,2.38-3.46,9.43-6.11,13.52-6.7,4.51-.66,8.32,2.05,5.02-4.68-5.15-2.53-11.33-.82-16.16,1.72l-1.89-8.61c8.49-3.86,23.01-5.52,28.88,3.29,4.43,6.65,2.76,20.86,2.82,28.97.02,2.2,1.01,3.96.03,6.2ZM87.64,52.16c-5.79-.66-13,1.74-11.11,8.69,6.71,6.94,12.59-1.12,11.11-8.69Z"/>
    <path class="cls-1" d="M206.1,44.46c-1-9.05-9.88-5.63-15.76-3.71-.91.3-.94,1.5-2.06-.13-.93-1.36-1.75-5.49-1.49-7.14,6.91-4.44,20.25-5.43,26.57.35,6.7,6.14,3.81,21.79,4.27,30.4.11,2.11,2.73,7.28-1.39,7.23-3.3-.04-5.61-4.91-7.73-4.9-4.66,3.3-7.91,6.56-14.38,5.78-3.73-.45-9.18-4.63-9.99-8.32-3.24-14.66,9.48-20.34,21.96-19.56ZM206.1,52.16c-6.75-.57-12.6,1.98-10.15,9.67,3.19,3.03,5.64,1.44,8.97-.24l1.18-9.43Z"/>
    <path class="cls-1" d="M262.92,17.49v13.48c1.61.3,9.48-.65,9.64.53.35,2.5-.26,5.55,0,8.14h-9.63s0,20.7,0,20.7c2.24,2.33,4.85,3.21,7.7,1.44l-.09,9.54c-5.21,1.86-11.4,1.85-15.81-1.82-.81-.67-3.36-3.71-3.36-4.35V17.49h11.56Z"/>
    <path class="cls-1" d="M116.53,71.42h-12.52V15.57c3.98.57,9.51-1.45,12.52,1.44v54.41Z"/>
    <path class="cls-1" d="M223.43,30.97h9.63s.48,6.74.48,6.74c3.27-4.88,6.51-8.82,13.01-7.71v10.6c-3.58-.27-6.8-.12-9.13,2.91-.41.53-2.43,4.06-2.43,4.31v23.6h-11.56V30.97Z"/>
    <path class="cls-1" d="M363.75,18.61c.87-.2,1.71-.34,2.59-.07,1.5,1.9,6.55,8.33,4.99,10.55-1.92,2.73-19.91,8.92-23.62,12.07-4.2,1.41-7.69-4.49-4.91-7.84l20.95-14.71Z"/>
    <path class="cls-1" d="M293.37,18.54c1.09-.35,2.27-.19,3.25.42l20.3,14.36.99,2.96c.05,2.57-2.69,5.65-5.19,5.18-3.81-3.09-22.42-9.64-24.33-12.37-.32-.45-.53-.89-.46-1.46.02-1.41,4.23-8.71,5.44-9.09Z"/>
    <path class="cls-1" d="M289.03,60.93l24.5-11.68c2.75-.88,5.67,5.05,4.82,6.76l-22.4,16.26c-3.6.84-8.61-8.98-6.93-11.34Z"/>
    <path class="cls-1" d="M344.42,49.36c1.21-.37,2.17,0,3.3.35,2.18.69,21.34,10.52,22.17,11.54,2.57,3.14-2.78,11.17-5.34,11.16-3.02,0-18.89-13.48-22.71-15.88-1.93-1.23,1.34-6.78,2.59-7.17Z"/>
    <path class="cls-1" d="M327.08,59.98h5.55l1.43,1.45,1.93,27.69c-.85,2.37-10.24,1.98-11.5,1.13-2.49-1.67-.13-11.55.08-14.48.19-2.53-.19-5.09.05-7.66.18-1.91.92-7.7,2.45-8.14Z"/>
    <path class="cls-1" d="M334.1,29.92c-3.01,1.37-5.47,1.37-8.48,0-.84-4.96-.68-9.91-1.03-14.86-.21-2.95-2.91-13.79.57-14.79,1.46-.42,9.03-.38,10.05.31,2.49,1.67.11,10.69-.08,13.52-.36,5.28-.08,10.55-1.03,15.82Z"/>
    <path class="cls-2" d="M87.64,52.16c1.48,7.58-4.4,15.64-11.11,8.69-1.89-6.96,5.32-9.35,11.11-8.69Z"/>
    <path class="cls-2" d="M206.1,52.16l-1.18,9.43c-3.33,1.69-5.79,3.28-8.97.24-2.45-7.69,3.39-10.24,10.15-9.67Z"/>
  </g>
</svg>