<?xml version="1.0" encoding="UTF-8"?>
<svg id="Layer_2" data-name="Layer 2" xmlns="http://www.w3.org/2000/svg" viewBox="0 0 430.11 75.39">
  <defs>
    <style>
      .cls-1 {
        fill: #405163;
      }

      .cls-2 {
        fill: #fefefe;
      }
    </style>
  </defs>
  <g id="Layer_1-2" data-name="Layer 1">
    <g>
      <path class="cls-1" d="M23.31,38.71c3.04-5.8,11.89-3.81,12.76-12.42.8-7.92-11.85-7.8-9.74.45,2.29,0,4.25-.32,3.77-2.97,6.03-.52-.96,7.73-4.75,6.76-2.4-2.63-3.89-6.34-2.03-9.76-2.35-.62-1.15,2.11-3.32,2.23-.62.03-6.35-1.33-4.59-3,1.49-1.42,20.01-3.46,21.83.76,2.37-5.49,10.24,3.92,12.4-1.48-6.51-.77-12.74-2.55-19.21-3.68-1.18-.21-.63-1.39-2.88-1.62-6.24-.65-13.59,2.49-19.27,4.55,2.65-6.36,9.96-7.03,16.19-6.75,7.77.35,17.11,5.09,24.1,5.27,1.49.04,3.49.35,4.09-1.5-13.23-.76-23.62-6.86-37.16-5.18-1.41.17-14.3,5.83-8.36-.09C16.54.88,38.81-1.41,51.32.76c4.37.76,10.52,4.04,15.25,4.31,5.19.3,10.18-2.07,15.4-1.51l-13.54,9.34c-9.92,10.32-20.98,19.54-31.23,29.53-3.75,3.65-9.34,8.21-11.26,12.74,16.9-10.81,30.19-29.22,45.9-41.12,5.3-4.01,11.53-8.16,18.39-8.25,1.67,1.43-13.14,8.89-14.51,9.87-15.3,10.86-29.52,26.16-42.64,39.49h14.67c2.47,0,12.23,4.05,16.56,4.48,6.01.6,17.32,1.15,21.42-3.72-14.77-4.12-9.08-21.21,2.69-25.38,9.08-3.22,15.05-2.04,24.01-.81,1.14.16,3.41-1.16,4.11-.73,1.57.97-1.65,5.98,4.54,3.72-.08,5.35-.81,15.72,5.81,17.04,2.41.48,9.19-1.18,9.23.89-6.59,4.87-11.21,5.35-19.2,5.29-1.84-.01-2.64-1.75-5.04-1.43-.64.09-9.09,4.97-11.44,5.92s-4.81.52-7.49,1.53c-3.9,1.46-7.83,6.63-13.48,9.04-26.56,11.33-38.61-3.04-63.29-1.61-2.19.13-14.15,2.73-14.68,2.22-.62-3.51,3.94-3.91,6.47-4.4,26.19-5.03,41.02,13.05,69.99.79,5.1-2.16,9.71-6.89,13.24-8.52,1.09-.5,23.61-4.91,19.35-8.8-4.54.03-8.25,3.29-12.74,4.9-2.32.83-5.18-.19-7.01.33-.89.25-11.72,8.6-15.44,10.25-24.9,11.01-39.61-2.52-65.2-1.26-3.24.16-6.6,2.24-10.16,1.48l30.06-27.68-.37-1.49c-2.66-.57-4.19,2.06-4.49,2.15s-1.49-.75-1.89-.64c-.31.6.56,2.99-1.15,3.72-5.24-1.16-2.03-2.8,1.15-3.72ZM42.87,25.25c-1.16.6-5.39-5.33-4.51,4.48,2.87.08,3.46-3.14,4.51-4.48.28-.36,2.85-.17,2.25-2.24-1.96-.65-2.07,2.15-2.25,2.24ZM90.24,46.93c-2.92-10.96,1.64-9.99,10.53-11.21M106.58,41.91c-1.57-2.04-10.88-2.43-12.9-.91-1.75,1.18-1.61,6.6-.8,8.18,1.9,3.73,19.66.45,13.7-7.27Z"/>
      <path class="cls-1" d="M268.5,23.75l-36.1,26.91,43.99-24.68-33.45,25.44c4.33,1.9,26.38,2.21,28.48-.83,1.21-1.75-2.72-9.34,5-15.61,4.77-3.88,15.73-6.81,21.8-6.72,4.47.07,8.67,2.84,13.16,1.48-.51,10.16,3.87,23.03,16.55,20.95,1.92,1.51-8.17,5.08-9.38,5.25-4.2.57-9.49-1.51-11.16-1.35-.59.06-7.79,4.51-10.46,5.28-4.31,1.24-15.27,3.72-17.12-1.7,4.71,2.8,23.55-1.47,25.21-5.97,2.12-5.75-10.92,3.1-12.26,3.52-5.25,1.64-10.73,1.42-15.96.21l1.5,2.23c-4.06-.41-9.22,6.19-11.79,7.33-15.6,6.91-34.94-3.53-51.39.15,1.17-2.48,3.2-2.73,5.6-3.02,14.97-1.81,26.22,6.99,43.84.24,1.01-.39,13.71-7.99,10.34-9.19-7.56,2.5-14.22,8.16-22.57,8.97-12.6,1.22-25.34-5.43-37.96-2.24,3.32-4.02,8.49-7.99,12.62-11.21,1.3-1.02,14.72-8.24,12.19-10.47-6.37-.96-22.15-1.24-26.56,4.42-1.24,1.59-.76,4.83-1.81,6.59-3.28,5.47-9.32,11.23-16,12.16.76-4.85,7.6-4.98,10.94-9.68,3.92-5.5,2.13-10.78,9.42-14.56,11.28-5.85,20.78.96,32.27-1.95,1.2-1.14-.16-1.31-1.11-1.49-3.76-.68-10.05.21-14.29-.01-7.66-.39-12.43-2.65-20.69,1.5,12.22-21.75,37.72-8.59,57.15-11.96ZM299.34,37.96c2.2-1.95-11.61-6.18-15.34-2.16-2.37,2.56-1.16,10.07.31,12.83,4.43,8.33,26.39-2.5,16.35-7.92-7.46-4.03-15.1,2.37-15.6,1.74-4.66-5.82,11.25-6.2,14.28-4.49Z"/>
      <path class="cls-1" d="M369.76,24.03c2.16.86,7.23,7.12,8.13,7.2,1.21.1,16.11-7.74,22.71-8.12,26.33-1.5,19.26,37.67-3.48,37.28,2.95-7.27,8.41-9.05,5.11-18.17s-14.41-3.51-20.9-2.77c-3.52-3.84,11.21-6.23,13.53-5.24-.83-5.61-13.93-1.78-14.94,1.27-.51,1.54,1.16,9.32.68,12.6-1.19,8.16-10.99,9.79-17.32,13.8,4.21-14.2,3.32-32.82-16.55-22.44.28-5.68,7.75-5.46,12.03-5.24-2.15-4.8-13.4-2.47-15.09.56-1.3,2.32,3.4,14.31-.73,19.24-1.06,1.26-11.35,7.58-13.01,7.19-.83-.2-.82-2.08-1.66-2.28-1.47-.35-13.12,5.5-16.88-.4,11.98-.24,22.4-.47,19.37-15.53-1.24-6.14-8.38-7.37-2.85-14.93,7.74-10.59,11.76,2.05,14.69,2.46s9.58-5.93,12.26-6.69c4.24-1.2,10.83-1.42,14.91.2Z"/>
      <path class="cls-1" d="M191.79,56.65c-.85-.76,10.82-17.87-2.63-18.01-2.05-.02-14.31,5.94-8.67-.33,2.8-3.12,9.43-.75,9.79-1.11,3.06-3.06-9.06-3.75-12.47-.78-1.2,4.54,1.33,8.89-1.16,13.78-1.3,2.56-8.71,6.59-11.56,5.7,2.45-12.07,1.56-21.56-13.16-14.97-.08-5.05,6.06-4.76,9.77-3.74-.46-4.52-11.14-3.05-12.3-.56-1.23,2.64,4.01,11.38-1.23,15.89-4.35,3.75-24.71,11.15-30.09,6.74,3.63.25,19.95-5.04,20.83-8.06,2.88-9.89-7.93-13.74-1.68-20.78,6.48-7.3,8.64,2.08,11.28,2.29,1.72.13,11.92-6.07,18.77-5.21,4.44.56,6.59,5.53,9.14,6,1.14.21,2.14-2.47,3.23-2.94,2.99-1.3,10.48-4.1,13.45-4.39,22.2-2.21,17.39,29.84-1.3,30.47Z"/>
      <path class="cls-1" d="M50.38,41.7c1.01,1.09-2.99,8.01,2.28,10.07,3.91,1.52,9.12-1.58,7.41-5.86-.67-1.67-3.74-.67-2.92-2.33,6.44-3.19,6.39,5.24,6.8,5.57.72.57,7.01-1.24,6.74,3.02-5.59.16-11.42,1.63-16.98,1.55-2.36-.03-3.54-1.6-5.23-1.63-1.36-.03-1.04,1.58-1.58,1.61-1.57.08-3.48-1.25-5.53-.03-1.28-5.89,5.7-3.41,6-3.74.34-.37-.73-12.25,3.01-8.22Z"/>
      <path class="cls-1" d="M400.13,65.63c.9-4.94,6.85-4.74,10.04-6.84,7.02-4.61,8.47-12.61,11.01-20.08,2.16,12.99-8.94,24.82-21.05,26.92Z"/>
      <path class="cls-1" d="M424.76,54.56c4.37-.3,7.7,5.57,3.25,8.5-7.51,4.94-12.32-7.88-3.25-8.5Z"/>
      <path class="cls-1" d="M348.98,55.54c-.53,2.43-12,9.91-14.2,10.54-1.38.39-2.24,1.13-2.37-.83-.26-4.06,11.71-6.39,13.5-9.02s1.26-8.64,3.07-11.54c-.46,3.18.63,7.92,0,10.84Z"/>
      <path class="cls-1" d="M381.85,57.93c-.82,1.02-14,8.46-14.81,7.69.79-5.12,9.27-5.8,12.37-9.75,1.9-2.42,3.27-8.03,4.18-11.18,1.78,2.35-.21,11.33-1.74,13.24Z"/>
      <path class="cls-1" d="M182,44.7c.06,3.71.4,7.99-1.9,11.19-1.47,2.05-15.46,10.04-12.02,3.75.96-1.76,7.56-2.95,9.82-5.94l4.09-9.01Z"/>
      <path class="cls-1" d="M153.44,45.44c3.09,1.89,1.01,7.96-.56,10.29-2.05,3.05-15.39,9.7-11.5,4.27,6.22-4.19,12.42-5.37,12.06-14.56Z"/>
      <path class="cls-1" d="M60.92,35.71l-5.26.75c1.14-2.27,5.7-6.06,5.26-.75Z"/>
      <path class="cls-1" d="M61.67,32.72c-.55-.57.28-3.3,1.86-2.98,2.79.56-.43,4.46-1.86,2.98Z"/>
      <path class="cls-2" d="M106.58,41.91c5.96,7.72-11.81,11-13.7,7.27-.81-1.58-.95-7,.8-8.18,2.02-1.52,11.33-1.13,12.9.91Z"/>
      <path class="cls-2" d="M102.93,38.15c-7.8.37-13.17.02-10.53,11.21-6.87-9.64.63-14.22,10.53-11.21Z"/>
      <path class="cls-2" d="M42.87,25.25c.18-.09.29-2.89,2.25-2.24.6,2.07-1.97,1.88-2.25,2.24-1.05,1.34-1.64,4.56-4.51,4.48-.88-9.81,3.35-3.89,4.51-4.48Z"/>
      <path class="cls-2" d="M299.34,37.96c-3.03-1.71-18.94-1.33-14.28,4.49.51.63,8.15-5.77,15.6-1.74,10.04,5.42-11.92,16.25-16.35,7.92-1.47-2.77-2.69-10.28-.31-12.83,3.73-4.02,17.54.21,15.34,2.16Z"/>
    </g>
  </g>
</svg>